<svg xmlns="http://www.w3.org/2000/svg" viewBox="0 0 56 56"><defs><linearGradient id="a" y1=".5" x2="1" y2=".5" gradientUnits="objectBoundingBox"><stop offset=".08" stop-color="#a52c41"/><stop offset="1" stop-color="#600f30"/></linearGradient><linearGradient id="b" x1=".69" y1=".75" x2=".15" y2=".172" gradientUnits="objectBoundingBox"><stop offset="0" stop-color="#f3cb8f"/><stop offset=".9" stop-color="#f5ecd8"/></linearGradient><linearGradient id="c" x1="-2.735" y1="-1.665" x2="-2.745" y2="-1.655" gradientUnits="objectBoundingBox"><stop offset="0" stop-color="#f3cb8f"/><stop offset="1" stop-color="#f5ecd8"/></linearGradient></defs><g data-name="arcticle"><path data-name="Rectangle 1944" fill="none" d="M0 0h56v56H0z"/><path data-name="Path 1201" d="M217.889 141.571v19.05a3.974 3.974 0 0 1-2.61 3.72 3.957 3.957 0 0 1-3.617 2.352h-17.7a3.969 3.969 0 0 1-3.962-3.959v-26.662a3.974 3.974 0 0 1 2.61-3.72 3.957 3.957 0 0 1 3.617-2.352h13.011a9.554 9.554 0 0 1 1.379.1 9.163 9.163 0 0 1 5.08 2.472 7.022 7.022 0 0 1 1.622 2.506c.81 2.105.57 4.298.57 6.493z" transform="translate(-175.944 -120.383)" fill="url(#a)"/><path data-name="Path 1202" d="M236.287 144.815l-1.349 3.136h2.7zm8.668-5.815h-11.991a3.975 3.975 0 0 0-3.964 3.964V168.4a3.975 3.975 0 0 0 3.964 3.964h16.485a3.976 3.976 0 0 0 3.964-3.964v-20.943a8.481 8.481 0 0 0-8.458-8.457zm-12.33 11.161l3.006-6.648a.374.374 0 0 1 .34-.222h.62a.374.374 0 0 1 .34.222l3.009 6.65a.37.37 0 0 1-.34.527h-.562a.374.374 0 0 1-.343-.226l-.635-1.478h-3.537l-.635 1.48a.374.374 0 0 1-.343.226h-.583a.37.37 0 0 1-.337-.531zm12.875 15.493a.421.421 0 0 1-.421.421h-7.961a.421.421 0 0 1-.421-.421v-.416a.421.421 0 0 1 .421-.421h7.961a.421.421 0 0 1 .421.421zm4.587-4.217a.42.42 0 0 1-.42.42H232.6a.42.42 0 0 1-.42-.42v-.417a.42.42 0 0 1 .42-.42h17.062a.42.42 0 0 1 .42.42zm0-4.217a.42.42 0 0 1-.42.42H232.6a.42.42 0 0 1-.42-.42v-.42a.42.42 0 0 1 .42-.42h17.062a.42.42 0 0 1 .42.42zm.074-4.291a.42.42 0 0 1-.42.42h-17.066a.42.42 0 0 1-.42-.42v-.417a.42.42 0 0 1 .42-.42h17.062a.42.42 0 0 1 .42.42zm0-4.66a.421.421 0 0 1-.421.421h-7.444a.421.421 0 0 1-.421-.421v-.416a.421.421 0 0 1 .421-.421h7.444a.421.421 0 0 1 .421.421z" transform="translate(-212.059 -128.717)" fill="url(#b)"/><path data-name="Path 1203" d="M457.991 146.37a7.7 7.7 0 0 1-8-7.62c4.847.064 7.693 2.983 8 7.62z" transform="translate(-416.701 -128.486)" fill="url(#c)"/></g></svg>