<svg xmlns="http://www.w3.org/2000/svg" viewBox="0 0 56 56"><defs><linearGradient id="a" x1=".309" y1=".413" x2=".628" y2=".562" gradientUnits="objectBoundingBox"><stop offset="0" stop-color="#f5ecd8"/><stop offset="1" stop-color="#f0be73"/></linearGradient><linearGradient id="b" x1=".068" y1=".239" x2=".718" y2=".857" gradientUnits="objectBoundingBox"><stop offset=".08" stop-color="#a52c41"/><stop offset="1" stop-color="#600f30"/></linearGradient></defs><g data-name="course"><path data-name="Rectangle 1945" fill="none" d="M0 0h56v56H0z"/><path data-name="Path 1204" d="M259.782 270.91a8.661 8.661 0 1 0 .715-.03 8.06 8.06 0 0 0-.715.03z" transform="translate(-233.206 -250.841)" fill="url(#a)"/><path data-name="Path 1205" d="M133.643 116.377a2.256 2.256 0 0 0-.51 4.454 19.408 19.408 0 0 1-23.173 16.992 18.4 18.4 0 0 1-6.766-2.8c-.111-.074-.222-.148-.33-.227a3.218 3.218 0 0 0-4.561-4.409 19.429 19.429 0 0 1-3.447-15.487 18.394 18.394 0 0 1 2.807-6.758 19.391 19.391 0 0 1 14.731-8.646 1.591 1.591 0 1 0-.08-.74 20.147 20.147 0 0 0-18.19 24.107 19.094 19.094 0 0 0 2.905 7.028q.351.518.726 1.014a3.217 3.217 0 0 0 4.627 4.454 20.189 20.189 0 0 0 15.545 3.187 19.086 19.086 0 0 0 7.02-2.914 20.149 20.149 0 0 0 8.925-14.75 2.256 2.256 0 0 0-.229-4.5zm-20.522-9.5a12.017 12.017 0 1 0 .993-.041 11.28 11.28 0 0 0-.994.04zm5.951 12.712l-7.4 4.813a1.021 1.021 0 0 1-1.574-.856V113.8a1.02 1.02 0 0 1 1.586-.849l7.4 4.93a1.021 1.021 0 0 1-.012 1.7z" transform="translate(-86.797 -90.162)" fill="url(#b)"/></g></svg>