<svg xmlns="http://www.w3.org/2000/svg" xmlns:xlink="http://www.w3.org/1999/xlink" viewBox="0 0 56 56"><defs><linearGradient id="a" x1=".352" y1=".242" x2="1.025" y2="1.416" gradientUnits="objectBoundingBox"><stop offset="0" stop-color="#f5ecd8"/><stop offset="1" stop-color="#f3cb8f"/></linearGradient><linearGradient id="b" x1=".352" y1=".242" x2="1.025" y2="1.416" xlink:href="#a"/><linearGradient id="c" x1=".184" y1=".252" x2=".715" y2=".932" gradientUnits="objectBoundingBox"><stop offset=".08" stop-color="#a52c41"/><stop offset="1" stop-color="#600f30"/></linearGradient><linearGradient id="d" x1=".369" y1=".209" x2=".964" y2="1.53" xlink:href="#a"/></defs><g data-name="flow-chart"><path data-name="Rectangle 1967" fill="none" d="M0 0h56v56H0z"/><path data-name="Rectangle 1968" transform="translate(36.62 35.866)" fill="url(#a)" d="M0 0h14.152v7.301H0z"/><path data-name="Rectangle 1969" transform="translate(5.155 35.866)" fill="url(#b)" d="M0 0h14.152v7.301H0z"/><path data-name="Path 1220" d="M44.759 158.517h21.9a2.261 2.261 0 0 0 2.264-2.257v-7a2.263 2.263 0 0 0-2.27-2.26h-21.9a2.261 2.261 0 0 0-2.264 2.257v7a2.264 2.264 0 0 0 2.264 2.257zm24.975 6.926a3.04 3.04 0 0 1 1.145 2.409h.861a3.927 3.927 0 0 0-1.459-3.072c-1.154-.953-3.471-1.908-7.955-1.045-2.4.463-4.128.282-5.122-.539a3.685 3.685 0 0 1-1.1-3.022h-.877a3.367 3.367 0 0 1-1.258 2.629c-1.448 1.2-3.95 1.526-7.044.931-2.787-.536-4.73-.311-5.943.69a4.249 4.249 0 0 0-1.351 3.5h.86a3.468 3.468 0 0 1 1.036-2.84c.988-.814 2.748-.988 5.232-.509 4.294.826 6.584-.148 7.754-1.11a4.392 4.392 0 0 0 1.036-1.232 3.583 3.583 0 0 0 1.11 1.627c1.2.992 3.164 1.235 5.832.721 3.24-.626 5.809-.319 7.243.862zm-21.9 4.291H32.262A2.258 2.258 0 0 0 30 171.991v7a2.263 2.263 0 0 0 2.261 2.258h15.575a2.259 2.259 0 0 0 2.261-2.257v-7a2.261 2.261 0 0 0-2.261-2.257zm-7 7.678h-6.017a.527.527 0 0 1 0-1.054h6.023a.527.527 0 0 1 0 1.054zM44 174.626h-9.183a.527.527 0 0 1 0-1.054H44a.527.527 0 1 1 0 1.054zm35.225-4.893H63.651a2.258 2.258 0 0 0-2.261 2.257v7a2.263 2.263 0 0 0 2.261 2.258h15.574a2.253 2.253 0 0 0 .308-.021 2.268 2.268 0 0 0 1.954-2.237v-7a2.262 2.262 0 0 0-2.262-2.256zm-7.448 7.678h-6.022a.527.527 0 0 1 0-1.054h6.022a.527.527 0 0 1 0 1.054zm3.161-2.785h-9.183a.527.527 0 0 1 0-1.054h9.183a.527.527 0 1 1 0 1.054z" transform="translate(-27.781 -136.125)" fill="url(#c)"/><path data-name="Path 1221" d="M231.5 156.17h-21.9a1.5 1.5 0 0 0-.217.015 1.588 1.588 0 0 0-1.37 1.565v7a1.589 1.589 0 0 0 1.586 1.58h21.9a1.629 1.629 0 0 0 .217-.015 1.589 1.589 0 0 0 1.369-1.565v-7a1.585 1.585 0 0 0-1.585-1.58zm-6.841 6.631a.6.6 0 0 1-.592.592h-13.416a.6.6 0 0 1-.592-.592v-.015a.6.6 0 0 1 .592-.592h13.414a.6.6 0 0 1 .592.592zm6.548-3.086a.6.6 0 0 1-.592.592h-19.964a.6.6 0 0 1-.592-.592v-.015a.6.6 0 0 1 .592-.592h19.962a.6.6 0 0 1 .592.592z" transform="translate(-192.631 -144.617)" fill="url(#d)"/></g></svg>