<svg xmlns="http://www.w3.org/2000/svg" xmlns:xlink="http://www.w3.org/1999/xlink" viewBox="0 0 56 56"><defs><linearGradient id="a" x1=".214" y1=".285" x2=".806" y2=".835" gradientUnits="objectBoundingBox"><stop offset=".08" stop-color="#a52c41"/><stop offset="1" stop-color="#600f30"/></linearGradient><linearGradient id="c" x1=".268" y1=".54" x2="1.268" y2=".54" gradientUnits="objectBoundingBox"><stop offset="0" stop-color="#f5ecd8"/><stop offset="1" stop-color="#f3cb8f"/></linearGradient><linearGradient id="b" x1=".708" y1="-.086" x2=".708" y2="1.24" gradientUnits="objectBoundingBox"><stop offset="0" stop-color="#f0be73"/><stop offset="1" stop-color="#f5ecd8"/></linearGradient><linearGradient id="d" x1=".149" y1=".128" x2="1.05" y2="1.082" xlink:href="#a"/><linearGradient id="e" x1="-.619" y1="-11.29" x2=".23" y2="-8.961" xlink:href="#b"/></defs><g data-name="lesson"><path data-name="Rectangle 1970" fill="none" d="M0 0h56v56H0z"/><path data-name="Path 1222" d="M127.412 207.669l-.284-.318-4.473-5.062v-19.582a1.269 1.269 0 0 0-1.268-1.267H89.9a1.233 1.233 0 0 0-.173.012 1.272 1.272 0 0 0-1.095 1.258v19.59l-4.406 5.053a2.7 2.7 0 0 0-.317.488 2.286 2.286 0 0 0-.007.678v.735a1.269 1.269 0 0 0 1.269 1.266h40.99a1.263 1.263 0 0 0 .176-.012 1.281 1.281 0 0 0 1.11-1.258v-.605c0-.246.019-.491 0-.74-.001-.056.009-.188-.035-.236z" transform="translate(-77.677 -168.018)" fill="url(#a)"/><path data-name="Path 1223" d="M188.26 189.34h-31.528a.694.694 0 0 0-.692.692v20.343h32.912v-20.343a.694.694 0 0 0-.692-.692z" transform="translate(-144.497 -175.333)" fill="url(#c)"/><path data-name="Path 1224" d="M130.537 466.768a1.7 1.7 0 0 0-.814-.138H98.261a1.681 1.681 0 0 0-.814.138l-4.6 5.28c0 .118.2.229.7.229h40.887c.494 0 .708-.124.7-.229zm-3.313 3.043h-26.463c-.182 0-.3-.038-.257-.084l1.691-1.943a.611.611 0 0 1 .3-.05h23a.594.594 0 0 1 .3.05l1.694 1.943c.033.046-.081.084-.264.084z" transform="translate(-85.981 -432.11)" fill="url(#b)"/><path data-name="Path 1225" d="M212.935 211.269h-27.243a.684.684 0 0 0-.692.67v15.408a.684.684 0 0 0 .692.67h27.242a.683.683 0 0 0 .692-.67v-15.408a.684.684 0 0 0-.691-.67zM199.351 223.4a3.7 3.7 0 1 1 3.7-3.7 3.7 3.7 0 0 1-3.7 3.7zm1.454-3.905l-1.95-1.294a.269.269 0 0 0-.417.222v2.565a.269.269 0 0 0 .415.226l1.947-1.267a.269.269 0 0 0 0-.451z" transform="translate(-171.314 -195.64)" fill="url(#d)"/><path data-name="Path 1226" d="M92 540.34h42.323v1.278a.734.734 0 0 1-.734.734H92.733a.734.734 0 0 1-.733-.734z" transform="translate(-85.194 -500.368)" fill="url(#e)"/></g></svg>