<svg baseProfile="tiny" xmlns="http://www.w3.org/2000/svg" viewBox="0 0 345 288"><path fill="#A52C41" d="M200.4 70.4c.1-.3.3-.6.5-.9.4.3.8.5 1.1.9.2-.9.1-1.8 0-2.8-.2 0-.4-.1-.6-.2-.4-.1-.9-.4-.9-.6.1-1.4-1.1-2.1-1.8-3-.3-.4-.5-.8-.6-1.3-.1-1.4-1.6-2.2-2.8-1.6-.4.2-.8.3-1.1.4-.3-.7-.5-1.2-.8-1.8-1.2.8-1.2.8-2.7-.5.9-.3 1.6-.5 2.4-.7-.1-.5-.3-1.2.8-1.2 0-.2 0-.3-.1-.4-.4-.4-1.2-.8-1.3-1.3-.2-1.5-.2-3.1 0-4.8.1.2.3.4.4.6-.1-.3-.2-.5-.2-.8-1.2-.5-2.2-1.1-3.3-1.7-1.4-.5-2.9-.7-4.5-.4-1.4.2-2.8.6-4.4 1 .3.4.6.7.6.7-.4 1.7-.8 3.2-1.2 4.8h-3.2v.5c.5.1 1.1.1 1.6.2.3 0 .8 0 1 .2.1.1.1.7 0 .9-.3.2-.7.4-1.1.3-1.1-.2-2.1-.5-3.2-.8-.4-.1-.8-.6-1.1-.8-.2.2-.4.4-.6.5-1.1.2-2.3.3-3.4.4-.3 0-.6-.3-.8-.5-.3-.3-.6-.6-1-.9.5 1 .4 1.8-.7 2.4 0-.6 0-1.1-.1-1.5-.1.1-.1.3-.2.6s-.2.6-.4.8c.2 0 .4.1.6.1-1.4 2.4-1.1 5.1-.9 7.7.1 1.2 1.6 2.7 2.8 2.8 1.4.2 1.5.3.9 1.6-.1.2 0 .5.1.6.1.1.5.1.6-.1.7-.7 1.1-.4 1.4.4.1.4.4.7.7 1 .9.9 1 1.9.1 3.1-.2-.6-.4-1-.7-1.5-.7.3-.8.8-.3 1.4 1 1.2 1 1.3-.4 2 1.2.3 1.5 1.1 1.5 2.2 0 .6.4 1.2.6 1.8.1.1.2.3.2.4 0 .3.2.6.2.9h.4c-.2-.2-.1-.7-.1-.8 2.6 0 5 .2 7.4-.1.9-.1 1.7-1.2 2.4-2 .6-.6 1.1-1.4 1.6-2.2-.8-.4-1-1-.1-1.9.3-.3.4-.9.6-1.3.1.5.2 1 .4 1.4.1.3.5.6.8 1 .3-.9-.3-2.3 1.3-2 .7.1 1 .6 1 1.3.2-.1.4-.3.6-.4-.1-.1 0-.7.1-.7.3-.1.7-.2 1-.1.2.1.4.2.6.2 2.5-.5 5.7.2 7.8-.9.3-.6.4-1.6.5-2.6z"/><path fill="#5B5B5B" d="M299.1 232.3c-4.3-5.9-8.2-12.1-12.9-17.6-4.9-5.8-10.3-11-15.7-16.4-4-4-8.3-7.9-12.4-11.8-.6-.6-1.1-1.4-1.8-2.2.5-.1.7-.1.9-.1 6.3-.6 12.7-1.1 19-1.9 5.8-.8 11.3-2.7 16.4-5.7 2.4-1.5 4.7-3.3 5.9-5.9 3.4-7.6 6.6-15.2 5.9-23.8-.4-4.7-1.4-9.2-4.1-13.2-8.1-11.6-19.6-18.4-33.1-21.6-14.3-3.3-28.9-4.3-43.5-5.9-2.4-.3-4.9-.5-7.5-.8 1-1.1 2.3-1.5 2.7-3.1.5-2.1 1.8-4.1 2.5-6.2 2.5-7.2 4.8-14.4 7.2-21.6.5-1.6 1.2-3.2 1.8-4.8.7-2.2 1.3-4.4 2-6.5 1.3-3.7 2.1-7.4 2.2-11.3 0-.4-.2-.9-.4-1.3-.3-.6-.9-1.2-1.1-1.8-.5-1.2-1.4-1.9-2.6-2.5-1.3-.6-2.7-1.5-3.7-2.6-.8-1-1.6-1.6-2.8-2-3-.9-5.9-1.8-8.8-2.7-1-.3-1.7-.2-2.4.6-.8.9-2.7.5-2.9-.6-.2-1.3-1.2-1.9-2.2-2.5l-1.2-.9c-.4 0-.8.1-1.2.1v-2.1c.5.1 1 .1 1.5.2 1.7-.1 1.9-1.3 1.7-2.7-.1-.4 0-.8 0-1.2-.1-2.1-1.3-3.8-3.3-4.5-.7-.2-1.4-.5-2-.8-6.1-2.5-12.3-4.5-18.8-4.9-.7-.1-1.8.2-2.2.7-.9 1-1.6 2.3-2.3 3.6-.2.3 0 1.1.3 1.3.9.8.5 1.6.1 2.3-.2.3-1 .4-1.5.4s-1-.4-1.5-.3c-.5 0-1.2.2-1.6.5-.4.4-.7 1-1.3.6-.7-.4-1.8-.6-1.7-1.7.1-1-.5-1.6-1.2-2-1-.4-2.1-.8-3.2-1.1l-4.5-1.2c-2.3-.7-4.6-1.3-6.5 1-.2.2-.7.3-1 .3-2.7-.3-5.2.5-7.4 1.9-1.5 1-2.7 2.6-4 4-.5.5-.9 1.3-.8 1.9.1 2-.9 3.7-1.5 5.5-2.4 7.7-5 15.3-7.4 22.9-.9 2.8-1.4 5.7-2.5 8.4-.8 2-1.6 3.8-1.6 6 0 1.5-.4 3.1-.1 4.6.3 1.4 1.2 2.8 1.8 4.1.6 1.2 1.4 2.3 3.1 2.1.5-.1 1.2.1 1.6.4.4.3.6.8.9 1.2.3.4.5.9.9 1.2 1 .5 2.1.9 3.4 1.4-.7 0-1.1.1-1.4.1-9.6-.5-19.2-.9-28.9-1.4-2.5-.1-5.1-.6-7.6-1.1-1.8-.4-2.9-.1-3.8 1.5-.6 1.2-.9 2.5-1.4 3.7-5.8 14.8-11.5 29.7-17.3 44.5-.1.4-.6.6-.9.9-.2-.3-.5-.7-.6-1-2.6-11.4-5.3-22.9-7.8-34.3-.9-4.2-1.9-8.5-.2-12.9.5-1.3-.1-2.3-1.5-2.7-1.3-.3-2.8-.5-4.1-.4-1.8.1-3.5.5-5.2.5-7 .2-14 .4-21 .5-4.9 0-9.7-.3-14.6-.4-.8 0-1.2-.3-1.2-1.1-.2-3.2-.4-6.5.7-9.6.5-1.6-.4-3.7-1.8-3.9-2.2-.4-3.7-.3-4.4 2.2-.2.6-.2 1.2-.2 1.8v8.2c0 1.2-.4 2.1-1.7 2.6-.8.3-1.7.8-2.3 1.4-1.7 1.5-1.3 4.5.7 5.4.9.4 1.9.7 3 1v1c-.2 10.8-.5 21.7-.7 32.5-.2 10.2-.4 20.5-.5 30.7l-.3 32.3c0 3.5.1 7 .3 10.4.1 1.9 1.2 2.9 3.1 2.9.8 0 1.5-.1 2.3-.1 6.9-.4 13.8-.9 20.7-1.1 4.6-.2 9.2.1 13.8.1 2.6 0 4-1.5 3.6-4.1-.3-1.7-.7-3.5-.7-5.2-.1-6.5-.1-13 0-19.4.1-3.1.5-6.3.7-9.4h.4c.1.3.2.5.3.8 1.9 7.8 3.9 15.6 5.7 23.5.8 3.4 1.2 7 1.8 10.5.2 1.3.5 2.6 1 3.8.6 1.5 2.2 2.6 4.4 2.1 3.1-.7 6.2-1.1 9.3-1.5 5.8-.6 11.6-.5 17.4 0 2.1.2 3.3-.3 4.2-2.8 4-10.5 7.1-21.3 9.7-32.2.3-1.4.7-2.8 1-4.2h.3c.2 1.2.4 2.5.5 3.7.7 13 1.3 26.1 1.9 39.2.1 1.7.9 2.8 2.6 3.1 1.1.1 2.2-.2 3.3-.2 7.7-.4 15.4-.8 23.1-1.1 4.6-.2 9.3-.2 13.9-.3 2.7-.1 3.8-1.4 3.4-4-.6-4.1-1.2-8.1-1.7-12.2-1.6-11.9-2.4-23.9-2.5-36-.2-19.7-.3-39.4-.4-59.1 0-1.4.2-2.9.4-4.3 0-.3.7-.7.9-.7 3.2.7 6.3 1.4 9.4 2.3 2.6.7 5.1 1.7 7.7 2.5l8.7 2.7c.8.3 1.5.7 2.3 1 1.5.5 3 .9 4.4 1.5.3.1.4.4.8.9-.7 0-1 .1-1.4.1-4.2-.2-8.4-.3-12.6-.7-3.7-.3-7.1.4-10.3 2-3.2 1.5-4 2.9-3.7 6.4v.5c0 4.4.1 8.9 0 13.3-.1 7.7-.1 15.4-.3 23.1-.4 13.1-1.3 26.2-1 39.3.2 5.7.2 11.4.2 17 0 7.4-.1 14.9-.3 22.3-.1 2.6 1.9 4.4 4.4 4 3.1-.4 6.2-.9 9.3-1 2.9-.1 5.9.2 8.8.3 4.1.2 8.3.3 12.3 1.8.3.1.8.1 1.2 0 1.9-.5 2.8-1.8 3.1-3.7 1.1-8.7 2.3-17.3 3.3-26 .4-3.7.5-7.4.8-11.1.1-.9.4-1.9.7-2.9 3.2 3.6 6.4 6.9 9.3 10.3 4.2 4.9 8.3 9.9 12.3 14.9 3.8 4.9 7.9 9.7 10.6 15.4.4.9 1.2 1.6 1.9 2.3.5.5 1.2.9 1.9.9 6.2.6 12.4 1.2 18.6 1.7 5.3.4 10.6.4 15.9.8 5.3.4 10.6 1.1 15.6 3 1.8.7 3.3.1 4.7-.8.8-.5.9-1.3.4-2.1-.6-1.2-1.4-2.4-2.3-3.6zM216 91.1c-.4-.3-.8-.6-1.2-1 0 0 .2-.4.6-.9.5.6.8 1 1.1 1.4l-.5.5zm-3.8 5.9c-.5.1-1.4.6-1.4-.3 0-.4.8-1 1.3-1.4.1-.1.2 0 .3 0 0 .1 0 .2.1.2.6-.2 1.2-.4 1.8-.5.3 0 .6.1.9.2-.1.4-.2 1-.5 1.1-.8.4-1.7.5-2.5.7zm1.6 1c-.6.5-1.1 1-1.8 1.4-.1.1-.5-.3-.8-.4.4-.5.7-1 1.2-1.4.3-.2.8 0 1.2 0l.2.4zm-4.1-13.5c.3-.6.2-.9-.3-1.4-.3-.3-.3-.9-.3-1.4 0-.2.5-.6.6-.5.4.2.7.5.9.8.3.6.4 1.3.7 2 .3-.9.2-1.7-.3-2.6-.1-.2-.4-.4-.4-.6 0-.4.1-.8.1-1.2.3.2.7.3 1 .6.2.2.4.6.5.7.6-.3.9-.5 1.3-.7.1.7.2 1.4.2 2.1 0 .2-.4.4-.6.5-.9.3-.9.8-.5 1.6.2.3 0 .9 0 1.3-.4-.2-.9-.3-1.3-.5-.3-.1-.7-.3-1-.4.5 1 .9 1.7 1.3 2.7-1.5-.3-2.4-1.9-1.9-3zm.8 4.6c-.2.1-.5.2-1 .4-.5-.5-1.1-1.1-1.6-1.7-.3-.4-.5-1-.6-1.5 0-.5.2-.9.3-1.4.4.2 1 .4 1.2.7.4.7.5 1.5.8 2.3.1.2.2.4.4.5.2.3.4.5.5.7zm.8-15.3c.1-.3.4-.6.6-.9.2.3.5.5.5.8.1.4.2.9.2 1.4 0 .4-.3.8-.5 1.1-.3-.3-.6-.6-.8-.9-.1-.2 0-.5-.1-.8.1-.2 0-.5.1-.7zm2.8-5.3c-.9-.9-1.1-2.2-.6-3 .6-1 .6-2.2 1.3-3 .8-.8.8-1.7.2-2.6-.2-.3-.2-.6-.2-.9 0-.2.2-.5.3-.5.2-.1.5.1.6.2.5.8 1 1.6 1.3 2.4.1.3-.3.7-.5 1.2.2.2.4.6.7.9 1.1 1.1.3 2.3.2 3.5 0 .2-.5.5-.8.5-.2 0-.5-.4-.6-.6-.1-.5-.1-1-.2-1.7-.4.2-1 .4-1 .6 0 .5.2 1 .6 1.4 1.4 1.4 1.6 2.2.7 3.9-.1.2-.1.4-.2.6-.3 1.4-.5 2.9-.9 4.3-.1.3-.4.4-.7.7-.1-.3-.4-.5-.4-.8.2-1.6-.6-2.9-1.2-4.2-.5-1-.3-2 .4-3 .7.8.7 2 2.2 1.9-.4-.8-.7-1.4-1.2-1.8zm5 6.3c-.3-.1-.6-.4-1-.7.4-.3.8-.7.9-.7.3.2.6.5.7.9 0 0-.4.5-.6.5zm1.4 4.7c.1-.1.5.6.8.9-.1.1-.2.3-.3.4-.5-.8-1.4 1-1.8-.3 0-.2.8-.8 1.3-1zm-1.1-3c-.1 1.4-.5 1.3-1.3 1-.9-.3-1.1-1-1-1.7 0-.2.7-.6.8-.6.7.4 1.2.9 1.5 1.3zm-3.3 2.4c.4-.4 1-1.1 1.2-1 .6.3 1.4.8 1.5 1.4.2.9-.7.9-1.4 1-.8.1-1.2-.3-1-1.2-.2 0-.3-.1-.3-.2zm-2.2 6.7c-.1-.3-.1-.7-.1-1.1.4.2.8.2.9.4.5 1.1.9 2.3 1.3 3.5 0 .1-.4.6-.5.6-.3 0-.8-.4-.8-.5.5-1.2-.3-2-.8-2.9zm-.2 3.9c-.1.4-.3.7-.5 1.1 0 .1-.2.1-.3.1 0-.2-.1-.4-.1-.5.1-.4.2-.7.3-1.1.3.1.6.3.6.4zM212 77.3c-.1-.2.3-.5.4-.8.3.6.6 1.1 1 1.8-.4.3-.7.8-.9.7-1-.2-.3-1.1-.5-1.7zm-.6.7c-.3.2-.6.5-.7.5-.3-.2-.5-.5-.7-.7.2-.2.5-.6.6-.5.3 0 .5.4.8.7zm2 16.3c-.8.2-1.3-.3-1.7-1-.6-1.3-.2-2.2 1.2-2.6.1.2.1.4.2.6.1.4.3.8.4 1.1.4-.2.7-.5 1.3-.8.2.2.6.5.9.8.1.2.2.7.1.7-.8.6-1.6 1-2.4 1.2zm5.3-3.8c-.1.3-.3.6-.5.8-.2-.2-.5-.4-.7-.7-.2-.4-.5-.9-.5-1.4 0-.5.3-1 .4-1.5.4.3.9.5 1.2.9.2.3.1.8.1.8 0 .7.1.9 0 1.1zm3.3-6.3c-.2.2-1 0-1.6 0v-.4c-.3.2-.5.4-.9.6-.3-.2-.5-.5-.7-.7-.1.1-.2.1-.3.2.2.5.5.9.7 1.4.2.5.3 1.1.4 1.7-.5.1-1.1.4-1.6.2-1.9-.5-3.1-3.7-2-5.4.1-.2.5-.4.7-.4.5.2.9.5 1.3.9.2.2.2.6.3.9.9-.8 1.8-1.4 2.9-.9.7.6 1.4 1.1.8 1.9zm2.8-9.7c-.2.5-.5 1-.8 1.3-.1.1-.7-.3-1.1-.4-.2-.1-.4-.2-.8-.1.2.3.3.7.6.7 1.1.2 1.3 1.1 1.2 1.9-.1 1-.4 2-.6 3.1l-.6.3c-.1-.3-.2-.5-.3-.8-.2-1.2-.3-2.3-.6-3.5-.5-2.1.3-3.9.6-5.9.2-.9-.4-1.4-1.4-1.6 0 .8.9 1.6-.3 2.4-.1-.5-.2-.9-.3-1.2-.1-.4-.3-.7-.4-1.1-.1-.4-.2-.9-.3-1.3.4 0 .8-.1 1.3-.2-.3-.3-.6-.6-.8-1-.2-.5-.3-1.1-.4-1.6.5.1.9.2 1.4.3.5 1 1.1 2 1.5 2.8.6-.1 1-.2 1.4-.3-.1.5-.3.9-.5 1.6.2.2.7.7.9 1.2.3.7.3 1.5.3 2.2.1.5.2.9 0 1.2zm2.4-8.8c-.2-.2-.5-.4-.5-.7 0-.2.3-.5.4-.7.2.2.5.4.8.8-.3.3-.5.5-.7.6zm2.6-7.1c-.1.1-.5.1-.8.1 0-.2 0-.5.1-.7l.3-1.8c.1-.4.3-.8.5-1.2.4.4.9.7 1.3 1.1-.5.9-.9 1.7-1.4 2.5zm-3.8-10l-.3-.9c.3-.1.7-.3 1-.3.7.2 1.5.6 2.1 1 .2.1.1.9-.1 1.2-.4.6-.6 1 .4 1.2.9.2 1.9 2.1 1.7 3.3-.5-.5-1-.8-1.4-1.2-.7-.7-1.1-1.7-2.4-1-.2.1-.8-.3-1.2-.6-.8-.6-1.1-1.4-1.1-2.6.7.5 1.2.9 1.6 1.3l.3-.2c-.1-.4-.4-.8-.6-1.2zm-1.4 3.8c.1-.2.3-.4.5-.6.2.2.3.4.5.5.3.4.7.7 1 1.1.2-.3.5-.6.7-.9.1-.1.4-.3.5-.3.2.1.5.4.5.5 0 .3-.1.7-.3.9-.3.3-.7.5-1 .7.5.9 2.1.9 1.5 2.2-.2.4-.9.5-1.3.7.2.3.5.8.9 1.3-1.2.4-2-.3-2.6-.9-.1-.1.5-1 .7-1.4-.6-1.1-1.1-2.1-1.6-3.2-.1 0-.1-.3 0-.6zm-18.4-10.6c.4 0 .9.1 1.1.3 1 1.7 2.7 1 4.1 1.4.4.1.8.1 1.1.3 1.4.7 2.3 2 3.3 3.1.3.4.8.6 1.2.9.1-.1.2-.3.3-.4l-1.5-1.2c-.2-.2-.5-.3-.5-.5-.1-.4-.2-.9-.2-1.4.4.1 1 .2 1.3.4.7.6 1.2 1.4 1.7 2 1.5-.2 2.9-.4 4.3-.6 0 .1.1.2.1.3-.3.2-.5.4-.7.5.2 1.4 2.2 2.2 1.7 3.9-.1.1-.3.2-.4.3-.4-.4-1.1-.8-1.1-1.3-.2-1.6-1.4-1.7-2.5-2 .1 1.2.1 1.2-1.9.4-.1 1.3 1.7 2.3.8 3.5.9.4 1.8.8 2.6 1.1.1-.1.2-.1.3-.2l-.6-1.2c-.1-.3 0-.6 0-.9.3.1.6.1.8.3.6.6 1.2 1.3 1.7 2 .3.6.4 1.3.7 2.1-.7-.2-1-.2-1.3-.3.2 1.1.4 2.2.7 3.6.1-.9.2-1.6.3-2.5 1.4 1.2 1.4 2.3.5 3.3-.4.4-.6 1.1-1 1.7.2.3.5.6.8.9 0 0 .1 0 .2-.1.2-.3.5-.7.7-1 .2.5.7 1.1.6 1.4-.6.9-.3 1.5.2 2.2.2.2 0 .6 0 1.1-.7-.5-1.2-.8-2-1.3.1 1.4 2.4 1.4 1.5 3-1.2-.4-2.4-.8-3.6-1.3-.6-1.1-.5-2.2-.2-3.3.1-.4.7-.6 1.2-1 0 .1 0-.2-.1-.3-.9-.5-1.4-1-.9-2.1.1-.1-.2-.5-.4-.6-.4-.2-.9-.2-1.4-.4v2.5c0 .3-.3.6-.5.9-.2-.3-.6-.5-.7-.8-.5-2.1-.9-4.3-1.4-6.4 0-.2-.1-.4-.2-.5-1.6-1.1-1.1-3.1-2-4.4-.7.7-.7.8-.2 1.8.7 1.5 1 2.9.4 4.5-.2 0-.5-.1-1-.2v4.1c0 .3-.1.6-.3.8-.7.8-1.3 1.6-1.1 2.7 0 .2-.3.4-.4.7-.2-.2-.5-.3-.7-.5-.2-.2-.3-.5-.3-.8-.2-1.5-.3-3-.5-4.4-.1-.4-.4-.8-.4-1.2-.1-.8 0-1.5 0-2.3.5.2 1.1.5 1.4.6-.6-1.2-1.3-2.5-2-3.9-.8-1.6-.7-1.7 1-1.9-1-1.3-1.9-2.6-2.9-3.9h-.2c.2.8.4 1.7.6 2.6-1.5-.6-4.1-4.5-4.1-6 .6.5 1.2 1 1.8 1.4.1 0 .1-.1.2-.1-.1-.3-.2-.5-.4-.8-.1-.3-.2-.5-.4-.8.1.4.5.2.8.2zM207 31c0 .4-.1.8-.2 1.2-.4-.1-.8-.2-1.2-.4-1.1-.7-1.3-1-.9-1.8l-1.8-1.8c2.1.1 4 1.4 4.1 2.8zm-5.6 13.1c.1.2-.2.6-.3.9-.3-.1-.7-.1-.8-.3-1-1.5-1.9-3.1-2.8-4.7-.1-.2.1-.6.1-.9.3.1.7.2.8.4.3.4.6.8.9 1.3.2-.5.4-.8.6-1.1 0 0 .6.1.6.2 0 .5 0 1.1-.1 1.7.3.8.7 1.7 1 2.5zm-1.7.9c1.3 2 2.6 4 3.8 6 .2.3.2.8.2 1.2-2.6-2-5-4.1-5-7.6.4.1.9.2 1 .4zm-.3-9c-.2.3-1.1.4-1.5.3-2.7-.9-5.4-1.9-8.2-2.8-.5-.2-1-.2-1.5-.4-.3-.1-.8-.3-.9-.5-.3-1.2-1.2-1.8-2-2.6-.9-.9-.2-2.7 1-3 .2-.1.6-.2.7-.4.8-1.3 2.1-1.4 3.3-1.1 2.2.6 4.2 1.4 6.4 2.1.9.3 1.8.7 2.7.9 1.2.2 1.9.9 2.2 2 .1.6.6 1.1.8 1.6.3.8.7 1.7.7 2.5 0 .3-1.1.6-1.7.9-.9-.4-1.5-.3-2 .5zm-14.6-1c.4.5.8 1.1 1.2 1.7.1.1-.1.5-.3.6-.1.1-.5 0-.6-.2-.4-.5-.7-1.1-1-1.7.3-.1.5-.3.7-.4zm-1.2-5.8c-.3-.2-.6-.4-1.1-.7.6-.7 1-1.3 1.5-1.8.2.2.7.5.7.6-.4.7-.7 1.3-1.1 1.9zm-1.5-6c.7-1.4 2-2.1 3.6-2 1.8.1 3.6.2 5.4.5.7.1 1.4.6 2 .9.2.1.5.3.7.4 1.6.3 3.1.5 4.7.9 1.5.3 2.9.8 3.9 2 .1.2.1.5.2.7-.3 0-.5.2-.8.1-.4-.1-.9-.3-1.1-.6-1.2-1.3-2.7-1.4-4.4-1.3-.5 0-1.1-.2-1.6-.4-2.3-.6-4.5-1.5-7-.8-.9.2-2-.4-2.9-.6-.4.6-.6 1.2-1 1.6-.3.2-1.1.2-1.5 0-.2-.2-.4-1.1-.2-1.4zm-29.6 5c.1-.2.7-.3 1-.2.3.1.6.6.5.9-.3 1.8.5 3.2 1.7 4.5.3.3.4.7.6 1l-.3.3c-.3-.1-.7-.1-.8-.3-.9-1.4-2.3-2.5-2.2-4.3 0-.2-.3-.4-.4-.7-.1-.4-.2-.9-.1-1.2zm5 10.8c.3.1.7 0 1.1.1.4.1 1 .2 1.1.5.1.3-.2.8-.3 1.2-.4-.1-.7-.3-1.2-.5.1.4.3.9.3 1.2 0 .8-.2 1.5-.4 2.3-.4-.1-1.1-.1-1.3-.3-1-1.4-1.9-3-2.8-4.5-.1-.2-.1-.6-.2-.9l.3-.3c.7.7 1.3 1.4 2 2.1-.2-.7-.3-1.3-.5-1.8-.1-.3-.4-.5-.7-.7-.8-.6-1.3-1.3-1.1-2.6.7.5 1.2.8 1.7 1.2.7-.7 1.3-.6 2 .1.2.3.8.2 1.2.4.5.3.9.7 1.4 1-.4.2-.7.4-1.1.5-.5.1-1 0-1.6 0-.2 0-.4.3-.6.4.3.2.5.5.7.6zm-.8 9.9c0 .1-.5.3-.6.3-.5-.5-1-1.1-1.7-1.9-2.1-.5-2.6-2.2-.9-4.2.4.5.7.9 1.1 1.4.1-.1.2-.1.3-.2-.4-1.1-.8-2.2-1.3-3.4.2-.1.3-.2.5-.3.7.9 1.3 1.9 2 2.8.2.2.3.5.5.7 1.4 1.6 1.3 1.9-.1 2.8.1.8.2 1.4.2 2zm.7 5.1c.4.3.9.7 1.3 1.1.7 1 1.4 2.1 2.2 3.4-1.7.3-1.8-1-2.4-1.5-.7-.7-1.2-1.6-1.8-2.5-.1-.2 0-.5 0-.7.3 0 .5 0 .7.2zm-7.1 9.4c.2.2.1.7.1 1.1-.4-.1-.7-.2-1.1-.4-.2-.1-.3-.4-.4-.6-1.1-1.4-1.1-1.3.5-1.8.1 0 .1-.2.3-.4-.8-.5-2-.7-1.6-2 .1-.3.8-.3 1.4-.6v-1.6c0-.2.3-.4.5-.5 0 0 .4.2.4.4-.2 1.6 1.3 2.3 1.9 3.4.4.8.3 2.5-.5 2.9-.2.1-.7-.1-.8-.3-.2-.2-.2-.6-.3-1.1-.6.5-1.1.8-.4 1.5zm2.1-4.8l-2.7-3.9c-.2-.3-.2-.8-.2-1.1 0-.2.2-.5.4-.5s.4.1.6.3c.3.3.5.7.8 1.2.4-1 .4-1.6-.4-2-.3-.1-.5-.4-.6-.7-.1-.2.1-.6.2-.8.2.1.6.1.7.2.8 1.1 1.5 2.3 2.3 3.4.3.4.6.7.9 1.1.4.5.5.9-.2 1.3-.2.1-.3.7-.4 1-.1.3-.2.7-.3 1-.5-.3-.9-.3-1.1-.5zm0-6.8c-.3-.4-.7-.7-.9-1.1-.3-.6-.5-1.2-.6-1.8 0-.2.2-.6.5-.7.1-.1.5.1.7.3l3 4.5c.2.4.2.9.3 1.4-.2.1-.3.1-.5.2-.9-.9-1.7-1.9-2.5-2.8zm.6-3c.1-.2.7-.5.8-.4.7.3 1.7 2.6 1.6 3.5-.6-.1-2.6-2.7-2.4-3.1zm-.5-14c.6.4 1 1 .6 1.7-.2.1-.3.2-.5.2-.3-.6-.7-1.1-1-1.7.4-.1.8-.4.9-.2zm-.4-3.1c.5.7 1.5 1.2 1 2.6-.5-.4-1-.8-1.3-1.3-.2-.3.2-.9.3-1.3zm-.8-1.7c.4.2.6.6.8 1 .1.2 0 .5-.1.7-.3-.1-.8-.1-1-.4-.3-.3-.5-.7-.7-1.1.4 0 .8-.3 1-.2zm-1.8.5c.6 1 1.1 1.8 1.6 2.6.1.1 0 .5-.1.5-.3.1-.6.2-.9.1-.8-.2-1.3-2.1-.6-3.2zm0 3.7c.4.3.7.7 1 1.1.1.1-.2.4-.5.8-.4-.6-.7-1-1-1.4 0-.1.5-.5.5-.5zm-2.1 2.8c0-.4.4-.8.5-1.3.4.4.9.8 1.2 1.3.2.3.1.8.1 1.3h1.8c.2 0 .4-.2.5-.2.3-.1.7-.1 1-.2 0 .4.1 1.1-.1 1.2-.9.4-1.1.9-.6 1.8.3.7-.1 1.3-.8 1.3-.5 0-1.1-.4-1.3-.8-.4-.6-.5-1.3-.8-2-.1-.2-.3-.5-.4-.5-1.3 0-1.2-1-1.1-1.9zm2.4 6.1c.1.1-.3.4-.5.8-.4-.4-.7-.7-1-.9.2-.2.5-.7.7-.6.3.1.6.4.8.7zm-3-12.7c.2 2-.3 3.1-1.4 3.6-.5-1.4.4-2.4 1.4-3.6zm-.1 7.8l-.3.3c-.4-.5-.8-1.1-1.1-1.6-.1-.1.2-.4.3-.7.2.2.6.3.7.5.2.4.3 1 .4 1.5zm-2 .3c.4.3.9.6 1 .9.1.9.4 1.6 1.3 2 .1.1.2.3.2.5.1 1.2.9 1.8 1.7 2.6.5.5.9 1.1 1.4 1.7-.3.4-.4.7-.6.8-.2.1-.6-.1-.7-.3-1.1-1.5-2.4-3-3.3-4.6-.4-.7-.8-1.4-1.3-2.1-.2-.3-.3-.9-.3-1.3 0 0 .5-.3.6-.2zm-1.1 2.6c.3.1.6.2.8.4.9 1.3 1.9 2.6 2.8 3.9.6.9 1.3 1.9 1.8 2.9.2.3.2.7.1 1-.1.6-.3 1.3-.4 1.9-.1.2-.2.7-.3.7-.3 0-.6-.1-.8-.3l-3.3-5.4c-.3-.3-.8-.5-.8-.9-.2-1.1-.2-2.3-.2-3.4-.1-.2.2-.5.3-.8zm-1.4 9.3c.8-.3 1.6-.8 2.3-1.6.7 1.4 2.7 1.9 2.1 3.4.6.6 1.2 1 1.2 1.4 0 .5-.5 1-.8 1.6-.6-.4-1.2-.8-1.7-1.3-.5-.6-.8-1.3-1.2-1.9-.1.1-.3.2-.4.3.2.4.5.8.7 1.3-.3.7-1.5 1.2-.5 2.3-1 .4-1.5 0-1.7-.7-.2-.8 0-1.7-1-2.2-.7-.3.3-2.3 1-2.6zm4.3 5.8c-.1.1-.1.3-.2.4-.5-.2-1-.4-1.5-.7-.1-.1 0-.5.1-.7.1-.1.5-.1.6 0 .4.3.7.7 1 1zm-6.7-1.2c.1-.3.6-.5.9-.8.2.3.4.6.7 1-.5 1-.9 2-1.3 3-.1.1-.5.2-.6.1-.2-.2-.3-.5-.3-.7.1-.9.3-1.8.6-2.6zm-1.1 8.8l1.5 1.5s-.4.4-.6.7c-.5-.5-.9-.9-1.5-1.4.3-.5.5-.6.6-.8zm1.8 14.5c-.4-.5-.8-.9-1.2-1.4-.3-.3-.7-.5-.8-.9-.1-.5.1-1 .2-1.6.4.2.8.4 1.1.7.2.2.3.6.5.8.5.7 1 1.5 2.2 1.2.8-.2 1.4.1 1.5 1.2-1 .2-1.5.5-.4 1.4.4.3.6 1.1.9 1.6.4-.5.7-.7.9-1 .3.3.6.7.8 1 .3.5.6 1.1 1 1.5.3.4.7.7 1 1.1-.1.1-.1.2-.2.3-.3-.1-.5-.2-.8-.2-.8-.3-1.6-.5-2.4-.8-.3-.1-.6-.2-.8-.4-1.2-1.5-2.3-3-3.5-4.5zm4.4-1.4c.3.2.6.4.9.7.3.4.5.9.8 1.3-.1.3-.2.5-.4.6-.2.1-.5 0-.6-.1-.4-.3-.8-.7-.9-1.2-.2-.3.1-.8.2-1.3zM158 204.6c-1.7.3-3.5.7-5.2.8-8 .2-15.9.2-23.9.3h-.6c-2.7-.1-2.6-.2-2.8-2.8-1-13.2-2-26.5-3-39.7-.2-2.8-.5-5.7-1-8.4-.2-1.3-1-2.5-1.7-4.1.7-.7 1.7-1.6 2.7-2.6 6.3-5.7 12.6-11.2 18.8-17 4.8-4.5 9.2-9.4 13.8-14.2.4-.4.8-.8.9-1.2.1-.5-.1-1.1-.2-1.7-.5.1-1.1.2-1.6.4-.3.1-.5.5-.7.8-4.7 6.9-10.5 12.8-16.8 18.2-15.6 13.2-31.3 26.2-46.9 39.3-3.8 3.2-7.3 6.6-10.9 9.9-.4.4-.8.8-1.1 1.3-.2.4-.3 1-.4 1.5.6-.1 1.4.1 1.8-.3 1.3-1.1 2.6-2.4 3.8-3.6 1.8-1.8 3.6-3.6 5.5-5.3l23.7-19.5c.3-.2.6-.4 1.3-.9-.6 2.5-1 4.7-1.6 6.8-2.6 9.4-5.2 18.9-7.9 28.3-.7 2.3-1.8 4.4-2.8 6.6-.5 1.1-1.3 1.6-2.4 1.7-4.2.3-8.4.7-12.7.9-2.7.1-5.4 0-8 .1-1.1 0-1.7-.4-2-1.3-.9-2.9-1.8-5.7-2.5-8.6-.5-2-.8-4-1.3-6-.3-1.1.1-2 .9-2.8 7.5-7.2 15-14.3 22.4-21.5 9.1-8.8 19.3-16.5 28.9-24.6 7.9-6.6 15.6-13.4 22.7-20.8 1.3-1.3 2.3-3 3.3-4.5.3-.5.3-1.1.5-1.7-1.4-.3-3 .5-3.4 1.8-.9 2.9-3 5-5 7.1-6.4 6.6-13.7 12.2-20.8 18.1-6.9 5.8-13.9 11.5-20.8 17.4-3.9 3.4-7.4 7.2-11.2 10.7-5.5 5.2-11.1 10.2-16.7 15.3-.5.4-1.1.8-1.8 1.3-.6-2.2-1.2-4.2-1.7-6.2-1.4-5.7-2.8-11.3-4.1-17-.8-3.4.4-6 3.5-7.7 1.4-.8 2.6-1.8 3.9-2.8.5-.4.8-1 1-1.6.1-.4-.2-.9-.4-1.3-.4.1-.8.2-1.1.4-2.5 2-4.9 4-7.3 6-1.1.9-2.3 1.5-3.8 1.3-.5-.1-1 .1-1.4.2-3.2.7-3.6 1.4-3.4 4.7.1 2.4-.2 4.8-.5 7.2-1.3 9.4-1.6 18.9-1.3 28.3 0 1.6-.1 3.3-.1 4.9 0 .9-.6 1.2-1.4 1.3-2.5.2-5 .6-7.5.8-6.4.4-12.8.7-19.3 1.1-1.8.1-2.3-.2-2.7-2-.4-2-.8-4.1-.8-6.2 0-10.2.2-20.5.3-30.7.1-5.1.1-10.2.2-15.2.3-12.5.5-24.9.8-37.4.1-4.1.3-8.2.5-12.3.1-1.8.1-1.9 1.9-2 4-.2 8.1-.4 12.1-.5 8.1-.2 16.2-.2 24.2-.4 1.3 0 2.2.5 2.5 1.6.7 2.7 1.4 5.5 1.8 8.3.2 1.1-.5 2.2-1.7 2.7-.3.1-.5.4-.7.6-2.2 4.5-5.8 7.9-9.1 11.5-7.7 8.4-15.4 16.9-23 25.5-2.3 2.6-4.4 5.4-6.5 8.1-.3.4-.6.8-.9 1.3.8.9 1.6.7 2.1 0 7.4-9.8 15.7-18.8 23.8-27.9 4.6-5.2 9.4-10.3 14.1-15.4.7-.7 1.3-1.5 2.1-2.5.4.7 1 1.2 1.1 1.9 2.6 12.1 5.2 24.2 7.7 36.3.2 1.1 0 2.3 0 3.5-.1 1.5 1.1 3.3 2.6 3.5 1.8.3 3.4 0 4.8-1.3 11.3-10.5 22.5-21 33.8-31.4 5.6-5.1 11.4-10 17.2-15 1.6-1.4 3.4-2.6 5-3.9.5-.5 1.6-1.1.9-1.9-.8-.9-1.6-.1-2.2.4-5.8 5.1-11.7 10-17.4 15.2-10.5 9.5-20.8 19.2-31.2 28.8-1.4 1.3-3 2.5-4.5 3.7-.1-.1-.2-.2-.3-.2.2-.7.4-1.3.7-2 5.3-13.7 10.7-27.4 16.1-41.2.7-1.8 1.3-3.6 2-5.4.3-.8.8-1.6 1.2-2.3 1-1.6 2.3-2.5 4.3-2.3 13.4.9 26.9 1.7 40.3 2.5 1.1.1 2.1.3 3.2.4 2 .3 2.5.6 2.8 2.7.4 3.8.9 7.6.9 11.3 0 10.2-.2 20.5-.3 30.7-.1 7.9-.5 15.8-.3 23.6.2 7.9 1.1 15.7 1.7 23.6.4 5 .9 9.9 1.5 14.9.4 1.1-.2 1.5-1 1.7zm6.2-116.3c-2.3-.3-2.9-1-2.4-2.4 2 .4 2.5.9 2.4 2.4zm2.1.5c-.3-.1-.6-.4-.9-.7.3-.3.5-.8.8-.8.4 0 .7.4 1.3.9-.5.3-.9.6-1.2.6zm8.1 1.8c.8.4 1.4.7 2.1 1-1.4.9-2 .6-2.1-1zm17.1 5.9c.6-.2.9-.3 1.3-.4-.1-.1-.2-.2-.2-.4-.2 0-.5 0-.6-.1-.2-.2-.4-.5-.6-.8.6-.3 1.2-.7 1.8-1 .2.4.7.9.7 1.3-.1 1.1-1.1 1.9-2.4 1.4zm2.2-3.7c-.3-.5-.5-.9-.8-1.4l-1 .5c.3.1.7.2.8.4.1.4.1.8.1 1.2-.4 0-.8.1-1 0-.6-.3-1.1-.8-1.6-1.2-.2-.1-.4-.3-.8-.7 0 .5 0 .8.1 1.1.1.2.4.3.4.6.1.6.2 1.1.2 1.7 0 .1-.4.2-.7.3l-.6-1.5c-.8-2.1-.7-4.4-2.1-6.3l-.1-.1c.1-.9-.1-1.7-.5-2.4-.6.2-1.2.3-1.9.4-.1 0-.3 0-.4.1.1.1.2.2.2.3.3.4.8.8.9 1.2.3 1.1.4 2.2 1.8 2.6.2.1.4.6.3.9-.1.2-.5.4-.8.5-.7.1-1.6.3-2.2.1-.6-.2-1-.9-1.6-1.4.6-.5 1-.9 1.4-1.2-.2-1.3-.8-2.2-1.7-2.8-.8.1-1.6.2-2.3.3.8 1 1.7 2.1 1.3 3.6 0 .1.1.2.2.3 1.2 1.2 1.3 2.4 0 3.9-1.1-.7-1.1-2.1-1.7-3.2-1 .6-1.8.8-2-.8-.1-.5-.7-1-1.1-1.6-.2.2-.4.3-.6.4-.8.5-1.3.3-1.6-.6-.1-.5-.3-1-.4-1.4-.5.1-1 .1-1.6-.1-.3-.1-.5-.2-.8-.3 0 .8.2 1.5 1 2.1 0 0-.2.7-.3.7-.4 0-1 0-1.2-.2-.4-.6-.8-1.3-1-2-.2-.9-.5-.9-1.3-.4.3.9.6 1.7.9 2.6.1.2-.1.5-.1.7-.4-.1-1.1-.2-1.1-.3-.1-1.1-1.4-1.8-.8-3.2.2-.4-.6-1.3-.9-1.9-.1 0-.3 0-.4.1 0 .5.1 1 .1 1.5 0 .3-.2.7-.3 1-.3-.2-.8-.3-.9-.6-.7-1.2-1.4-2.4-2-3.7-.2-.3-.1-.8-.2-1.5-.3.6-.7 1.1-.7 1.5.3 1.4-.4 1.7-1.7 1.7-.4-1.7-2.1-1.7-3.4-1.8-2.5-.2-3.6-2-5-4.1-.2.5-.3.8-.4 1.1v1.1c-.3 0-.7 0-.8-.1-.2-.3-.4-.7-.4-1.1 0-.2.2-.4.3-.8h-2c-.3 1.2 0 1.8 1.2 2.5 1.1.6 2.2 1.1 3.5 1.2.2 0 .5.2.7.4.6 1 2.2.7 2.5 2.1.3-.1.5-.2.8-.2.4-.1.9-.2 1.4-.2.4 0 .9.2 1.2.5.3.4.6 1 .6 1.5 0 .3-.3.7-.5 1.1-.6-.5-1.3-.9-1.9-1.4-.1-.1-.2-.4-.2-.6-.6.3-1.1.6-1.7.7-.7.2-1.3-.1-1.8-.8-.8-1.3-1.3-1.4-2.7-.8-.3.1-.9-.1-1.2-.4-.4-.4-.6-1-1.1-1.6-.2.4-.3.7-.5 1-1.1-.4-1.4-1-1.2-2.2.1-.6-.2-1.3-.4-2-.1-.4-.5-.9-.3-1.2.4-1-.1-1.4-1.1-1.6 1-.6 1.3-1 .2-1.6-.6-.3-1.1-.6-1.6-.9.2.9-.3 1.4-1.1 1.7-.5.2-.9.5-1.3.8-.7.6-1.1 0-1.4-.4-.7-.8-1.3-1.7-2-2.5-.6.3-1 .6-1.4.7-.2 0-.5-.4-.8-.6.2-.2.4-.4.7-.5.3-.1.6-.2 1-.3-.2-.3-.4-.6-.5-.9-.1-.3 0-.8.2-.9.7-.3 1.5-.5 2.3-.8-.7-.2-1.4-.3-2.2-.5.4-.5.7-.7.7-.9.1-.3-.1-.6-.2-.8-.2-.3-.5-.5-.7-.7.2-.2.5-.5.6-.4.5.1 1 .2 1.3.5.4.3.6.9.9 1.3.2.2.5.3.9.2-.3-.3-.8-.6-1-1-.2-.4-.3-1.1-.1-1.3.8-1 .3-1.8-.2-2.6-.2-.4-.3-.9-.6-1.7.8.5 1.3.8 2 1.3 0-1.3-.1-2-1.3-1.9-.8.1-1.1-.8-.7-1.6.4-.8.9-1.5 1.4-2.2.1-.1.5-.2.6-.2.2.2.3.5.3.8 0 .3-.3.7-.4 1 .1.1.3.1.4.2.1-.3.2-.7.3-1 .1-.3.4-.6.5-.9.8.8 1.4-.2 2.1-.1.5.1.9.4 1.3.7.1.1-.1.6-.2 1l-.9-.3c-.2-.1-.4-.3-.7-.4-.6.9 0 1.4.4 1.9.9.9 1 1.7-.1 2.6-.3.2-.6.8-.4 1 .6.8.2 1.5-.3 2.1-.2.2-.3.4-.5.7-.1-.3-.4-.6-.4-.9-.1-.7-.2-1.4-.5-2-.4.9-1 1.8-1.2 2.7-.1.5.6 1.1 1 1.6.7 1 1.5 1.9 2.2 2.8.1-.1.3-.2.4-.4v-3.2c0-.2 0-.4.1-.5 1.3-.8.7-2.3 1.4-3.3.2-.2.3-.4.5-.6.2.2.5.4.6.6.3.9.5 1.8.8 2.6.4-.1.8-.1 1.3-.2-.2.4-.3.9-.5 1.4 1.4.2 1.6.9 1.2 2.2-.4 1.2 1 2.8 2.3 3-.3-.7-1.6-1.1-.8-2 .2-.2 1 .2 1.6.3 0 0 0-.3-.1-.4-1.1-1.1-1.1-1.1 0-2.5.2.1.5.2.7.3.2.1.4.2.7.3-.5-.9-.5-.9-1.5-1.2-.7-.2-1-1-.6-1.6.4-.6.9-1.1.7-1.9-.1-.2.4-.6.7-.9.2.3.6.6.6 1 0 .9.1 1.7 1.6 1.9-.4-.5-.7-.8-.9-1.2-.2-.3-.4-.9-.2-1 .8-.8.1-1.3-.3-2-.3-.4-.7-1-.6-1.4 0-.4.5-.8 1-1.4 0 .1-.1-.1-.1-.3 0-.5.2-1 .3-1.5.4.3 1.1.4 1.2.8.7 1.8 1.8 3.2 3.2 4.5-.6-1-1-2.1-1.7-3.1-.6-.9-1.4-1.7-2-2.6-.2-.3-.4-.8-.5-1.2 0-.2.2-.6.4-.6.2-.1.5.1.7.2.2.2.4.4.5.6 1.1 1.5 2.1 3.1 3.1 4.6.6.8 1.3 1.5 1.7 2.4.5.9-.3.9-.9 1 .6 1.1 1.2 2.2 1.7 3.3.1.2.2.5.4.6l3.3.9.2-.3c-.4-.3-.9-.9-1.3-1-.8-.1-1.1-.7-1.6-1-1.1-.6-.8-1.6-1-2.4-.1-.2.5-.7.8-.8.5-.1 1 0 1.7.1-.1-1-.1-1.9-.2-3-1.4.3-1.9-.5-2-1.8 0-.4-.4-.8-.8-1.1-.1.4-.1.8-.2 1.1h-.3v-1.9c.4.1.7.2 1.1.3-.2-.4-.4-.8-.3-1.2 0-.1 0-.3.1-.4-.5-.4-1.1-.8-1.6-1.2-.1 0-.2-.1-.2 0-1.2.7-2-.5-3-.7-.3 0-.7-.6-.7-.8.1-.8.4-1.6.6-2.5.1-.3.2-.5.2-.8 0-1.7.1-2 1.7-2.4-1-1.1-.4-2.3-.1-3.4.3-1.2.7-2.3 1.1-3.4.1-.1.8-.2.9-.1.6.7 1 1.4 1.5 2.1.2.2.6.3.9.4 0-.3.1-.7 0-1-.2-.6-.5-1.3-.6-2-.5-.2-.9-.5-1.4-.7-.6-.3-.9-.7-.8-1.4.1-.3-.2-.7-.3-1-.6-1.1-1.7-2-.9-3.5-1.9 0-2.1-.1-2.5-2.1-.1-.3.4-.8.7-1.3-.2-.1-.6-.3-1-.6-.1.3-.3.7-.4 1l-.3.9s-.4 0-.4-.1c-.1-.4-.1-.7-.1-1.1 0-.1.1-.3.2-.5-.2-.1-.4-.2-.5-.3-.2-.3-.7-.6-.6-.8.1-.4.4-.8.8-.9 1.2-.5 2.2-.1 2.8 1.1.3.5.4 1.1 1.1.9l-.3-1.2c.4.1.8.1 1.2.2.7.3 1.2.8 1.3 1.7.1.5.5 1 .8 1.4.6 1.1 1.3 2.1 2 3.2.3.4.7.6 1.2.8-1-1.9-2.5-3.5-3-5.6.2-.1.3-.2.5-.3.8 1.2 1.6 2.3 2.4 3.5l.4-.3c-.4-.8-.7-1.5-1.1-2.3l.2-.2c.5.3 1 .7 1.5 1 .1-.1.2-.1.3-.2-.1-.4-.3-.8-.4-1.2 0-.1-.2-.1-.3-.2-.2-.5-.5-1-.7-1.5.5.3 1.1.5 1.5.8.3.2.5.6.5.9-.1 1.3.9 1.9 1.9 2.2.9.3 1.6 1.4 2.9 1 .3-.1.8.8 1.3 1.3h.1c0-1.2-1.7-3-2.8-3.2-.8-.1-1.5-.5-2.2-.8-.3-.2-.3-.7-.6-1.2 4.1.9 6.2 2.5 7.7 5.7.7.1.8-1.5 1.7-.6l1.4 1.4.3-.2c-.1-.3-.2-.5-.2-.8-.1-.4-.1-.8-.2-1.1.4.2.8.3 1.1.5.5.5.8 1.1 1.2 1.6.2.2.5.4.6.5.3-.4.5-.8.8-1.1.2.3.4.7.7 1 .8 1.2 1.7 2.4 2.4 3.7.6 1 .9 2.1 1.5 3.3.7-.2 1.1.2 1.3.9.2-.1.3-.2.5-.2-.3-.9-.9-1.7-1.4-2.6-.4-.8-1-1.6-1.4-2.5-.1-.2.2-.6.3-.9.3.1.6.2.9.4.2.1.2.4.3.6 1.1 1.7 2.2 3.3 3.4 5 .2-1.1-.5-1.9-1.1-2.7-.5-.7-1.1-1.4-1.6-2.1-.4-.7-.8-1.5-1.1-2.3.2 0 .3-.1.3-.1.8 1 1.9 1.9 2.4 3s1.3 1.7 1.9 2.5c.4.5.7 1.2 1.1 1.8.1.2.2.6.3.6.4 0 .7.2.8.5.3.1.5.3.8.5 1.2 1.1 1.9 2.5 2.4 4 0 .1 0 .1.1.2h.8c-1.3-1.9-2.4-3.9-3.8-5.5-.8-.8-1.3-1.7-1.9-2.7-.2-.3-.4-.5-.7-.6-.7-.5-1.2-.9-1.3-1.9-.1-.7-1-1.3-1.5-2-.2-.2-.2-.6-.3-.9.3.1.6.1.8.3.4.2.6.6 1 .8.3.2.8.2 1.2.3.6.1 1.2.2 1.7.4.3.1.4.5.6.8-.4.1-.7.2-1.1.2-.4-.1-.8-.3-1.3-.5.2.4.4.8.6 1.3.1.2.1.4.2.6l.3-.3c.4.4 1 .6 1.2 1.1.6 1.1.9 2.3 2.1 3 .3.2.5.5 1 1 0-1.4-.5-2.2-1.4-2.9-1.1-.8-1.2-2.1-.2-3.4.7 1.1 1.5 2.2 2.2 3.3.2.4.2.8.4 1.2.2.5.5 1 .8 1.4-.6.1-1.2.5-.8 1 1.1 1.5.5 3.2.8 4.7.1.6.3 1.1.6 1.6.1.1.5.1.7.2 0-.2 0-.5-.2-.7-.5-.4-.6-.9 0-1.3.2-.1.8.3 1.1.6.8 1 1.6 2 2.6 3.2.5-1.3 1-1.9 2.2-1.9.3 0 .7-.7.9-1-.6-.9-1.2-1.6-1.7-2.3-.1.4-.1 1-.3 1.8-.4-.4-.6-.5-.8-.7-.4-.5-.8-1.1-1.1-1.7-.2-.4-.5-1-.4-1.2.8-1.2-.2-1.9-.5-2.9 0-.1-.2-.2-.2-.3.1-.6.1-1.6.3-1.7.6-.2 1.1.2 1.4 1 .5 1.2.8 2.6 2 3.5.6.4.6 1.5 1 2.2.7 1.1 1.5 2.2 2.2 3.2.3.4.5.8.4 1.2v3.7c0 .9.1 1.7 1 2.2.2.1.2.5.3.8.3 2 .5 4 .8 6 0 .2.1.5.1.7-.1.3-.4.5-.6.8-.2-.2-.6-.4-.7-.7-.3-.8-.4-1.7-.6-2.2-.8-.3-1.3-.5-1.8-.6-.1.5-.1 1 .6 1.3.7.4 1.4.8 1.2 1.9-.1.7.5 1.5.7 2.2.2 1 .4 2-.8 2.6-.4.2-.9 3.1-.8 3.5l.3 1.2c-.5 0-1 .1-1.4.1h-.4c1 1.3.8 2.8.6 4.2-.1.7-.7.9-1.1.3-.4-.6-.6-1.3-.7-1.9-.1-.6-.1-1.3-.1-2.1-1.1.2-2.1.3-2.8-.3-.2.1-.4.2-.6.4.1.5.3.9.4 1.4 0 .1-.5.3-.5.3-.4-.4-.8-.7-1-1.2-.2.1-.4.1-.6.2.6.9 1.3 1.7 2.2 2.5.8.8 1.2 2.2 1.7 3.3.1 0 .2-.1.4-.1-.3-.8-.6-1.5-.8-2.3-.3-.8-.7-1.6-.8-2.4 0-.3.5-.9.9-1.1.3-.1 1 .1 1.1.3.2.3.1.9.1 1.3 0 .3-.2.6 0 .9.5.9 1.1 1.8 1.6 2.7.1.2.2.7.1.8-.9.7-.5 1.7-.7 2.6 0 .2-.2.5-.4.6-1.2.9-1.3 1-.4 2.4.1.2.2.4.3.7.4-1 .8-1.8 1.1-2.7 1.2 1 1.3 2 .5 3.4.4-.2.5-.3.7-.4 1-.9 1.3-.9 1.7.4.3.7.7 1.3 1 2 .1.3-.1.7-.2 1.1-.4-.2-.8-.3-1.1-.6-.5-.5-.8-1.1-1.3-1.9-.4 1.1-1 1.8.1 2.5.1.1.1.5.1.7-.3 0-.7.1-.8-.1-.7-.9-1.4-1.7-2.7-1.8-.1 0-.3-.5-.4-.8-.1-.4-.3-.9-.6-1.3.1 1 .1 2 .2 3.3-.6-.4-.8-.6-1.2-.8-.3.9-.3 1.5.9 1.5.3 0 .6.4.9.6-.2.3-.4.8-.7.9-1.3.5-2 .1-2.4-1.3-.1-.3-.2-.7-.3-1 0 .3.1.7.1.9-.1.5-.4.9-.6 1.3-.4-.4-.9-.7-1.2-1.2-.3-.5-.5-1.1-.5-1.7 0-.4.4-.8.7-1.2.3.3.6.5.9.8.3.3.5.7.7 1.1-.2-.8-.4-1.7-.7-2.6-.3.1-.6.2-.9.2-.3 0-.8-.2-.9-.4-.4-1-.6-2-.9-3-.1-.4-.3-.7-.3-.9-.6.6-1.2 1.2-1.8 1.7 1.6.1 1.4 1.6 2.1 2.6v.1c-.4 1.1-.7 2.1-1.1 3.2-.2 0-.3.1-.5.1-.3-.9-.7-1.8-1-2.7-.1-.2-.1-.5-.3-.5-.2 0-.4.1-.6.2-.8.3-1 .7-1.3 1zm16.7 7.2c-.3.2-.7.5-1.1.6-.6.2-1.2.2-1.8.3-.1-.1-.2-.3-.3-.4.5-.4 1.1-1 1.7-1.2.3-.2.9 0 1.3.1.1 0 .3.6.2.6zm-4-3.1c-1.4-1.7-1.4-1.7-1.2-3 1 .1 1.9 2 1.2 3zm-3.9 2.4c-.2.2-.3.4-.6.8-.4-.3-.6-.5-.9-.7.2-.2.5-.6.7-.6.3 0 .5.3.8.5zm-3.5-3.5c.1.1-.2.4-.4.9-.5-.7-.9-1.1-1.1-1.6-.1-.2.3-.5.5-.8.4.6.7 1 1 1.5zm-3 2.2c-.4-.5-.9-.9-1.2-1.4-.2-.3 0-.7 0-1.1.3 0 .7-.1 1 0 .6.3 1.2.7 1.7 1-.3.4-.7.9-1.1 1.3-.2 0-.4.2-.4.2zm93.3 133.9c-10.5-.8-21-1.7-31.4-2.6-3.2-.3-6.3-.9-9.3-2.3-1.4-.6-2.4-1.6-3.3-2.8-4.8-6.4-9.5-12.7-14.6-18.9-5.2-6.3-10.6-12.4-15.9-18.6-.5-.6-.9-1.3-1.3-2-1-1.4-1.9-3-3-4.3-2.1-2.2-4.9-1.1-6.3.5-.5.5-.7 1.7-.5 2.3 1.4 3.1.8 6.2.5 9.3-.9 9-1.7 18-2.6 27-.2 1.9-.6 3.7-1.1 5.5-.5 1.7-1.3 2-3.1 2-5.2-.2-10.3-.4-15.5-.6-2.4-.1-4.7-.3-7.1-.5-1.1-.1-1.5-.5-1.6-1.6-.2-5.1-.6-10.1-.7-15.2-.2-10.8-.5-21.7-.5-32.5.1-9.8.6-19.7.9-29.5.2-5.4.3-10.9.4-16.3.1-5.2.2-10.4.2-15.6 0-2.6.7-3.5 3.2-4.3 4.7-1.5 9.6-1.6 14.5-1.4 5.4.3 10.8.4 16.2.7 8.4.5 16.8.9 25.2 1.6 7.9.7 15.8 1.9 23.7 2.8 12.4 1.5 23.5 6.2 33.1 14.2 3.4 2.8 6.3 6.1 8 10.3 1.3 3.2 1.3 6.5 1 9.8-.1.8-.6 1.6-1.2 2.2-5 4.5-10.7 7.9-16.5 11.3-4.1 2.4-8.1 5.1-12.1 7.7-.4.2-.7.5-1 .8.1.1.1.2.2.3 10.3-5 19.8-11.3 30-17.3-.1.8-.1 1.4-.3 1.9-.8 2.4-1.7 4.8-2.5 7.3-1.8 5.9-6 9.4-11.6 11.6-5.2 2-10.6 2.9-16 3.3-4 .3-8.1.3-12.1.3-1.9 0-3.9-.5-5.8-.9-1.5-.3-2.5.1-3.4 1.4-1.1 1.8-1.2 2.8 0 4 1.3 1.3 2.6 2.6 4.1 3.6 4.6 3.3 8.8 7.1 12.8 11.1 5.3 5.3 10.7 10.5 15.6 16.1 4.4 5.2 8.1 11 12.1 16.5.2.3.3.7.6 1.3-.8.4-1.4.6-2 .5z"/><path fill="#5B5B5B" d="M195.3 84.8c-1.1-.3-2.2-.5-3.2-.8-.3-.1-.6-.4-.7-.6-.1-.1.2-.6.4-.7.3-.1.7 0 1 .1.2.1.2.3.5.6 0-.6.1-.9 0-1.1-.3-.8-.8-1.7-1-2.5l-1 1-.1.1c.2.1.4.1.6.2-.2.4-.3.7-.5 1-.4.7 0 2.5.7 3 .5.3 1 .7 1.6 1.2.6-.7 1.3-1 2.2-.1-.3-.6-.4-1-.5-1.4zM60.5 215.3v-6.1c0-1.4.7-2.2 1.9-2.2 1.3 0 2 .8 2 2.2v23c0 1.9-1.7 2.8-3.4 1.8-.3-.2-.9-.2-1.3-.1-3 .8-6 .8-9-.1-4.3-1.3-7-4.8-7.3-9-.3-3.9 2.1-7.7 6.2-9.5 3.6-1.7 6.3-1.7 10.9 0zm0 9.5c0-1.1-.1-2.2 0-3.2.1-.9-.3-1.4-.9-2-2.4-2.1-6.1-2.3-9.1-.3-2 1.3-3.3 3-3 5.6.4 2.6 1.9 4.3 4.3 5.1 2.6.8 5.3.7 7.8-.4.4-.2.7-.8.8-1.2.2-1.3.1-2.4.1-3.6z"/><path fill="#A52C41" d="M322.6 221.3c-.2 2.9-1.4 5.2-3.6 6.9-3.2 2.5-6.8 3.9-10.8 2.9-6.2-1.5-9.1-8-6.2-14 2-4.1 5.2-6.6 9.9-6.5 4.4.1 7.7 2.1 9.5 6.1.6 1.5.8 3.1 1.2 4.6zm-12.6 5c2.4-.2 4.7-1.4 6.5-3.4 1.4-1.5 1.4-3.4.6-5.1-.8-1.7-2.5-2.2-4.2-2.1-3.4.1-6.7 3.3-7 6.7-.4 2.5 1 4 4.1 3.9z"/><path fill="#5B5B5B" d="M158.9 229.3c-.6.7-1.1 1.3-1.6 1.9-3.6 3.8-8.9 4.3-12.6 1.2-4-3.4-4.7-9.4-1.6-13.5 2.3-3 5.4-4.5 9-4.8 3.8-.4 7.3.4 10.3 3 1.5 1.3 1.5 2.4 0 3.8-.2.2-.3.7-.3 1 .3 3.3.7 6.7 1.1 10 .2 1.5-.4 2.3-1.6 2.5-1.3.1-2.1-.5-2.3-2-.2-1-.3-1.9-.4-3.1zm-13.8-4.7c0 2.5 1.5 4.8 3.6 5.6 2 .7 4.3-.1 5.9-2.1.3-.3.5-.6.7-1 1.4-2.2 2-4.7 2.3-7.2.1-.9-.2-1.2-1-1.5-3.4-1.1-6.5-.5-9.3 1.7-1.3 1.1-2.2 2.6-2.2 4.5zm-121.5-.1c-.1 2.3 1.4 4.4 3.9 5.3 3.2 1.1 6.4.9 9.5-.8.8-.5 1.7-.6 2.5 0s1 1.4.6 2.3c-.2.5-.6 1-1 1.2-1.6.7-3.1 1.5-4.8 1.7-3.4.5-6.9.3-10-1.6-3.9-2.4-5.8-7.3-4.5-11.8 1.2-4.1 5.1-7 9.6-7.1 2.5 0 4.8.4 6.9 1.9 1.6 1.1 2.5 2.7 2.7 4.7.1 1.6-.6 2.8-2.1 3.4-1.1.4-2.2.8-3.3.9-3.3.6-6.6.6-10-.1zm11.5-4.1c-1.2-2.3-3.1-2.6-5.1-2.7-2.4-.2-4.7 1.1-5.5 2.9 3.5.7 6.9.8 10.6-.2zm84.3-.2c1.6-1.4 3.1-2.9 4.8-3.9 5.3-3.2 11.2-.8 12.3 5.2.4 2.2.5 4.6-.1 6.7-.8 3.1-2.2 5.9-3.5 8.9-.5 1.2-1.8 1.5-2.8.9-1-.6-1.2-1.7-.7-2.9.9-2 1.9-4 2.7-6.1.8-2.2 1-4.5.4-6.8-.7-2.7-2.5-3.8-5.2-3-1.8.5-3.1 1.6-4.2 3.1-2 2.7-3.3 5.8-3.6 9.2-.2 1.7-.8 2.4-2.1 2.4-1.1 0-2-.6-2-1.8v-16.3c0-1.1.8-1.8 2-1.8 1.1 0 1.9.7 1.9 1.8.1 1.5.1 3 .1 4.4zm110.4 24.3c5.8-4.9 8.5-5.3 11.5-1.9 1.5-.6 3-1.4 4.5-1.7 3.6-.6 6.4 1.6 7 5.2.6 4-.5 7.7-2.2 11.2l-1.2 2.1c-.5.9-1.5 1.1-2.3.7-.8-.4-.9-1.3-.5-2.3 1-2.3 2.1-4.6 2.8-6.9.4-1.3.3-2.8.2-4.1-.3-2.3-2-3.3-4.2-2.5-2 .7-3.4 1.8-3.6 4.3-.2 2.6-1 5.3-1.5 7.9-.2 1.1-1 1.6-1.9 1.4-.9-.2-1.4-1-1.2-2 .5-2.4 1-4.8 1.4-7.2.2-1 .2-2.1.1-3.1-.1-1.5-.9-2.2-2.3-1.7-1.2.4-2.4 1.1-3.3 2-2.3 2.3-3.2 5.2-3.7 8.4 0 .2 0 .5-.1.7-.2.9-.8 1.5-1.8 1.4-1-.1-1.4-.7-1.4-1.7.1-2.7.2-5.3.3-8 0-1.4.1-2.8.1-4.2.1-1.2.7-1.8 1.6-1.8 1.1.1 1.5.7 1.5 1.8.2.5.2 1.2.2 2z"/><path fill="#A52C41" d="M283.9 198.3c1.7 2 3.4 4 5 6.1.5.6.9 1.5 1 2.3.1 1.3-.9 2-2.2 1.6-.6-.2-1.2-.6-1.6-1-2.5-2.9-5-5.9-7.5-8.9-1.3-1.6-1-3 .7-4.1 1.9-1.2 4-1.3 6.1-.6 1.5.5 2.9 1.1 4.3 1.7 1.8.7 3.6.9 5.5.4 1.6-.5 1.9-1.3 1-2.7-1.3-2-3.2-3.1-5.3-3.9-1.5-.6-2.3-1.6-2.3-3 0-1.2.8-1.8 2-1.7 4.3.6 9.8 5.6 10.7 9.9.7 3.4-1.4 5.8-5.3 6.3-2.8.4-5.3-.3-7.8-1.4-1.4-.5-2.7-1-4.1-1.5 0 .3-.1.4-.2.5z"/><path fill="#5B5B5B" d="M92.3 234.4c-2.7.1-5.3-.5-7.8-2.1-5-3.3-6.7-12.3.7-16.5 3.2-1.8 6.7-2.3 10.3-1.6 1.1.2 2.1.9 3 1.6 1 .7 1 2 .2 2.9-.7.8-1.8.9-2.8.2-3.1-2.1-9-.8-11 2.3-1.8 2.7-.5 6.8 2.7 8.3 3.3 1.5 6.7 1.3 9.9-.5.9-.5 1.8-.7 2.7 0 1.1.9.9 2.5-.3 3.4-1.8 1.4-4.2 2-7.6 2zm186.2 9.1v-4.6c0-1.3.7-2.1 1.7-2 1 .1 1.5.9 1.5 2.2-.2 5.9-.4 11.7-.6 17.6 0 .6-.4 1.5-.9 1.8-.5.2-1.3-.2-1.9-.3-.4-.1-.8-.2-1.1-.1-2.1.5-4.3.5-6.4-.1-3.5-1-5.8-3.8-6-7.4-.2-3.1 1.8-6.1 5-7.5 2.8-1.3 5.6-1.4 8.7.4zm-.3 6.9v-1.2c0-2.1-.9-3.4-3-3.7-1.3-.2-2.7 0-4 .4-2.2.8-3.5 2.7-3.3 4.5.3 2.4 1.8 4.2 4.2 4.6 1.3.2 2.8.2 4.1 0 1.8-.3 1.8-.4 1.8-2.2.1-.7.1-1.4.2-2.4zm20.8 4.8c-.4.4-.6.7-.9.9-3 3.3-7.5 3.7-10.4 1-3.2-3-3.4-7.9-.4-11.1 3.6-3.8 10.6-4.1 14.5-.7 1.4 1.2 1.4 1.8.2 3.2-.2.2-.2.7-.2 1.1.2 2.5.4 4.9.6 7.4 0 .6-.2 1.4-.6 1.8-.8.9-2.2.3-2.5-.9-.2-.7-.2-1.6-.3-2.7zm-4.3-9.1c-2 .1-4.1.7-5.5 2.7-1.4 1.9-1 4.7.9 6.2 1.6 1.3 4.2 1 5.6-1 .9-1.3 1.7-2.8 2.2-4.3.9-3 .3-3.6-3.2-3.6zm-123.2.9c0 2.6 2 4.6 4.9 4.9 1.9.2 3.7-.1 5.3-1 1.1-.6 2-.3 2.5.6.4.9.1 1.7-1 2.2-3.8 2.1-9.1 1.7-12.2-.8-2.5-2.1-3.5-5.9-2.4-9.1 1.1-3.1 3.9-5.2 7.2-5.1 1.7 0 3.4.5 5 1 1.3.5 2.2 1.6 2.6 2.9.7 2.2 0 3.9-2.3 4.3-2.1.4-4.3.4-6.5.4-1 .2-2.1-.1-3.1-.3zm.9-3.3c2.1 1 6.7 1 8 .1-1.4-2.6-6.3-2.7-8-.1zm26.2 7.9c-.5-.4-.9-.8-1.5-1.1-1.4-.6-2.9-1-4.2-1.7-1.6-.8-3.3-1.7-4.6-2.9-1.9-1.7-1.6-4.3.4-5.9 2.7-2.2 7.7-2.4 11.2-.4.5.3.9.5 1.3.8 1 .7 1.2 1.7.6 2.5s-1.5.9-2.4.1c-1.7-1.2-3.5-1.8-5.5-1.6-.9.1-1.9.4-2.7.7-1.1.5-1.3 1.3-.2 2 1.2.8 2.7 1.4 4 2.1 1.7.8 3.4 1.5 5 2.5 1.3.8 2.1 2 1.8 3.6-.3 1.6-1.4 2.4-2.8 2.8-3.9 1.1-7.6.3-11-1.9-.8-.5-.9-1.4-.4-2.1.6-.9 1.4-.9 2.3-.4 2 1.3 4.2 1.9 6.6 1.7.7-.1 1.3-.3 2-.5.1-.1.1-.2.1-.3zm19.6.8c-1.4 1-2.6 2.2-4 2.9-4.6 2.3-9.1-.3-9.4-5.5-.3-3.5.7-6.6 2.6-9.5.6-.9 1.6-1.2 2.3-.7.8.5.9 1.4.3 2.4-1.4 2.1-2.3 4.4-2.2 7 0 .5.1 1 .2 1.4.5 2.2 1.9 3 4.1 2.4 1.5-.4 2.6-1.4 3.5-2.6 1.6-2.1 2.5-4.4 2.9-7 .1-.5.3-1.1.7-1.4 1-.8 2.5-.1 2.4 1.3-.1 4-.3 8-.4 12 0 1-.7 1.4-1.6 1.4-.9 0-1.5-.6-1.5-1.5.1-1 .1-1.8.1-2.6zM71.3 224.1v-8c0-1.5.7-2.3 2-2.3 1.2 0 1.9.8 1.9 2.2v16.2c0 1.4-.7 2.2-2 2.2s-2-.7-2-2.3c.1-2.7.1-5.3.1-8zm34-.1v-7.9c0-1.5.7-2.3 2-2.3 1.2 0 1.9.8 1.9 2.2v16.2c0 1.4-.7 2.2-2 2.2s-2-.7-2-2.3c.1-2.7.1-5.4.1-8.1zM258 249.7V243c.1-1 .7-1.5 1.7-1.4 1 .1 1.4.7 1.4 1.6-.1 4.4-.3 8.8-.5 13.2 0 1-.7 1.6-1.6 1.5-1 0-1.5-.7-1.5-1.7v-6.5h.5z"/><path fill="#A52C41" d="M295.7 214c0 1-.7 1.8-1.7 1.8-1.5 0-3.1-1.7-3.1-3.2 0-1 .8-1.8 1.8-1.8 1.5-.1 3 1.5 3 3.2z"/><path fill="#5B5B5B" d="M107.4 212.1c-1.4 0-2.1-.7-2.1-2.1 0-1.4.8-2.2 2.1-2.2 1.2 0 2.1.8 2.1 2 0 1.4-.7 2.3-2.1 2.3zm-32-2.4c0 1.5-.7 2.3-2.1 2.3-1.4 0-2.1-.7-2.1-2.1 0-1.4.8-2.2 2.1-2.2 1.3.1 2.1.8 2.1 2zm182.8 28.8c0-1.1.7-1.7 1.7-1.7.9 0 1.6.7 1.6 1.7 0 1.1-.7 1.9-1.7 1.9-1-.1-1.6-.7-1.6-1.9zM77.6 167.6c-.9 1.1-1.8 2.2-2.7 3.2-.1 0-.2-.1-.3-.1.2-.7.2-1.5.6-2 .9-1.4 1.9-2.9 3.1-4.1 2.4-2.2 4.9-4.2 7.4-6.2 4.9-4 9.7-7.9 14.6-11.9 6-4.9 12.2-9.6 18-14.7 7.8-6.7 15.3-13.7 22.9-20.6 1.2-1.1 2.3-2.2 3.5-3.2.2-.2.7-.2 1.1-.2.1.4.3.8.1 1.1-.3.7-.8 1.4-1.3 1.9-3.3 3-6.7 5.9-10 8.9-10.7 9.7-21.6 19.2-33.1 28-4.7 3.6-9.1 7.8-13.4 12-3.1 3-5.9 6.4-8.8 9.6-.4.4-.8.9-1.2 1.1-.3.2-.8 0-1.2 0 0-.4-.1-.8.1-1.1.2-.6.6-1.1.9-1.7-.2.2-.3.1-.3 0zm-50.7 4.7c.3-.7.6-1.5 1-2.1 2.4-3.2 4.7-6.6 7.4-9.6 6.1-6.8 12.4-13.5 18.6-20.2 3.8-4.1 7.7-8.1 11.6-12.2.6-.7 1.4-1.2 2.1-1.8.8-.6 1.4-.4 2 .3.6.7 0 1.1-.5 1.5-3 2.6-6 5.3-9 7.9-.9.7-1.4 1.6-1.8 2.7-.5 1.2-1.5 2.3-2.5 3.3-3.8 3.8-7.8 7.4-11.6 11.2-3.3 3.3-6.4 6.8-9.5 10.3-1.4 1.6-2.5 3.5-3.8 5.2-.7 1-1.5 2-2.3 2.9-.3.3-.9.4-1.3.7-.1.1-.3 0-.4-.1zm120-73.5c-.5.8-.8 1.7-1.4 2.3-2.9 2.9-5.8 5.9-9 8.6-8.9 7.6-18 15-26.9 22.6-6.8 5.9-13.3 12-19.9 18-.4.4-1 .5-1.5.8.3-.5.5-1.1.9-1.5 8.9-9.3 18.7-17.8 28.6-26.1 7.9-6.6 15.7-13.3 23.5-19.9.4-.4.8-.8 1.1-1.3.9-1.4 1.7-2.8 2.6-4.1.2-.4.8-.5 1.2-.7.3.4.5.8.8 1.3zM67 119.7c1 1.1 1 2.2.1 3.1-3 3-6 6-9 8.9-7 6.7-14.1 13.5-20.2 21.1-2.8 3.4-5.2 7.2-7.8 10.8-.8 1.1-1.8 2.2-2.8 3.1-.4.4-1 .5-1.6.7-.1-.1-.2-.3-.3-.4.4-.6.7-1.3 1.1-1.9 1.5-2.1 3.2-4.1 4.6-6.3 7.7-11 17.4-20.1 26.8-29.5 3-3 5.8-6.2 8.7-9.2 0-.1.2-.2.4-.4zm-38.8 38.4c.3-.7.6-1.4 1-2 2.6-3.5 5.2-7 8-10.3 7.1-8.2 14.4-16.2 21.6-24.3 2-2.3 4.1-4.6 6.1-6.9.2-.2.3-.6.6-.6.6-.1 1.3-.1 1.9-.2-.1.5 0 1.2-.2 1.5-2.3 2.5-4.5 5.1-6.9 7.5-9.5 9.5-18.5 19.4-26.4 30.2-1.1 1.4-2.3 2.8-3.5 4.1-.5.5-1.2.9-1.8 1.3-.1-.1-.3-.2-.4-.3zm37-56.9c-.4.6-.8 1.1-1.2 1.6-4 4.4-8 8.8-12 13.3-6.4 7.2-12.6 14.4-19 21.7-1.6 1.8-3.1 3.5-4.8 5.2-.3.3-.8.4-1.2.5.1-.5.1-1 .3-1.3 4.6-5.4 9.2-10.9 13.8-16.2 5.9-6.8 11.9-13.5 17.8-20.2 1.2-1.3 2.1-2.9 3.2-4.3.6-.8 1.4-1.1 2.3-.6.4-.1.5.1.8.3zm-4.9.1c-2.6 2.2-5.1 4.3-7.6 6.6-8.3 7.6-16 15.8-22.2 25.3-.2.3-.8.4-1.2.6 0-.4-.2-1 0-1.3 1.2-2 2.4-3.9 3.8-5.8 3.6-4.7 7-9.4 11.3-13.5 2.8-2.6 5.6-5.3 8.4-8 1.4-1.3 2.7-2.6 4-4 1-1 2.4-1 3.5.1zm71.8-2.3c-.1.1-.4.6-.8 1-7.6 6.7-15.2 13.4-22.8 20.2-2.6 2.3-4.9 4.9-7.3 7.3-2.4 2.4-4.9 4.7-7.3 7.2-.8.8-1.5 1.9-2.2 2.8-.3.4-.6.9-.9 1.3-.1.1-.5.3-.6.2-.2-.2-.3-.5-.2-.7.1-.3.3-.6.5-.8 2.3-2.7 4.4-5.5 6.9-7.9 6.8-6.6 13.9-13 20.8-19.5 3.8-3.6 7.5-7.2 11.2-10.8.5-.5 1.1-1 1.7-1.3.6-.4 1.2-.2 1 1zm-35.4 28.4c.2-.6.3-1.4.6-1.9 1.3-1.8 2.7-3.5 4.1-5.1 5.6-6 11.2-11.9 16.8-17.9.2-.2.4-.6.6-.9-.9-.2-1.5-.4-2.4-.6 1.1-1.4 2.5-1.9 3.9-2.4.3-.1.6-.3.9-.3.5 0 1.3-.2 1.6.1.5.6.3 1.4-.3 2-6.3 6.8-12.7 13.5-19 20.3-2.1 2.3-4.2 4.6-6.4 6.8-.1 0-.2 0-.4-.1zm-69 52.3c-1-1.1-.5-1.8-.1-2.4 2.1-2.8 4.2-5.5 6.3-8.3 3-4.1 6.8-7.4 10.3-11 2.1-2.2 4.3-4.4 6.5-6.6.4-.3 1-.4 1.5-.6 0 .6.3 1.4 0 1.9-.8 1.1-1.7 2.1-2.7 3-1.4 1.4-2.9 2.7-4.5 4-6.3 5.2-11 11.6-15.7 18.2-.4.6-1 1.1-1.6 1.8zm.5-52.2c1.7-2.2 3.2-4.5 5-6.7 4.2-5.1 8.6-10.1 12.9-15.2 1.8-2.2 3.6-4.5 5.4-6.7.3-.4.8-.7 1.3-.7.4 0 1 .3 1.3.6.2.2.1.9-.2 1.1-.9 1.1-1.9 2.2-2.8 3.2C44 111 37 119 29.9 126.9c-.3.4-.8.6-1.1 1-.3-.1-.5-.2-.6-.4zm48.3 62.6c-.7-.8-.6-1.3.1-1.8 7.8-6 15.5-12 23.3-18.1 1.1-.9 2-2.1 3.1-3.2.4-.4.9-.9 1.5-1.2.4-.2 1.1-.1 1.3.1.2.3.2 1.1 0 1.4-.9 1-1.8 2-2.8 2.8-6.4 5.1-12.9 10.1-19.4 15.1-1.8 1.4-3.6 2.8-5.5 4.1-.5.3-1 .5-1.6.8zm75.9-51.1c-.4.5-.7 1-1.1 1.3-3.5 2.9-7 5.8-10.4 8.8-3.7 3.3-7.2 6.8-10.8 10.2-.9.9-1.8 1.8-2.8 2.6-.3.3-.8.2-1.3.3.1-.4.1-1 .3-1.2 3-3.1 5.9-6.2 9-9.2 3.6-3.4 7.4-6.5 11-9.8 1.4-1.3 2.6-2.7 3.9-4 .3-.3.9-.5 1.2-.4.4.4.6.9 1 1.4zm-.1-8.3c-.5.6-.9 1.4-1.5 1.9-2.1 1.9-4.1 4-6.4 5.6-7.7 5.1-13.6 12.1-19.8 18.7-.4.4-1 .6-1.5.9.2-.6.1-1.4.5-1.8 2.7-2.9 5.2-6 8.1-8.6 6.3-5.8 12.8-11.3 19.2-17 .2-.2.6-.3.9-.3.1-.1.3.3.5.6zm.7 15.8c-.4.6-.6 1.2-1 1.5-1.3 1.1-2.6 2.4-4.2 3.2-3.9 2.1-7 5-10.1 8-2.8 2.7-5.6 5.4-8.5 8.1-.3.3-.9.3-1.3.5.1-.5 0-1.2.3-1.5 2.4-2.5 4.8-4.9 7.2-7.4 1.2-1.2 2.3-2.3 3.6-3.3 3.9-3.2 7.9-6.3 11.9-9.4.4-.3 1-.3 1.6-.4.1.1.2.5.5.7zM48.3 98.3c-1.9 2-3.5 3.6-5 5.4-4.9 5.8-9.8 11.7-14.7 17.6-.3.4-.6 1.1-1.3.6-.7-.5-.1-1 .2-1.4 5.7-7.3 11.4-14.5 17.1-21.7.3-.4 1.1-.6 1.7-.7.6-.1 1.2.1 2 .2zm3.9 62c.7 1 .5 1.8-.2 2.5-1.2 1.2-2.3 2.5-3.7 3.4-6.9 4.8-12.7 11-18.4 17.1-.3.4-.9.6-1.3.9-.1-.1-.2-.2-.3-.4.6-.9 1.2-1.9 1.9-2.8 3.3-4.3 7.2-8 11.2-11.6 3.2-2.9 6.6-5.7 9.9-8.5.3-.2.5-.3.9-.6zm-22.8 31.3c.2-.6.2-1.3.5-1.8 1.8-2.4 3.5-4.9 5.6-7 4.7-4.6 9.7-8.9 14.5-13.4.4-.4.9-.9 1.5-.3.6.6.3 1.2-.3 1.8-1.7 1.5-3.4 3.2-5.2 4.6-5.8 4.5-10.8 9.8-15.5 15.5-.3.3-.4.8-.5 1.2-.1-.2-.3-.4-.6-.6zm96.3-3.2c2.8-2.5 5.5-5.2 8.5-7.5 5.2-4 10.7-7.7 16-11.5.7-.5 1.6-.6 2.4-.8.2 0 .6.2.6.3.1.2-.1.6-.3.7-.5.5-1.1.9-1.7 1.3-1.8 1.2-3.6 2.4-5.5 3.5-6.5 3.6-11.9 8.5-17.5 13.2-.5.4-.9.9-1.5 1.2-.3.2-.7.1-1.1.1.2-.1.1-.3.1-.5zm-23.1-12.7c.8.8.7 1.7-.1 2.6-.9 1-1.8 1.9-2.9 2.7-2.4 1.7-4.8 3.3-7.3 4.9-4.2 2.7-8.5 5.4-12.8 8.2-.4-.4-.4-1 .3-1.5 1.5-1.2 2.9-2.4 4.4-3.4 4.5-3 9.1-5.8 13.5-8.8 1.9-1.4 3.3-3.1 4.9-4.7zm-51.4 1.7c.5 1.2.1 2-.6 2.7-2.4 2.5-4.8 5-7.3 7.4-2.1 2-4.4 3.8-6.5 5.8-1 .9-1.8 2-2.7 3.1l-1.2 1.5c-1.3-.7-.9-1.4-.4-1.9 1.6-1.8 3.1-3.7 4.8-5.3 4.1-3.9 8.3-7.7 12.4-11.6.5-.6.9-1.1 1.5-1.7zm76.5-2.9c.3-.4.5-.8.9-1.2 6.1-5.7 12.6-10.9 19.4-15.7l3.9-2.7c.3-.2.6-.5.8-.4.5.1.9.4 1.4.6-.2.3-.3.8-.6 1-1.5 1.1-3 2.1-4.6 3-7.2 4.2-13.6 9.6-19.8 15-.3.3-.7.5-1.1.8 0-.1-.1-.2-.3-.4zm1.5 19c.3-.4.6-.8 1-1.1 5-3.8 10-7.5 15-11.4 1.9-1.5 3.7-3.2 5.6-4.8.6-.5 1.1-1.2 1.9-.4.8.9.2 1.5-.5 2-3.6 2.7-7.2 5.4-10.8 8l-10.2 7.2c-.5.4-1.1.6-1.7.9-.1-.1-.2-.3-.3-.4zm-.4 6.8c.2-.3.4-.6.7-.8 5.4-5.2 11.4-9.5 17.8-13.3.7-.4 1.3-.8 1.9-1.2 1-.6 2-1.3 3-1.9.4-.2 1-.1 1.6-.2-.2.5-.3 1.2-.7 1.5-1.2.9-2.5 1.8-3.8 2.5-6.5 3.8-12.6 8-18.5 12.7-.5.4-1.2.8-1.7 1.1-.1-.1-.2-.2-.3-.4zm26.8-39.2c-2.4 1.7-4.7 3.8-7.4 5.3-4.7 2.6-8.8 5.9-12.8 9.2-1.8 1.5-3.5 3-5.3 4.5-.3.3-.7.5-1 .7l-.3-.3c1.2-1.2 2.5-2.4 3.7-3.6 5.2-4.8 10.7-9.2 16.7-12.9 1.7-1.1 3.4-2.3 5-3.5.6-.5 1-.6 1.4.6zm-97.3-14.4c.3-.8.5-1.5.9-2 1.9-2.5 3.9-5 5.9-7.5 1-1.2 2-2.4 3.1-3.5.3-.3.9-.6 1.2-.4.6.3.7 1 .2 1.5-1 1.3-2 2.5-3 3.7-1.9 2.3-3.9 4.7-5.9 6.9-.3.7-.9 1.7-2.4 1.3zm13.5-8.7c.4 1.1.2 1.8-.5 2.4-1.9 1.7-3.7 3.4-5.6 5.1-.7.6-1.3 1.4-1.9 2.1-.2.3-.5.6-.8.7-.4.2-.8.2-1.2.2 0-.4-.3-.9-.1-1.2.2-.6.6-1.1 1.1-1.6 2.5-2.4 5-4.8 7.6-7.1.3-.3.9-.4 1.4-.6zm10.7 60.3c.2-.1.4-.3.7-.4 5-2 9.1-5.3 12.9-9 .5-.5 1.2-.9 1.9-1.2-1 3.7-10 11-15.5 10.6zm56.1 3c4.4-3.5 9.2-6.1 14.3-8.2-.6 2.2-11.6 8.4-14.3 8.2zm-64.5-52.9c.7 1 .7 1.7 0 2.5-1.4 1.4-2.9 2.8-4.3 4.1-.3.3-.7.4-1.1.6-.1-.1-.2-.1-.3-.2.1-.7.1-1.4.4-2 1.3-2.1 3.3-3.5 5.3-5zM78 153c-.1.4-.1.8-.3 1.2-1.7 3-4.4 4.9-7.1 6.9 1-4 4.3-5.9 7.1-8.3.1.1.2.1.3.2zm1.8 4.3c-.5 3.6-3.2 5.5-5.8 7.4-.1 0-.3-.1-.4-.1.1-.6 0-1.3.3-1.7 1.8-2 3.7-3.9 5.5-5.9.2.1.3.2.4.3zm180-10c3.9-1.9 7.7-3.7 11.5-5.6 5.1-2.6 10-5.4 15.1-8.2.1 0 .1-.1.2-.1.5 0 1-.1 1.6-.1-.2.5-.2 1.2-.5 1.5-.9.8-2 1.5-3.1 2-3.3 1.7-6.6 3.2-9.9 4.9-3.9 2-7.8 4.2-11.7 6.3-1.6.8-2.9 1.8-3.6 3.5-1.1 2.5-3.2 3.7-5.7 4.3-2.8.7-5.6 1.4-8.4 1.7-5.9.5-11.8.6-17.7.9-1.5.1-2.5-.6-3.2-1.9-.2-.3-.3-.7-.2-1 1.2-3.9.7-7.9.3-11.9-.4-3.1-.7-6.3-1.1-9.4-.1-1.1.4-1.9 1.3-2.4 1.9-1.2 3.9-1.9 6.4-1.3 4.3 1 8.6 1.8 12.9 2.7.4.1.9.2 1.3.4 2.9 1.5 5.9 3 8.8 4.6 2.8 1.5 4.5 3.9 5.3 7-.1.6.1 1.2.4 2.1zm-23.2 5.8c2-.1 4.1 0 6.1-.3 2.6-.4 5.2-.8 7.7-1.6 2.4-.7 2.9-2 2.4-4.5-.6-2.9-2.5-4.8-4.9-6.2-5.3-3-11-4.3-17-4.3-1.4 0-1.9.5-1.7 1.9.2 1.9.3 3.9.6 5.8.3 2.4.7 4.7 1.2 7.1.4 1.7.7 2 2.5 2 1 .1 2 .1 3.1.1zm-59.7 34.7c1.1-.9 2-1.8 3.1-2.5 3.7-2.3 7.4-4.5 11-6.8 4.3-2.7 8.5-5.5 12.7-8.2.6-.4 1.2-.5 2-.3.7.2 1.6.2 2.2-.1 4.3-1.7 8.6-3.5 13-5.3.5-.2 1.1-.4 1.6-.4.4 0 .7.3 1.1.5-.2.3-.4.7-.6.9-1.2.6-2.3 1.2-3.5 1.5-5.7 1.5-10.6 4.5-15.6 7.6-.9.5-1.6.8-2.7.4-.5-.2-1.4.1-2 .5-4.9 2.9-9.7 5.8-14.6 8.8l-5.7 3.6c-.5.3-1.1.6-2-.2zm3.3-31.1c2.8-2.2 5.5-4.2 8-6.2 4.4-3.6 8.6-7.2 13-10.8 6-4.8 12.1-9.5 18.1-14.2 2.2-1.7 4.4-3.5 6.6-5.2.3-.3.7-.6 1.1-.6.6 0 1.1.3 1.7.5-.3.4-.5 1-.9 1.3-4.2 3.2-8.3 6.5-12.7 9.5-8 5.5-15.3 11.8-22.8 18-2.5 2.1-5.1 4.3-7.8 6.2-1 .8-2.3 1.8-4.3 1.5zm-1.2 20c-.5-.3-1-.5-1.1-.8-.1-.3.2-.8.5-1 2.3-1.8 4.7-3.6 7.1-5.4 8.9-6.4 18.2-12.1 27.9-17.2 1.1-.6 1.9-1.6 2.8-2.5.4-.4.7-.8 1.3-.2.5.5.9 1.1.2 1.8-.5.5-1.1.9-1.7 1.3-3.2 1.8-6.4 3.7-9.6 5.4-9.3 4.8-17.7 10.9-25.8 17.4-.6.5-1.1.9-1.6 1.2zm-3.4-6.3c.3-.4.6-.8 1-1.1 5.7-3.9 11.4-7.9 17.2-11.7 5.6-3.7 11.5-7.1 16.5-11.6 1.3-1.1 2.3-2.6 3.7-3.7.5-.4 1.6-.5 2.1-.2.8.4.3 1.2-.2 1.7-1.2 1.1-2.4 2.3-3.7 3.2-4.8 3.4-9.7 6.7-14.5 9.9-6.5 4.4-12.9 8.8-19.4 13.1-.7.5-1.6.6-2.3.9-.2-.2-.3-.3-.4-.5zm2.1 11c.7-.6 1.3-1.2 2-1.7 3.3-2.2 6.6-4.3 9.8-6.4 6.8-4.4 13.6-8.9 20.3-13.3.8-.5 1.5-.7 2.5-.5 1 .2 2.1-.2 3.1-.5.8-.2 1.5-.5 2.2-.7.5.9.2 1.4-.5 1.8-1 .5-2.1 1.1-3.2 1.3-4.4 1.1-8.4 3.1-12.2 5.5-7.4 4.7-14.7 9.6-22.1 14.4-.6.4-1.3.5-2 .7.3-.2.2-.4.1-.6zm33.8-43.1l13.8-11.1c-.1-.1-.1-.2-.2-.3h-1.6c.2-.3.2-.5.4-.6 5.6-3.6 11.2-7.1 17.7-8.8.5-.1 1.5-.1 1.5.1.3 1-.7.9-1.2 1.1-3.9 1.8-7.9 3.6-11.9 5.4-.6.3-1 .7-1.1 1.4-.1 1.4-.9 2.5-2 3.2-4.1 2.8-8.3 5.6-12.4 8.4-.9.6-1.9 1-2.8 1.5-.1-.1-.2-.2-.2-.3zm-3.5-21.1c-.3.5-.6 1.2-1.1 1.5-1 .8-2 1.6-3.1 2.2-4.8 2.5-8.9 5.9-12.8 9.6-3.4 3.2-6.7 6.6-10.1 9.9-.1.1-.2.3-.3.3-.7.2-1.4.4-2.2.6.3-.6.5-1.3.9-1.8 8.3-8.2 16.7-16 26.6-22.3.5-.3 1.2-.4 1.8-.5.1.2.2.3.3.5zm48.2 42.7c.4-.3.8-.7 1.2-.9 5.8-2.9 11.6-5.7 17.4-8.6 3.8-1.9 7.7-3.8 11.5-5.7.9-.5 1.7-1.2 2.6-1.7.5-.3 1.5-.5 1.7-.2.6.8 0 1.4-.7 1.8-1.7 1-3.4 2-5.1 2.8-9 4.2-18.1 8.3-27.1 12.4-.4.2-.8.3-1.3.4-.1-.1-.1-.2-.2-.3zm1.8 7.2c1.9-1.3 3.8-2.7 5.8-4 6.9-4.2 13.9-8.3 20.8-12.5 1-.6 2-1.4 3-2 .4-.2.9-.4 1.3-.4.2 0 .7.2.7.4.1.3 0 .8-.1 1-.5.5-1 .9-1.6 1.3-5.2 3.1-10.5 6.1-15.8 9.1-3.9 2.2-7.9 4.4-11.9 6.5-.7.4-1.4.6-2.2 1 .1-.1.1-.3 0-.4zm-55.5-53.4c-2.1 1.7-4 3.4-6 4.9-7.4 5.2-13.9 11.5-20 18.2-.2.2-.3.5-.6.6-.3.1-.7 0-1 0 0-.3-.1-.7.1-.9.7-.8 1.4-1.6 2.2-2.4 6.5-6.7 13.4-12.9 20.4-19 .6-.5 1.1-1 1.7-1.6 1-1 1.7-1 3.2.2zm-2.4 68.8c-.4.2-.9.4-1.3.6-1.8 1.1-3.6 2.2-5.5 3.2l-13.8 7.5c-.6.3-1.3.6-2 .9-.2.1-.7 0-.8-.2-.1-.2 0-.7.2-.8.5-.5 1.1-.9 1.7-1.3 4.8-2.7 9.5-5.4 14.3-8.1 1.7-.9 3.3-1.9 5-2.9.7-.4 1.7-.1 1.7.6.2.2.3.4.5.5z"/><path fill="#5B5B5B" d="M259.9 138.7c.5-.3 1-.7 1.6-1 4.5-2.3 9-4.5 13.4-6.8 1.9-1 3.8-2.2 5.7-3.3.9-.5 1.5-.2 1.6.8 0 .4-.4 1-.7 1.2-3.7 1.8-7.4 3.7-11.2 5.4-2.9 1.4-5.9 2.6-8.9 3.8-.4.2-.9.2-1.4.3 0-.1 0-.3-.1-.4zm9.6-20.5c.7 1 .4 1.5-.4 1.9-1.9 1-3.7 2.2-5.7 3-4 1.7-7.5 4.3-11.3 6.6-.8.5-1.7 1-2.5 1.3-.4.1-1-.3-1.5-.4.3-.3.5-.8.8-1 6-3.5 12-6.9 18.1-10.3.8-.5 1.7-.8 2.5-1.1zm-16.4-.4c-.4.2-.7.3-1.1.5-1.5.8-3 1.7-4.5 2.4-3.9 1.8-7.8 3.5-11.7 5.2-.5.2-1 .4-1.5.5-.3.1-.6-.1-.9-.2.1-.3.2-.6.4-.8.3-.3.7-.5 1-.6 5-2.5 10.1-5 15.1-7.5.6-.3 1.3-.4 2-.4.3 0 .6.2.9.3l.3.6zM197.9 134c.3-.4.6-.8 1-1.1 6-4.6 12-9.1 18.1-13.6.4-.3 1.5-.3 1.7-.1.5.6 0 1.2-.6 1.6-1.7 1.2-3.4 2.3-5 3.5-4.5 3.1-9 6.3-13.6 9.4-.4.3-.9.4-1.4.7 0-.1-.1-.2-.2-.4zm-1.1 55.1c.4 1.2.3 2.2-.9 2.8-3.7 2-7.4 4-11.1 6.1-1.5.8-2.9 1.6-4.4 2.4-.5.2-1 .4-1.5.5l-.3-.3c.3-.4.6-.9 1-1.2 3.7-2.3 7.3-4.5 11-6.7 2.1-1.2 4.1-2.4 6.2-3.6zm58.1-56c3.9-1.9 7.7-3.8 11.6-5.6 2.6-1.2 5.1-2.4 7.7-3.5.3-.1.6-.4.9-.3.5.1 1 .3 1.5.5-.3.4-.4 1-.8 1.1-2.8 1.3-5.6 2.6-8.4 3.8-3.7 1.6-7.5 3.1-11.3 4.6-.4.1-.8 0-1.2 0v-.6zm12.8 76.1c.9.9.6 1.5-.2 1.9-.8.5-1.7.8-2.6 1.2-2.8 1.4-5.7 2.9-8.5 4.3-2 1-3.9 2.1-6 3.1-.3.2-.8 0-1.2 0 .2-.3.3-.8.6-1 3-1.9 6-3.8 9.1-5.5 2.8-1.4 5.9-2.6 8.8-4zm-87.9-57.9c4.6-6 10.2-10.8 16-15.7.1.1.3.2.4.3-.3.5-.5 1.1-.9 1.5-2.4 2.4-4.9 4.8-7.3 7.2-1.2 1.3-2.4 2.7-3.5 4-.7.8-1.2 1.7-2 2.3-.6.5-1.5.6-2.3.9-.2-.1-.3-.3-.4-.5zm32.9 24.5c.6-.4 1.2-1 1.8-1.3 4-1.8 7.9-3.6 11.9-5.3.8-.4 1.6-.7 2.4-1 .3-.1.7-.3 1-.2.5.2.9.5 1.4.8-.3.3-.5.8-.9 1-1.4.6-2.8 1.2-4.2 1.7-3.6 1.4-7.3 2.8-10.9 4.2-.7.3-1.5.5-2.3.7 0-.2-.1-.4-.2-.6zm-34-47.8c.2-.3.3-.6.6-.9 3.9-3.9 7.7-7.8 11.6-11.7.9-.9 2-.8 3.3-.4-.5.5-.8.7-1.1 1-2.7 2.3-5.5 4.5-8.1 6.9-1.2 1.1-2.1 2.3-3.1 3.6-1.1 1.5-1.9 2-3.2 1.5zm62.5 41c-.3.2-.5.5-.8.7-7 3.2-14 6.3-21 9.5h-.5c.8-.7 1.3-1.3 1.9-1.6 3.2-1.7 6.4-3.5 9.6-5 2.7-1.3 5.5-2.4 8.3-3.5.7-.3 1.5-.3 2.3-.5.1.1.1.2.2.4zm-18.4 13.8c.4-.2.8-.4 1.1-.7 5.1-4.2 10.8-7.5 17.2-9.2.6-.2 1.3 0 2-.1-.5.5-1 1.1-1.6 1.4-2 .9-4.1 1.5-6.1 2.5-3.9 1.9-7.6 4-11.4 6.1-.3.1-.5.3-.8.4l-.4-.4zm10.2 16.4c.1-1.2.9-1.5 1.6-1.7 3-1.3 6.1-2.6 9.2-3.8 1.4-.6 2.9-1.2 4.3-1.8.4-.1.8-.2 1.2-.2.3 0 .7.2.8.4.1.3 0 .7-.2.9-.2.3-.6.5-1 .7-5.3 1.8-10.5 3.6-15.9 5.5zm30.7 5.5c-.4.4-.8.9-1.3 1.1-3.4 1.7-6.7 3.5-10.1 5.1-2.3 1.1-4.6 2.1-6.9 3.2-.3.1-.6.2-.9.2 5.6-4.7 12.3-7.4 18.9-10.1.1.2.2.4.3.5zm-84.1 1.1c-.5-1 .1-1.2.7-1.5 4.2-2.3 8.3-4.6 12.4-6.9.5-.3.9-.6 1.4-.9.7.9.8 1.7 0 2.4s-1.8 1.3-2.8 1.8c-3.5 1.6-7 3.1-10.5 4.6-.3.2-.7.4-1.2.5zm20.6-77.9c2-1.6 4-3.2 6-4.7l6-4.5c.2-.2.5-.5.7-.4.7.1 1.3.3 2 .4-.2.5-.3 1.2-.7 1.4-3 1.9-6 3.8-9 5.6-1.2.7-2.4 1.4-3.7 2-.4.2-.8.3-1.2.5 0-.1-.1-.2-.1-.3zm28.7 65.6c-.2-.1-.7-.2-.7-.4 0-.3.1-.7.4-.9.5-.4 1.1-.7 1.6-1l10.8-5.1c.4-.2 1 .1 1.5.1-.3.4-.4 1-.8 1.2-4 2-8 3.9-12 5.8-.1.2-.4.2-.8.3zm40.3 21.9c.5.8.3 1.5-.5 1.9-1.5.7-2.9 1.5-4.4 2.1-2.8 1.2-5.6 2.4-8.5 3.6-.5.2-1 .4-1.6.6-.2.1-.5-.1-.7-.2.1-.2.1-.6.3-.7.5-.4 1-.7 1.5-.9 3.4-1.6 6.8-3.2 10.2-4.7 1.2-.7 2.4-1.2 3.7-1.7zm-6.5-96c-5.7 2.4-11.2 4.8-16.8 7.2 0-.1-.1-.1-.1-.2l2.1-1.5c4.1-2.8 8.3-5.2 13.2-6.4 1.2-.3 1.2-.4 1.6.9zm-37.8 69.3c.2-.2.5-.5.7-.6 3.7-2.5 7.3-5 11-7.4.6-.4 1.4-.7 2.1-.7.9 0 1.1.6.4 1.3-.6.6-1.3 1.2-2.1 1.6-3.8 2-7.5 4-11.3 6-.2.1-.5.1-.7.1 0-.2-.1-.2-.1-.3zM182.8 210c4.6-2.5 9.2-5.1 13-8.9.5 1.3.2 2.2-.5 2.9-1.1 1-2.2 2-3.5 2.7-2.4 1.3-5 2.4-7.5 3.5-.4.2-.9.2-1.4.2 0-.1 0-.3-.1-.4zm74.9-8c-.4.4-.7 1-1.2 1.3-1.2.7-2.4 1.3-3.6 1.8-2.7 1.1-5.4 2-8.2 3.1-.5.2-1 .3-1.6.3 4.1-3.8 9.5-4.5 14.3-6.8.1 0 .2.1.3.3zm37.8-42.2c-.3.6-.5 1.2-.9 1.6-.8.8-1.8 1.5-2.8 2-3 1.4-6.1 2.7-9.1 4-.1-.2-.2-.3-.2-.5 4.2-2.5 8.5-5 12.7-7.5.1.1.2.2.3.4zm-62.7 5.8c1.4-.6 2.8-1.2 4.3-1.8 1.5-.6 3.1-1.3 4.6-2 1-.5 2-.9 3.5-.3-3.9 2.5-7.7 4.5-12.1 4.6-.2-.2-.2-.3-.3-.5zm-53.9-43.9c1.6-2.2 3-4.5 5.2-6.1.4-.3 1-.5 1.4-.5.5 0 .9.5 1.4.7-.3.3-.5.8-.8 1l-6 4.5-.9.6c-.1 0-.2-.1-.3-.2zm99.2 96.2c-3 3.4-6.5 6-11.3 6-.1-.1-.1-.2-.2-.3 3.9-1.9 7.7-3.8 11.5-5.7zm-86.4-6.7c-3.1 3.2-6.3 6.2-10.8 7.2 3.2-2.9 7-5 10.8-7.2zm54.3-8.8l10.2-4.5c.3.9-.1 1.5-.7 1.8-1.1.6-2.2 1.2-3.5 1.6-1.7.5-3.5.9-5.2 1.3-.3.1-.5 0-.8 0v-.2zm-56.6-46c-1.7 2.9-4 4.7-7.1 5.7.1-1.7 4.6-5.3 7.1-5.7zm1.8-21.3c1.8-2.8 5.1-5.4 7.8-6-2.2 2.6-4.3 5-7.8 6zm59.2 29.9c3-1.2 5.8-2.3 8.8-3.4-.8 2.2-6.2 4.3-8.8 3.4zm9.6 10.5c.3-.4.6-1 1-1.2 1.8-.9 3.6-1.6 5.5-2.3-1.6 2-3.5 3.6-6.2 3.8l-.3-.3zm-2.7-7.8c-.9 2.1-3.6 3.7-5.1 2.8 1.5-1.3 3-2.3 5.1-2.8zm-68.7-30.8c-1.1 2.5-3.5 4.6-5.2 4.8.2-.9 3.1-3.6 5.2-4.8zm10.8 10.4c.5-.6.9-1 1.3-1.3.9-.8 1.9-1.5 2.8-2.2.1-.1.4-.1.6-.1 0 .2.1.6 0 .6-1.3 1.1-2.6 2.1-4 3.1 0 .1-.2.1-.7-.1zm-21.2.4c-.1-1.4 1.1-2.7 3.1-3.7-.3 1.8-1.7 3.4-3.1 3.7zm102 20.9c-1.1.5-2.2 1.1-3.3 1.6.4-1.3 2.4-2.3 3.1-2 .1.1.1.3.2.4zm-87.8-14.4l-.1-.1c-.3-.9.1-1.5.9-1.9.1 0 .5.3.5.4 0 .9-.4 1.5-1.3 1.6z"/></svg>