<svg xmlns="http://www.w3.org/2000/svg" xmlns:xlink="http://www.w3.org/1999/xlink" viewBox="0 0 56 56"><defs><linearGradient id="a" x1=".159" y1=".095" x2=".98" y2="1.07" gradientUnits="objectBoundingBox"><stop offset="0" stop-color="#f5ecd8"/><stop offset="1" stop-color="#f0be73"/></linearGradient><linearGradient id="b" x1=".128" y1=".177" x2=".978" y2=".714" gradientUnits="objectBoundingBox"><stop offset=".08" stop-color="#a52c41"/><stop offset="1" stop-color="#600f30"/></linearGradient><linearGradient id="c" x1=".148" y1=".161" x2=".836" y2=".728" xlink:href="#a"/></defs><g data-name="mind-map"><path data-name="Rectangle 1950" transform="translate(8.959 11.984)" fill="url(#a)" d="M0 0h24.627v11.076H0z"/><path data-name="Path 1213" d="M130.44 153.351a1.789 1.789 0 0 0 .434-.694 5.408 5.408 0 0 0 .289-1.819 6.01 6.01 0 0 0-4.914-5.941 6 6 0 0 0-7.938-3.477l.041-6.429a1.94 1.94 0 0 0-1.923-1.947l-26.16-.165a1.94 1.94 0 0 0-1.947 1.923l-.091 14.508a1.94 1.94 0 0 0 1.923 1.947l6.766.043c-.006.106-.01.212-.011.32a5.946 5.946 0 0 0 .5 2.441 6 6 0 0 0 5.446 7.685 6 6 0 0 0 8.08 2.378c.419.3.845.614 1.291.943 2.75 2.025 5.593 4.118 8.1 4.134a1.207 1.207 0 0 0 1.087-.462c.381-.571.039-1.377-.323-2.232-.124-.3-.258-.609-.351-.9.156.013.312.02.468.021a5.953 5.953 0 0 0 3.63-1.193 6.057 6.057 0 0 0 2.071-2.811 6.011 6.011 0 0 0 4.222-5.7 4.36 4.36 0 0 0-.432-2.173 2.732 2.732 0 0 1-.258-.4zm-33.1-9.057l-4.389-.027a.584.584 0 0 1 .007-1.168l4.389.028a.584.584 0 0 1-.007 1.167zm5.37-3.457l-9.74-.061a.586.586 0 0 1-.58-.592.585.585 0 0 1 .587-.58l9.74.061a.584.584 0 0 1-.007 1.168zm10.135-3.427l-19.855-.126a.584.584 0 1 1 .01-1.167l19.856.125a.584.584 0 0 1-.008 1.168z" transform="translate(-81.703 -123.05)" fill="url(#b)"/><path data-name="Rectangle 1951" fill="none" d="M0 0h56v56H0z"/><path data-name="Path 1214" d="M244.827 241.628a3.342 3.342 0 0 1 .347 1.815 5.526 5.526 0 0 1-4.12 5.309 5.528 5.528 0 0 1-5.326 3.921 5.471 5.471 0 0 1-1.01-.1 1.853 1.853 0 0 1-.9-.888 1 1 0 0 1 .143-.939.276.276 0 0 0-.465-.3 1.56 1.56 0 0 0-.194 1.434 2.554 2.554 0 0 0 1.484 1.32c.407 1.337 1.632 3.05.066 3.04-2.713-.017-6.091-2.811-9.005-4.908a.263.263 0 0 0 .024-.092 4.621 4.621 0 0 1 1.595-2.981 5.656 5.656 0 0 1 4.5-.87.276.276 0 0 0 .081-.545 6.38 6.38 0 0 0-4.656.785 1.892 1.892 0 0 0-1.2-1.906c-.279-.129-1.056-.394-1.289-.074a.249.249 0 0 0 .349.346 1.945 1.945 0 0 1 1.251.528 1.317 1.317 0 0 1 .354 1.343.245.245 0 0 0 .024.176 5.19 5.19 0 0 0-1.55 3.128 5.528 5.528 0 0 1-7.418-1.95 2.255 2.255 0 0 0 1.244-.982 2.659 2.659 0 0 0-.007-2.3.277.277 0 0 0-.518.2 2.148 2.148 0 0 1 .044 1.832 1.816 1.816 0 0 1-1.142.791.269.269 0 0 0-.087.033 5.527 5.527 0 0 1-5.081-6.981 12.015 12.015 0 0 0 2.885.471c.093 0 .186.005.277.006a5.9 5.9 0 0 0 4.979-2.131.276.276 0 0 0-.439-.334c-2.352 3.1-7.365 1.523-7.768 1.389a5.53 5.53 0 0 1 3.561-7.335c.087-.078.174-.157.263-.234a5.528 5.528 0 0 1 5.284-3.785 4.758 4.758 0 0 1 .506.027 3.606 3.606 0 0 0 .6 1.336 4.629 4.629 0 0 0 3.193 1.807.271.271 0 0 0 .042 0 .276.276 0 0 0 .044-.548c-2.78-.444-3.271-2.354-3.338-2.71a5.931 5.931 0 0 1 9.448-.116l.417.064a5.529 5.529 0 0 1 8.018 2.85.277.277 0 0 0-.141.135 4.937 4.937 0 0 1-1.659 1.764 7.357 7.357 0 0 1-6.132.561.276.276 0 0 0-.148.531 10.75 10.75 0 0 0 2.79.414 7.159 7.159 0 0 0 2.615-.444c.118.862.592 2.051 1.83 2.134h.017a.275.275 0 0 0 .02-.55 1.308 1.308 0 0 1-1.147-.978 3.4 3.4 0 0 1-.189-.837 5.909 5.909 0 0 0 .646-.37 5.438 5.438 0 0 0 1.854-1.989.257.257 0 0 0 .021-.064 5.526 5.526 0 0 1 4.507 5.466c0 .722.036 1.819-.777 2.156l-.11.045a5.385 5.385 0 0 0-4.9 1.927 6.8 6.8 0 0 0-1.278 2.385.276.276 0 0 0 .533.14 6.351 6.351 0 0 1 1.184-2.187 4.828 4.828 0 0 1 4.5-1.707 3.633 3.633 0 0 1 .454.526z" transform="translate(-196.224 -210.549)" fill="url(#c)"/></g></svg>