<svg xmlns="http://www.w3.org/2000/svg" viewBox="0 0 56 56"><defs><style>.cls-2{fill:url(#linear-gradient)}</style><linearGradient id="linear-gradient" y1=".5" x2="1" y2=".5" gradientUnits="objectBoundingBox"><stop offset="0" stop-color="#f5ecd8"/><stop offset="1" stop-color="#f3cb8f"/></linearGradient><linearGradient id="linear-gradient-2" x1=".117" y1=".242" x2=".975" y2=".82" gradientUnits="objectBoundingBox"><stop offset=".08" stop-color="#a52c41"/><stop offset="1" stop-color="#600f30"/></linearGradient></defs><g id="quiz" transform="translate(-433 -522.382)"><g id="icons" transform="translate(433 522.382)"><g id="quiz-2" data-name="quiz"><path id="Rectangle_1952" data-name="Rectangle 1952" fill="none" d="M0 0h56v56H0z"/><path id="Path_1215" data-name="Path 1215" class="cls-2" d="M145.132 130a12.132 12.132 0 1 0 12.132 12.132A12.132 12.132 0 0 0 145.132 130z" transform="translate(-123.161 -120.383)"/><path id="Path_1216" data-name="Path 1216" d="M147.809 132.452a12.908 12.908 0 1 0-13.668 13.342 12.908 12.908 0 1 0 13.668-13.342zm-17.865 6.248a.834.834 0 0 1-.592-1.422l4.378-4.388-4.388-4.378a.834.834 0 1 1 1.178-1.18l4.388 4.378 4.38-4.391a.836.836 0 1 1 1.18 1.184l-4.378 4.397 2.608 2.6a13.224 13.224 0 0 0-1.2 1.154l-2.589-2.58-4.378 4.388a.832.832 0 0 1-.587.238z" transform="translate(-112.975 -111.123)" fill="url(#linear-gradient-2)"/><path id="Path_1217" data-name="Path 1217" class="cls-2" d="M308.132 299a12.132 12.132 0 1 0 12.132 12.132A12.132 12.132 0 0 0 308.132 299zm7.665 7.7l-9.934 9.957a.834.834 0 0 1-.592.244h-.038a.835.835 0 0 1-.6-.3l-4.146-4.98a.836.836 0 1 1 1.286-1.07l3.561 4.277 9.286-9.309a.835.835 0 0 1 1.18 1.181z" transform="translate(-274.103 -276.881)"/></g></g></g></svg>