<svg xmlns="http://www.w3.org/2000/svg" viewBox="0 0 56 56"><defs><linearGradient id="a" x1=".204" y1=".249" x2=".942" y2=".821" gradientUnits="objectBoundingBox"><stop offset=".08" stop-color="#a52c41"/><stop offset="1" stop-color="#600f30"/></linearGradient><linearGradient id="b" x1=".681" y1=".72" x2=".228" y2=".188" gradientUnits="objectBoundingBox"><stop offset="0" stop-color="#f3cb8f"/><stop offset=".9" stop-color="#f5ecd8"/></linearGradient></defs><g data-name="resume"><path data-name="Rectangle 1953" fill="none" d="M0 0h56v56H0z"/><path data-name="Path 1218" d="M159.824 156.028l-3.061 21.391a5.1 5.1 0 0 1-4.666 4.353 4.3 4.3 0 0 1-2.889 1.184h-21.484a1.4 1.4 0 0 1-.989-.413 1.46 1.46 0 0 1-.112-1.908 1.137 1.137 0 0 1 .938-.49h3.835a.888.888 0 0 0 .888-.888v-.314s-.525-1.127-1.144-1.167h-7.716a1.238 1.238 0 0 1-1-.377 1.42 1.42 0 0 1-.417-1 1.438 1.438 0 0 1 1.422-1.43h7.3c.62.008 1.117-1.119 1.117-1.119v-.05a1.131 1.131 0 0 0-1.127-1.127h-2.678a1.406 1.406 0 0 1-1.4-1.5 1.43 1.43 0 0 1 1.44-1.307h2.684a1.076 1.076 0 0 0 1.07-1.153 1.094 1.094 0 0 0-1.1-.993h-5.371a1.419 1.419 0 1 1 0-2.838h.62l1.522-.007 1.92-.009 1.815-.007h1.281a.814.814 0 0 0 .473-.178 1.423 1.423 0 0 0 .592-1.4 1.39 1.39 0 0 0-1.377-1.11h-3a1.448 1.448 0 0 1 .187-2.885h4.087l.567-3.908a4.49 4.49 0 0 1 3.16-3.551 5 5 0 0 1 4.32-2.825H154.3c2.219 0 3.748.53 4.678 1.62.985 1.149 1.253 2.868.846 5.406z" transform="translate(-112.975 -137.978)" fill="url(#a)"/><path data-name="Path 1219" d="M305.826 159h-12.783a4.332 4.332 0 0 0-4.069 3.718l-3.312 23.856a3.1 3.1 0 0 0 3.038 3.718h14.78a4.333 4.333 0 0 0 4.069-3.718l3.062-21.4c.626-3.881-.275-6.174-4.785-6.174zm-4.706 23.254l-.057.392a.474.474 0 0 1-.453.4h-7.494a.334.334 0 0 1-.338-.4l.057-.392a.474.474 0 0 1 .453-.4h7.494a.334.334 0 0 1 .339.4zm4.891-3.847l-.057.392a.473.473 0 0 1-.453.4h-16.058a.334.334 0 0 1-.338-.4l.057-.392a.473.473 0 0 1 .453-.4h16.059a.334.334 0 0 1 .338.4zm.573-3.847l-.057.392a.473.473 0 0 1-.453.4h-16.057a.334.334 0 0 1-.338-.4l.057-.392a.473.473 0 0 1 .453-.4h16.057a.334.334 0 0 1 .342.4zm.653-3.847l-.057.392a.473.473 0 0 1-.453.4H290.67a.334.334 0 0 1-.338-.4l.057-.392a.474.474 0 0 1 .453-.4H306.9a.334.334 0 0 1 .338.4zm.526-3.847l-.057.392a.473.473 0 0 1-.453.4H291.2a.334.334 0 0 1-.338-.4l.057-.392a.473.473 0 0 1 .453-.4h16.058a.334.334 0 0 1 .338.4z" transform="translate(-264.496 -147.238)" fill="url(#b)"/></g></svg>