<?xml version="1.0"?>
<svg xmlns="http://www.w3.org/2000/svg" xmlns:xlink="http://www.w3.org/1999/xlink" viewBox="0 0 56 56">
  <defs>
    <style>
      .cls-1 {
        fill: none;
      }

      .cls-2 {
        fill: url(#linear-gradient);
      }

      .cls-3 {
        fill: url(#linear-gradient-2);
      }

      .cls-4 {
        fill: url(#linear-gradient-3);
      }

      .cls-5 {
        fill: url(#linear-gradient-4);
      }
    </style>
    <linearGradient id="linear-gradient" x1="0.352" y1="0.242" x2="1.025" y2="1.416" gradientUnits="objectBoundingBox">
      <stop offset="0" stop-color="#f5ecd8"/>
      <stop offset="1" stop-color="#f3cb8f"/>
    </linearGradient>
    <linearGradient id="linear-gradient-2" x1="0.352" y1="0.242" x2="1.025" y2="1.416" xlink:href="#linear-gradient"/>
    <linearGradient id="linear-gradient-3" x1="0.184" y1="0.252" x2="0.715" y2="0.932" gradientUnits="objectBoundingBox">
      <stop offset="0.08" stop-color="#a52c41"/>
      <stop offset="1" stop-color="#600f30"/>
    </linearGradient>
    <linearGradient id="linear-gradient-4" x1="0.369" y1="0.209" x2="0.964" y2="1.53" xlink:href="#linear-gradient"/>
  </defs>
  <g id="flow-chart" transform="translate(-235.221 -622.421)">
    <g id="flow-chart-2" data-name="flow-chart" transform="translate(235.221 622.421)">
      <g id="icons">
        <g id="flow-chart-3" data-name="flow-chart">
          <rect id="Rectangle_1967" data-name="Rectangle 1967" class="cls-1" width="56" height="56"/>
          <rect id="Rectangle_1968" data-name="Rectangle 1968" class="cls-2" width="14.152" height="7.301" transform="translate(36.62 35.866)"/>
          <rect id="Rectangle_1969" data-name="Rectangle 1969" class="cls-3" width="14.152" height="7.301" transform="translate(5.155 35.866)"/>
          <path id="Path_1220" data-name="Path 1220" class="cls-4" d="M44.759,158.517h21.9a2.261,2.261,0,0,0,2.264-2.257v-7A2.263,2.263,0,0,0,66.653,147h-21.9a2.261,2.261,0,0,0-2.264,2.257v7a2.264,2.264,0,0,0,2.264,2.257Zm24.975,6.926a3.04,3.04,0,0,1,1.145,2.409h.861a3.927,3.927,0,0,0-1.459-3.072c-1.154-.953-3.471-1.908-7.955-1.045-2.4.463-4.128.282-5.122-.539a3.685,3.685,0,0,1-1.1-3.022h-.877a3.367,3.367,0,0,1-1.258,2.629c-1.448,1.2-3.95,1.526-7.044.931-2.787-.536-4.73-.311-5.943.69a4.249,4.249,0,0,0-1.351,3.5h.86a3.468,3.468,0,0,1,1.036-2.84c.988-.814,2.748-.988,5.232-.509,4.294.826,6.584-.148,7.754-1.11a4.392,4.392,0,0,0,1.036-1.232,3.583,3.583,0,0,0,1.11,1.627c1.2.992,3.164,1.235,5.832.721C65.731,163.955,68.3,164.262,69.734,165.443Zm-21.9,4.291H32.262A2.258,2.258,0,0,0,30,171.991v7a2.263,2.263,0,0,0,2.261,2.258H47.836a2.259,2.259,0,0,0,2.261-2.257v-7a2.261,2.261,0,0,0-2.261-2.257Zm-7,7.678H34.817a.527.527,0,0,1,0-1.054H40.84a.527.527,0,0,1,0,1.054ZM44,174.626H34.817a.527.527,0,0,1,0-1.054H44a.527.527,0,1,1,0,1.054Zm35.225-4.893H63.651a2.258,2.258,0,0,0-2.261,2.257v7a2.263,2.263,0,0,0,2.261,2.258H79.225a2.253,2.253,0,0,0,.308-.021h0a2.268,2.268,0,0,0,1.954-2.237v-7A2.262,2.262,0,0,0,79.225,169.734Zm-7.448,7.678H65.755a.527.527,0,0,1,0-1.054h6.022a.527.527,0,0,1,0,1.054Zm3.161-2.785H65.755a.527.527,0,0,1,0-1.054h9.183a.527.527,0,1,1,0,1.054Z" transform="translate(-27.781 -136.125)"/>
          <path id="Path_1221" data-name="Path 1221" class="cls-5" d="M231.5,156.17h-21.9a1.5,1.5,0,0,0-.217.015,1.588,1.588,0,0,0-1.37,1.565v7a1.589,1.589,0,0,0,1.586,1.58h21.9a1.629,1.629,0,0,0,.217-.015,1.589,1.589,0,0,0,1.369-1.565v-7A1.585,1.585,0,0,0,231.5,156.17Zm-6.841,6.631a.6.6,0,0,1-.592.592H210.651a.6.6,0,0,1-.592-.592v-.015a.6.6,0,0,1,.592-.592h13.414a.6.6,0,0,1,.592.592Zm6.548-3.086a.6.6,0,0,1-.592.592H210.651a.6.6,0,0,1-.592-.592V159.7a.6.6,0,0,1,.592-.592h19.962a.6.6,0,0,1,.592.592Z" transform="translate(-192.631 -144.617)"/>
        </g>
      </g>
    </g>
  </g>
</svg>
