<?xml version="1.0" encoding="utf-8"?>
<!-- Generator: Adobe Illustrator 22.1.0, SVG Export Plug-In . SVG Version: 6.00 Build 0)  -->
<svg version="1.1" baseProfile="tiny" id="Camada_1"
	 xmlns="http://www.w3.org/2000/svg" xmlns:xlink="http://www.w3.org/1999/xlink" x="0px" y="0px" viewBox="0 0 345 288"
	 xml:space="preserve">
<path fill="#A52C41" d="M200.4,70.4c0.1-0.3,0.3-0.6,0.5-0.9c0.4,0.3,0.8,0.5,1.1,0.9c0.2-0.9,0.1-1.8,0-2.8c-0.2,0-0.4-0.1-0.6-0.2
	c-0.4-0.1-0.9-0.4-0.9-0.6c0.1-1.4-1.1-2.1-1.8-3c-0.3-0.4-0.5-0.8-0.6-1.3c-0.1-1.4-1.6-2.2-2.8-1.6c-0.4,0.2-0.8,0.3-1.1,0.4
	c-0.3-0.7-0.5-1.2-0.8-1.8c-1.2,0.8-1.2,0.8-2.7-0.5c0.9-0.3,1.6-0.5,2.4-0.7c-0.1-0.5-0.3-1.2,0.8-1.2c0-0.2,0-0.3-0.1-0.4
	c-0.4-0.4-1.2-0.8-1.3-1.3c-0.2-1.5-0.2-3.1,0-4.8c0.1,0.2,0.3,0.4,0.4,0.6c-0.1-0.3-0.2-0.5-0.2-0.8c-1.2-0.5-2.2-1.1-3.3-1.7
	c-1.4-0.5-2.9-0.7-4.5-0.4c-1.4,0.2-2.8,0.6-4.4,1c0.3,0.4,0.6,0.7,0.6,0.7c-0.4,1.7-0.8,3.2-1.2,4.8h-3.2c0,0.2,0,0.3,0,0.5
	c0.5,0.1,1.1,0.1,1.6,0.2c0.3,0,0.8,0,1,0.2c0.1,0.1,0.1,0.7,0,0.9c-0.3,0.2-0.7,0.4-1.1,0.3c-1.1-0.2-2.1-0.5-3.2-0.8
	c-0.4-0.1-0.8-0.6-1.1-0.8c-0.2,0.2-0.4,0.4-0.6,0.5c-1.1,0.2-2.3,0.3-3.4,0.4c-0.3,0-0.6-0.3-0.8-0.5c-0.3-0.3-0.6-0.6-1-0.9
	c0,0,0,0,0,0c0.5,1,0.4,1.8-0.7,2.4c0-0.6,0-1.1-0.1-1.5c-0.1,0.1-0.1,0.3-0.2,0.6c-0.1,0.3-0.2,0.6-0.4,0.8c0.2,0,0.4,0.1,0.6,0.1
	c-1.4,2.4-1.1,5.1-0.9,7.7c0.1,1.2,1.6,2.7,2.8,2.8c1.4,0.2,1.5,0.3,0.9,1.6c-0.1,0.2,0,0.5,0.1,0.6c0.1,0.1,0.5,0.1,0.6-0.1
	c0.7-0.7,1.1-0.4,1.4,0.4c0.1,0.4,0.4,0.7,0.7,1c0.9,0.9,1,1.9,0.1,3.1c-0.2-0.6-0.4-1-0.7-1.5c-0.7,0.3-0.8,0.8-0.3,1.4
	c1,1.2,1,1.3-0.4,2c1.2,0.3,1.5,1.1,1.5,2.2c0,0.6,0.4,1.2,0.6,1.8c0.1,0.1,0.2,0.3,0.2,0.4c0,0.3,0.2,0.6,0.2,0.9
	c0.1,0,0.2,0,0.4,0c0,0,0,0,0,0c-0.2-0.2-0.1-0.7-0.1-0.8c2.6,0,5,0.2,7.4-0.1c0.9-0.1,1.7-1.2,2.4-2c0.6-0.6,1.1-1.4,1.6-2.2
	c-0.8-0.4-1-1-0.1-1.9c0.3-0.3,0.4-0.9,0.6-1.3c0.1,0.5,0.2,1,0.4,1.4c0.1,0.3,0.5,0.6,0.8,1c0.3-0.9-0.3-2.3,1.3-2
	c0.7,0.1,1,0.6,1,1.3c0.2-0.1,0.4-0.3,0.6-0.4c0,0,0,0,0,0c-0.1-0.1,0-0.7,0.1-0.7c0.3-0.1,0.7-0.2,1-0.1c0.2,0.1,0.4,0.2,0.6,0.2
	c2.5-0.5,5.7,0.2,7.8-0.9C200.2,72.4,200.3,71.4,200.4,70.4z"/>
<path fill="#5B5B5B" d="M299.1,232.3c-4.3-5.9-8.2-12.1-12.9-17.6c-4.9-5.8-10.3-11-15.7-16.4c-4-4-8.3-7.9-12.4-11.8
	c-0.6-0.6-1.1-1.4-1.8-2.2c0.5-0.1,0.7-0.1,0.9-0.1c6.3-0.6,12.7-1.1,19-1.9c5.8-0.8,11.3-2.7,16.4-5.7c2.4-1.5,4.7-3.3,5.9-5.9
	c3.4-7.6,6.6-15.2,5.9-23.8c-0.4-4.7-1.4-9.2-4.1-13.2c-8.1-11.6-19.6-18.4-33.1-21.6c-14.3-3.3-28.9-4.3-43.5-5.9
	c-2.4-0.3-4.9-0.5-7.5-0.8c1-1.1,2.3-1.5,2.7-3.1c0.5-2.1,1.8-4.1,2.5-6.2c2.5-7.2,4.8-14.4,7.2-21.6c0.5-1.6,1.2-3.2,1.8-4.8
	c0.7-2.2,1.3-4.4,2-6.5c1.3-3.7,2.1-7.4,2.2-11.3c0-0.4-0.2-0.9-0.4-1.3c-0.3-0.6-0.9-1.2-1.1-1.8c-0.5-1.2-1.4-1.9-2.6-2.5
	c-1.3-0.6-2.7-1.5-3.7-2.6c-0.8-1-1.6-1.6-2.8-2c-3-0.9-5.9-1.8-8.8-2.7c-1-0.3-1.7-0.2-2.4,0.6c-0.8,0.9-2.7,0.5-2.9-0.6
	c-0.2-1.3-1.2-1.9-2.2-2.5c-0.4-0.3-0.8-0.6-1.2-0.9c-0.4,0-0.8,0.1-1.2,0.1c0-0.7,0-1.4,0-2.1c0.5,0.1,1,0.1,1.5,0.2
	c1.7-0.1,1.9-1.3,1.7-2.7c-0.1-0.4,0-0.8,0-1.2c-0.1-2.1-1.3-3.8-3.3-4.5c-0.7-0.2-1.4-0.5-2-0.8c-6.1-2.5-12.3-4.5-18.8-4.9
	c-0.7-0.1-1.8,0.2-2.2,0.7c-0.9,1-1.6,2.3-2.3,3.6c-0.2,0.3,0,1.1,0.3,1.3c0.9,0.8,0.5,1.6,0.1,2.3c-0.2,0.3-1,0.4-1.5,0.4
	c-0.5,0-1-0.4-1.5-0.3c-0.5,0-1.2,0.2-1.6,0.5c-0.4,0.4-0.7,1-1.3,0.6c-0.7-0.4-1.8-0.6-1.7-1.7c0.1-1-0.5-1.6-1.2-2
	c-1-0.4-2.1-0.8-3.2-1.1c-1.5-0.4-3-0.8-4.5-1.2c-2.3-0.7-4.6-1.3-6.5,1c-0.2,0.2-0.7,0.3-1,0.3c-2.7-0.3-5.2,0.5-7.4,1.9
	c-1.5,1-2.7,2.6-4,4c-0.5,0.5-0.9,1.3-0.8,1.9c0.1,2-0.9,3.7-1.5,5.5c-2.4,7.7-5,15.3-7.4,22.9c-0.9,2.8-1.4,5.7-2.5,8.4
	c-0.8,2-1.6,3.8-1.6,6c0,1.5-0.4,3.1-0.1,4.6c0.3,1.4,1.2,2.8,1.8,4.1c0.6,1.2,1.4,2.3,3.1,2.1c0.5-0.1,1.2,0.1,1.6,0.4
	c0.4,0.3,0.6,0.8,0.9,1.2c0.3,0.4,0.5,0.9,0.9,1.2c1,0.5,2.1,0.9,3.4,1.4c-0.7,0-1.1,0.1-1.4,0.1c-9.6-0.5-19.2-0.9-28.9-1.4
	c-2.5-0.1-5.1-0.6-7.6-1.1c-1.8-0.4-2.9-0.1-3.8,1.5c-0.6,1.2-0.9,2.5-1.4,3.7c-5.8,14.8-11.5,29.7-17.3,44.5
	c-0.1,0.4-0.6,0.6-0.9,0.9c-0.2-0.3-0.5-0.7-0.6-1c-2.6-11.4-5.3-22.9-7.8-34.3c-0.9-4.2-1.9-8.5-0.2-12.9c0.5-1.3-0.1-2.3-1.5-2.7
	c-1.3-0.3-2.8-0.5-4.1-0.4c-1.8,0.1-3.5,0.5-5.2,0.5c-7,0.2-14,0.4-21,0.5c-4.9,0-9.7-0.3-14.6-0.4c-0.8,0-1.2-0.3-1.2-1.1
	c-0.2-3.2-0.4-6.5,0.7-9.6c0.5-1.6-0.4-3.7-1.8-3.9c-2.2-0.4-3.7-0.3-4.4,2.2c-0.2,0.6-0.2,1.2-0.2,1.8c0,2.7,0,5.4,0,8.2
	c0,1.2-0.4,2.1-1.7,2.6c-0.8,0.3-1.7,0.8-2.3,1.4c-1.7,1.5-1.3,4.5,0.7,5.4c0.9,0.4,1.9,0.7,3,1c0,0.3,0,0.6,0,1
	c-0.2,10.8-0.5,21.7-0.7,32.5c-0.2,10.2-0.4,20.5-0.5,30.7c-0.1,10.8-0.2,21.5-0.3,32.3c0,3.5,0.1,7,0.3,10.4
	c0.1,1.9,1.2,2.9,3.1,2.9c0.8,0,1.5-0.1,2.3-0.1c6.9-0.4,13.8-0.9,20.7-1.1c4.6-0.2,9.2,0.1,13.8,0.1c2.6,0,4-1.5,3.6-4.1
	c-0.3-1.7-0.7-3.5-0.7-5.2c-0.1-6.5-0.1-13,0-19.4c0.1-3.1,0.5-6.3,0.7-9.4c0.1,0,0.3,0,0.4,0c0.1,0.3,0.2,0.5,0.3,0.8
	c1.9,7.8,3.9,15.6,5.7,23.5c0.8,3.4,1.2,7,1.8,10.5c0.2,1.3,0.5,2.6,1,3.8c0.6,1.5,2.2,2.6,4.4,2.1c3.1-0.7,6.2-1.1,9.3-1.5
	c5.8-0.6,11.6-0.5,17.4,0c2.1,0.2,3.3-0.3,4.2-2.8c4-10.5,7.1-21.3,9.7-32.2c0.3-1.4,0.7-2.8,1-4.2c0.1,0,0.2,0,0.3,0
	c0.2,1.2,0.4,2.5,0.5,3.7c0.7,13,1.3,26.1,1.9,39.2c0.1,1.7,0.9,2.8,2.6,3.1c1.1,0.1,2.2-0.2,3.3-0.2c7.7-0.4,15.4-0.8,23.1-1.1
	c4.6-0.2,9.3-0.2,13.9-0.3c2.7-0.1,3.8-1.4,3.4-4c-0.6-4.1-1.2-8.1-1.7-12.2c-1.6-11.9-2.4-23.9-2.5-36c-0.2-19.7-0.3-39.4-0.4-59.1
	c0-1.4,0.2-2.9,0.4-4.3c0-0.3,0.7-0.7,0.9-0.7c3.2,0.7,6.3,1.4,9.4,2.3c2.6,0.7,5.1,1.7,7.7,2.5c2.9,0.9,5.8,1.8,8.7,2.7
	c0.8,0.3,1.5,0.7,2.3,1c1.5,0.5,3,0.9,4.4,1.5c0.3,0.1,0.4,0.4,0.8,0.9c-0.7,0-1,0.1-1.4,0.1c-4.2-0.2-8.4-0.3-12.6-0.7
	c-3.7-0.3-7.1,0.4-10.3,2c-3.2,1.5-4,2.9-3.7,6.4c0,0.2,0,0.3,0,0.5c0,4.4,0.1,8.9,0,13.3c-0.1,7.7-0.1,15.4-0.3,23.1
	c-0.4,13.1-1.3,26.2-1,39.3c0.2,5.7,0.2,11.4,0.2,17c0,7.4-0.1,14.9-0.3,22.3c-0.1,2.6,1.9,4.4,4.4,4c3.1-0.4,6.2-0.9,9.3-1
	c2.9-0.1,5.9,0.2,8.8,0.3c4.1,0.2,8.3,0.3,12.3,1.8c0.3,0.1,0.8,0.1,1.2,0c1.9-0.5,2.8-1.8,3.1-3.7c1.1-8.7,2.3-17.3,3.3-26
	c0.4-3.7,0.5-7.4,0.8-11.1c0.1-0.9,0.4-1.9,0.7-2.9c3.2,3.6,6.4,6.9,9.3,10.3c4.2,4.9,8.3,9.9,12.3,14.9c3.8,4.9,7.9,9.7,10.6,15.4
	c0.4,0.9,1.2,1.6,1.9,2.3c0.5,0.5,1.2,0.9,1.9,0.9c6.2,0.6,12.4,1.2,18.6,1.7c5.3,0.4,10.6,0.4,15.9,0.8c5.3,0.4,10.6,1.1,15.6,3
	c1.8,0.7,3.3,0.1,4.7-0.8c0.8-0.5,0.9-1.3,0.4-2.1C300.8,234.7,300,233.5,299.1,232.3z M216,91.1c-0.4-0.3-0.8-0.6-1.2-1
	c0,0,0.2-0.4,0.6-0.9c0.5,0.6,0.8,1,1.1,1.4C216.5,90.6,216,91.1,216,91.1z M212.2,97c-0.5,0.1-1.4,0.6-1.4-0.3c0-0.4,0.8-1,1.3-1.4
	c0.1-0.1,0.2,0,0.3,0c0,0.1,0,0.2,0.1,0.2c0.6-0.2,1.2-0.4,1.8-0.5c0.3,0,0.6,0.1,0.9,0.2c-0.1,0.4-0.2,1-0.5,1.1
	C213.9,96.7,213,96.8,212.2,97z M213.8,98c-0.6,0.5-1.1,1-1.8,1.4c-0.1,0.1-0.5-0.3-0.8-0.4c0.4-0.5,0.7-1,1.2-1.4
	c0.3-0.2,0.8,0,1.2,0L213.8,98z M209.7,84.5c0.3-0.6,0.2-0.9-0.3-1.4c-0.3-0.3-0.3-0.9-0.3-1.4c0-0.2,0.5-0.6,0.6-0.5
	c0.4,0.2,0.7,0.5,0.9,0.8c0.3,0.6,0.4,1.3,0.7,2c0.3-0.9,0.2-1.7-0.3-2.6c-0.1-0.2-0.4-0.4-0.4-0.6c0-0.4,0.1-0.8,0.1-1.2
	c0.3,0.2,0.7,0.3,1,0.6c0.2,0.2,0.4,0.6,0.5,0.7c0.6-0.3,0.9-0.5,1.3-0.7c0.1,0.7,0.2,1.4,0.2,2.1c0,0.2-0.4,0.4-0.6,0.5
	c-0.9,0.3-0.9,0.8-0.5,1.6c0.2,0.3,0,0.9,0,1.3c-0.4-0.2-0.9-0.3-1.3-0.5c-0.3-0.1-0.7-0.3-1-0.4c0.5,1,0.9,1.7,1.3,2.7
	C210.1,87.2,209.2,85.6,209.7,84.5z M210.5,89.1c-0.2,0.1-0.5,0.2-1,0.4c-0.5-0.5-1.1-1.1-1.6-1.7c-0.3-0.4-0.5-1-0.6-1.5
	c0-0.5,0.2-0.9,0.3-1.4c0.4,0.2,1,0.4,1.2,0.7c0.4,0.7,0.5,1.5,0.8,2.3c0.1,0.2,0.2,0.4,0.4,0.5C210.2,88.7,210.4,88.9,210.5,89.1z
	 M211.3,73.8c0.1-0.3,0.4-0.6,0.6-0.9c0.2,0.3,0.5,0.5,0.5,0.8c0.1,0.4,0.2,0.9,0.2,1.4c0,0.4-0.3,0.8-0.5,1.1
	c-0.3-0.3-0.6-0.6-0.8-0.9c-0.1-0.2,0-0.5-0.1-0.8c0,0,0,0,0,0C211.3,74.3,211.2,74,211.3,73.8z M214.1,68.5c-0.9-0.9-1.1-2.2-0.6-3
	c0.6-1,0.6-2.2,1.3-3c0.8-0.8,0.8-1.7,0.2-2.6c-0.2-0.3-0.2-0.6-0.2-0.9c0-0.2,0.2-0.5,0.3-0.5c0.2-0.1,0.5,0.1,0.6,0.2
	c0.5,0.8,1,1.6,1.3,2.4c0.1,0.3-0.3,0.7-0.5,1.2c0.2,0.2,0.4,0.6,0.7,0.9c1.1,1.1,0.3,2.3,0.2,3.5c0,0.2-0.5,0.5-0.8,0.5
	c-0.2,0-0.5-0.4-0.6-0.6c-0.1-0.5-0.1-1-0.2-1.7c-0.4,0.2-1,0.4-1,0.6c0,0.5,0.2,1,0.6,1.4c1.4,1.4,1.6,2.2,0.7,3.9
	c-0.1,0.2-0.1,0.4-0.2,0.6c-0.3,1.4-0.5,2.9-0.9,4.3c-0.1,0.3-0.4,0.4-0.7,0.7c-0.1-0.3-0.4-0.5-0.4-0.8c0.2-1.6-0.6-2.9-1.2-4.2
	c-0.5-1-0.3-2,0.4-3c0.7,0.8,0.7,2,2.2,1.9C214.9,69.5,214.6,68.9,214.1,68.5z M219.1,74.8c-0.3-0.1-0.6-0.4-1-0.7
	c0.4-0.3,0.8-0.7,0.9-0.7c0.3,0.2,0.6,0.5,0.7,0.9C219.7,74.3,219.3,74.8,219.1,74.8z M220.5,79.5c0.1-0.1,0.5,0.6,0.8,0.9
	c-0.1,0.1-0.2,0.3-0.3,0.4c-0.5-0.8-1.4,1-1.8-0.3C219.2,80.3,220,79.7,220.5,79.5z M219.4,76.5c-0.1,1.4-0.5,1.3-1.3,1
	c-0.9-0.3-1.1-1-1-1.7c0-0.2,0.7-0.6,0.8-0.6C218.6,75.6,219.1,76.1,219.4,76.5z M216.1,78.9c0.4-0.4,1-1.1,1.2-1
	c0.6,0.3,1.4,0.8,1.5,1.4c0.2,0.9-0.7,0.9-1.4,1c-0.8,0.1-1.2-0.3-1-1.2C216.2,79.1,216.1,79,216.1,78.9z M213.9,85.6
	c-0.1-0.3-0.1-0.7-0.1-1.1c0.4,0.2,0.8,0.2,0.9,0.4c0.5,1.1,0.9,2.3,1.3,3.5c0,0.1-0.4,0.6-0.5,0.6c-0.3,0-0.8-0.4-0.8-0.5
	C215.2,87.3,214.4,86.5,213.9,85.6z M213.7,89.5c-0.1,0.4-0.3,0.7-0.5,1.1c0,0.1-0.2,0.1-0.3,0.1c0-0.2-0.1-0.4-0.1-0.5
	c0.1-0.4,0.2-0.7,0.3-1.1C213.4,89.2,213.7,89.4,213.7,89.5z M212,77.3c-0.1-0.2,0.3-0.5,0.4-0.8c0.3,0.6,0.6,1.1,1,1.8
	c-0.4,0.3-0.7,0.8-0.9,0.7C211.5,78.8,212.2,77.9,212,77.3z M211.4,78c-0.3,0.2-0.6,0.5-0.7,0.5c-0.3-0.2-0.5-0.5-0.7-0.7
	c0.2-0.2,0.5-0.6,0.6-0.5C210.9,77.3,211.1,77.7,211.4,78z M213.4,94.3c-0.8,0.2-1.3-0.3-1.7-1c-0.6-1.3-0.2-2.2,1.2-2.6
	c0.1,0.2,0.1,0.4,0.2,0.6c0.1,0.4,0.3,0.8,0.4,1.1c0.4-0.2,0.7-0.5,1.3-0.8c0.2,0.2,0.6,0.5,0.9,0.8c0.1,0.2,0.2,0.7,0.1,0.7
	C215,93.7,214.2,94.1,213.4,94.3z M218.7,90.5c-0.1,0.3-0.3,0.6-0.5,0.8c-0.2-0.2-0.5-0.4-0.7-0.7c-0.2-0.4-0.5-0.9-0.5-1.4
	c0-0.5,0.3-1,0.4-1.5c0.4,0.3,0.9,0.5,1.2,0.9c0.2,0.3,0.1,0.8,0.1,0.8C218.7,90.1,218.8,90.3,218.7,90.5z M222,84.2
	c-0.2,0.2-1,0-1.6,0c0-0.1,0-0.3,0-0.4c-0.3,0.2-0.5,0.4-0.9,0.6c-0.3-0.2-0.5-0.5-0.7-0.7c-0.1,0.1-0.2,0.1-0.3,0.2
	c0.2,0.5,0.5,0.9,0.7,1.4c0.2,0.5,0.3,1.1,0.4,1.7c-0.5,0.1-1.1,0.4-1.6,0.2c-1.9-0.5-3.1-3.7-2-5.4c0.1-0.2,0.5-0.4,0.7-0.4
	c0.5,0.2,0.9,0.5,1.3,0.9c0.2,0.2,0.2,0.6,0.3,0.9c0.9-0.8,1.8-1.4,2.9-0.9C221.9,82.9,222.6,83.4,222,84.2z M224.8,74.5
	c-0.2,0.5-0.5,1-0.8,1.3c-0.1,0.1-0.7-0.3-1.1-0.4c-0.2-0.1-0.4-0.2-0.8-0.1c0.2,0.3,0.3,0.7,0.6,0.7c1.1,0.2,1.3,1.1,1.2,1.9
	c-0.1,1-0.4,2-0.6,3.1l-0.6,0.3c-0.1-0.3-0.2-0.5-0.3-0.8c-0.2-1.2-0.3-2.3-0.6-3.5c-0.5-2.1,0.3-3.9,0.6-5.9
	c0.2-0.9-0.4-1.4-1.4-1.6c0,0.8,0.9,1.6-0.3,2.4c-0.1-0.5-0.2-0.9-0.3-1.2c-0.1-0.4-0.3-0.7-0.4-1.1c-0.1-0.4-0.2-0.9-0.3-1.3
	c0.4,0,0.8-0.1,1.3-0.2c-0.3-0.3-0.6-0.6-0.8-1c-0.2-0.5-0.3-1.1-0.4-1.6c0.5,0.1,0.9,0.2,1.4,0.3c0.5,1,1.1,2,1.5,2.8
	c0.6-0.1,1-0.2,1.4-0.3c-0.1,0.5-0.3,0.9-0.5,1.6c0.2,0.2,0.7,0.7,0.9,1.2c0.3,0.7,0.3,1.5,0.3,2.2C224.9,73.8,225,74.2,224.8,74.5z
	 M227.2,65.7c-0.2-0.2-0.5-0.4-0.5-0.7c0-0.2,0.3-0.5,0.4-0.7c0.2,0.2,0.5,0.4,0.8,0.8C227.6,65.4,227.4,65.6,227.2,65.7z
	 M229.8,58.6c-0.1,0.1-0.5,0.1-0.8,0.1c0-0.2,0-0.5,0.1-0.7c0.1-0.6,0.2-1.2,0.3-1.8c0.1-0.4,0.3-0.8,0.5-1.2
	c0.4,0.4,0.9,0.7,1.3,1.1C230.7,57,230.3,57.8,229.8,58.6z M226,48.6c-0.1-0.3-0.2-0.6-0.3-0.9c0.3-0.1,0.7-0.3,1-0.3
	c0.7,0.2,1.5,0.6,2.1,1c0.2,0.1,0.1,0.9-0.1,1.2c-0.4,0.6-0.6,1,0.4,1.2c0.9,0.2,1.9,2.1,1.7,3.3c-0.5-0.5-1-0.8-1.4-1.2
	c-0.7-0.7-1.1-1.7-2.4-1c-0.2,0.1-0.8-0.3-1.2-0.6c-0.8-0.6-1.1-1.4-1.1-2.6c0.7,0.5,1.2,0.9,1.6,1.3l0.3-0.2
	C226.5,49.4,226.2,49,226,48.6z M224.6,52.4c0.1-0.2,0.3-0.4,0.5-0.6c0.2,0.2,0.3,0.4,0.5,0.5c0.3,0.4,0.7,0.7,1,1.1
	c0.2-0.3,0.5-0.6,0.7-0.9c0.1-0.1,0.4-0.3,0.5-0.3c0.2,0.1,0.5,0.4,0.5,0.5c0,0.3-0.1,0.7-0.3,0.9c-0.3,0.3-0.7,0.5-1,0.7
	c0.5,0.9,2.1,0.9,1.5,2.2c-0.2,0.4-0.9,0.5-1.3,0.7c0.2,0.3,0.5,0.8,0.9,1.3c-1.2,0.4-2-0.3-2.6-0.9c-0.1-0.1,0.5-1,0.7-1.4
	c-0.6-1.1-1.1-2.1-1.6-3.2C224.5,53,224.5,52.7,224.6,52.4z M206.2,41.8c0.4,0,0.9,0.1,1.1,0.3c1,1.7,2.7,1,4.1,1.4
	c0.4,0.1,0.8,0.1,1.1,0.3c1.4,0.7,2.3,2,3.3,3.1c0.3,0.4,0.8,0.6,1.2,0.9c0.1-0.1,0.2-0.3,0.3-0.4c-0.5-0.4-1-0.8-1.5-1.2
	c-0.2-0.2-0.5-0.3-0.5-0.5c-0.1-0.4-0.2-0.9-0.2-1.4c0.4,0.1,1,0.2,1.3,0.4c0.7,0.6,1.2,1.4,1.7,2c1.5-0.2,2.9-0.4,4.3-0.6
	c0,0.1,0.1,0.2,0.1,0.3c-0.3,0.2-0.5,0.4-0.7,0.5c0.2,1.4,2.2,2.2,1.7,3.9c-0.1,0.1-0.3,0.2-0.4,0.3c-0.4-0.4-1.1-0.8-1.1-1.3
	c-0.2-1.6-1.4-1.7-2.5-2c0.1,1.2,0.1,1.2-1.9,0.4c-0.1,1.3,1.7,2.3,0.8,3.5c0.9,0.4,1.8,0.8,2.6,1.1c0.1-0.1,0.2-0.1,0.3-0.2
	c-0.2-0.4-0.4-0.8-0.6-1.2c-0.1-0.3,0-0.6,0-0.9c0.3,0.1,0.6,0.1,0.8,0.3c0.6,0.6,1.2,1.3,1.7,2c0.3,0.6,0.4,1.3,0.7,2.1
	c-0.7-0.2-1-0.2-1.3-0.3c0.2,1.1,0.4,2.2,0.7,3.6c0.1-0.9,0.2-1.6,0.3-2.5c1.4,1.2,1.4,2.3,0.5,3.3c-0.4,0.4-0.6,1.1-1,1.7
	c0.2,0.3,0.5,0.6,0.8,0.9c0,0,0.1,0,0.2-0.1c0.2-0.3,0.5-0.7,0.7-1c0.2,0.5,0.7,1.1,0.6,1.4c-0.6,0.9-0.3,1.5,0.2,2.2
	c0.2,0.2,0,0.6,0,1.1c-0.7-0.5-1.2-0.8-2-1.3c0.1,1.4,2.4,1.4,1.5,3c-1.2-0.4-2.4-0.8-3.6-1.3c-0.6-1.1-0.5-2.2-0.2-3.3
	c0.1-0.4,0.7-0.6,1.2-1c0,0.1,0-0.2-0.1-0.3c-0.9-0.5-1.4-1-0.9-2.1c0.1-0.1-0.2-0.5-0.4-0.6c-0.4-0.2-0.9-0.2-1.4-0.4
	c0,0.7,0,1.6,0,2.5c0,0.3-0.3,0.6-0.5,0.9c-0.2-0.3-0.6-0.5-0.7-0.8c-0.5-2.1-0.9-4.3-1.4-6.4c0-0.2-0.1-0.4-0.2-0.5
	c-1.6-1.1-1.1-3.1-2-4.4c-0.7,0.7-0.7,0.8-0.2,1.8c0.7,1.5,1,2.9,0.4,4.5c-0.2,0-0.5-0.1-1-0.2c0,1.4,0,2.7,0,4.1
	c0,0.3-0.1,0.6-0.3,0.8c-0.7,0.8-1.3,1.6-1.1,2.7c0,0.2-0.3,0.4-0.4,0.7c-0.2-0.2-0.5-0.3-0.7-0.5c-0.2-0.2-0.3-0.5-0.3-0.8
	c-0.2-1.5-0.3-3-0.5-4.4c-0.1-0.4-0.4-0.8-0.4-1.2c-0.1-0.8,0-1.5,0-2.3c0.5,0.2,1.1,0.5,1.4,0.6c-0.6-1.2-1.3-2.5-2-3.9
	c-0.8-1.6-0.7-1.7,1-1.9c-1-1.3-1.9-2.6-2.9-3.9c-0.1,0-0.1,0-0.2,0c0.2,0.8,0.4,1.7,0.6,2.6c-1.5-0.6-4.1-4.5-4.1-6
	c0.6,0.5,1.2,1,1.8,1.4c0.1,0,0.1-0.1,0.2-0.1c-0.1-0.3-0.2-0.5-0.4-0.8c-0.1-0.3-0.2-0.5-0.4-0.8C205.5,42,205.9,41.8,206.2,41.8z
	 M207,31c0,0.4-0.1,0.8-0.2,1.2c-0.4-0.1-0.8-0.2-1.2-0.4c-1.1-0.7-1.3-1-0.9-1.8c-0.6-0.6-1.1-1.1-1.8-1.8
	C205,28.3,206.9,29.6,207,31z M201.4,44.1c0.1,0.2-0.2,0.6-0.3,0.9c-0.3-0.1-0.7-0.1-0.8-0.3c-1-1.5-1.9-3.1-2.8-4.7
	c-0.1-0.2,0.1-0.6,0.1-0.9c0.3,0.1,0.7,0.2,0.8,0.4c0.3,0.4,0.6,0.8,0.9,1.3c0.2-0.5,0.4-0.8,0.6-1.1c0,0,0.6,0.1,0.6,0.2
	c0,0.5,0,1.1-0.1,1.7C200.7,42.4,201.1,43.3,201.4,44.1z M199.7,45c1.3,2,2.6,4,3.8,6c0.2,0.3,0.2,0.8,0.2,1.2c-2.6-2-5-4.1-5-7.6
	C199.1,44.7,199.6,44.8,199.7,45z M199.4,36c-0.2,0.3-1.1,0.4-1.5,0.3c-2.7-0.9-5.4-1.9-8.2-2.8c-0.5-0.2-1-0.2-1.5-0.4
	c-0.3-0.1-0.8-0.3-0.9-0.5c-0.3-1.2-1.2-1.8-2-2.6c-0.9-0.9-0.2-2.7,1-3c0.2-0.1,0.6-0.2,0.7-0.4c0.8-1.3,2.1-1.4,3.3-1.1
	c2.2,0.6,4.2,1.4,6.4,2.1c0.9,0.3,1.8,0.7,2.7,0.9c1.2,0.2,1.9,0.9,2.2,2c0.1,0.6,0.6,1.1,0.8,1.6c0.3,0.8,0.7,1.7,0.7,2.5
	c0,0.3-1.1,0.6-1.7,0.9C200.5,35.1,199.9,35.2,199.4,36z M184.8,35c0.4,0.5,0.8,1.1,1.2,1.7c0.1,0.1-0.1,0.5-0.3,0.6
	c-0.1,0.1-0.5,0-0.6-0.2c-0.4-0.5-0.7-1.1-1-1.7C184.4,35.3,184.6,35.1,184.8,35z M183.6,29.2c-0.3-0.2-0.6-0.4-1.1-0.7
	c0.6-0.7,1-1.3,1.5-1.8c0.2,0.2,0.7,0.5,0.7,0.6C184.3,28,184,28.6,183.6,29.2z M182.1,23.2c0.7-1.4,2-2.1,3.6-2
	c1.8,0.1,3.6,0.2,5.4,0.5c0.7,0.1,1.4,0.6,2,0.9c0.2,0.1,0.5,0.3,0.7,0.4c1.6,0.3,3.1,0.5,4.7,0.9c1.5,0.3,2.9,0.8,3.9,2
	c0.1,0.2,0.1,0.5,0.2,0.7c-0.3,0-0.5,0.2-0.8,0.1c-0.4-0.1-0.9-0.3-1.1-0.6c-1.2-1.3-2.7-1.4-4.4-1.3c-0.5,0-1.1-0.2-1.6-0.4
	c-2.3-0.6-4.5-1.5-7-0.8c-0.9,0.2-2-0.4-2.9-0.6c-0.4,0.6-0.6,1.2-1,1.6c-0.3,0.2-1.1,0.2-1.5,0C182.1,24.4,181.9,23.5,182.1,23.2z
	 M152.5,28.2c0.1-0.2,0.7-0.3,1-0.2c0.3,0.1,0.6,0.6,0.5,0.9c-0.3,1.8,0.5,3.2,1.7,4.5c0.3,0.3,0.4,0.7,0.6,1
	c-0.1,0.1-0.2,0.2-0.3,0.3c-0.3-0.1-0.7-0.1-0.8-0.3c-0.9-1.4-2.3-2.5-2.2-4.3c0-0.2-0.3-0.4-0.4-0.7
	C152.5,29,152.4,28.5,152.5,28.2z M157.5,39c0.3,0.1,0.7,0,1.1,0.1c0.4,0.1,1,0.2,1.1,0.5c0.1,0.3-0.2,0.8-0.3,1.2
	c-0.4-0.1-0.7-0.3-1.2-0.5c0.1,0.4,0.3,0.9,0.3,1.2c0,0.8-0.2,1.5-0.4,2.3c-0.4-0.1-1.1-0.1-1.3-0.3c-1-1.4-1.9-3-2.8-4.5
	c-0.1-0.2-0.1-0.6-0.2-0.9c0.1-0.1,0.2-0.2,0.3-0.3c0.7,0.7,1.3,1.4,2,2.1c-0.2-0.7-0.3-1.3-0.5-1.8c-0.1-0.3-0.4-0.5-0.7-0.7
	c-0.8-0.6-1.3-1.3-1.1-2.6c0.7,0.5,1.2,0.8,1.7,1.2c0.7-0.7,1.3-0.6,2,0.1c0.2,0.3,0.8,0.2,1.2,0.4c0.5,0.3,0.9,0.7,1.4,1
	c-0.4,0.2-0.7,0.4-1.1,0.5c-0.5,0.1-1,0-1.6,0c-0.2,0-0.4,0.3-0.6,0.4C157.1,38.6,157.3,38.9,157.5,39z M156.7,48.9
	c0,0.1-0.5,0.3-0.6,0.3c-0.5-0.5-1-1.1-1.7-1.9c-2.1-0.5-2.6-2.2-0.9-4.2c0.4,0.5,0.7,0.9,1.1,1.4c0.1-0.1,0.2-0.1,0.3-0.2
	c-0.4-1.1-0.8-2.2-1.3-3.4c0.2-0.1,0.3-0.2,0.5-0.3c0.7,0.9,1.3,1.9,2,2.8c0.2,0.2,0.3,0.5,0.5,0.7c1.4,1.6,1.3,1.9-0.1,2.8
	C156.6,47.7,156.7,48.3,156.7,48.9z M157.4,54c0.4,0.3,0.9,0.7,1.3,1.1c0.7,1,1.4,2.1,2.2,3.4c-1.7,0.3-1.8-1-2.4-1.5
	c-0.7-0.7-1.2-1.6-1.8-2.5c-0.1-0.2,0-0.5,0-0.7C157,53.8,157.2,53.8,157.4,54z M150.3,63.4c0.2,0.2,0.1,0.7,0.1,1.1
	c-0.4-0.1-0.7-0.2-1.1-0.4c-0.2-0.1-0.3-0.4-0.4-0.6c-1.1-1.4-1.1-1.3,0.5-1.8c0.1,0,0.1-0.2,0.3-0.4c-0.8-0.5-2-0.7-1.6-2
	c0.1-0.3,0.8-0.3,1.4-0.6c0-0.3,0-1,0-1.6c0-0.2,0.3-0.4,0.5-0.5c0,0,0.4,0.2,0.4,0.4c-0.2,1.6,1.3,2.3,1.9,3.4
	c0.4,0.8,0.3,2.5-0.5,2.9c-0.2,0.1-0.7-0.1-0.8-0.3c-0.2-0.2-0.2-0.6-0.3-1.1C150.1,62.4,149.6,62.7,150.3,63.4z M152.4,58.6
	c-0.9-1.3-1.8-2.6-2.7-3.9c-0.2-0.3-0.2-0.8-0.2-1.1c0-0.2,0.2-0.5,0.4-0.5c0.2,0,0.4,0.1,0.6,0.3c0.3,0.3,0.5,0.7,0.8,1.2
	c0.4-1,0.4-1.6-0.4-2c-0.3-0.1-0.5-0.4-0.6-0.7c-0.1-0.2,0.1-0.6,0.2-0.8c0.2,0.1,0.6,0.1,0.7,0.2c0.8,1.1,1.5,2.3,2.3,3.4
	c0.3,0.4,0.6,0.7,0.9,1.1c0.4,0.5,0.5,0.9-0.2,1.3c-0.2,0.1-0.3,0.7-0.4,1c-0.1,0.3-0.2,0.7-0.3,1C153,58.8,152.6,58.8,152.4,58.6z
	 M152.4,51.8c-0.3-0.4-0.7-0.7-0.9-1.1c-0.3-0.6-0.5-1.2-0.6-1.8c0-0.2,0.2-0.6,0.5-0.7c0.1-0.1,0.5,0.1,0.7,0.3c1,1.5,2,3,3,4.5
	c0.2,0.4,0.2,0.9,0.3,1.4c-0.2,0.1-0.3,0.1-0.5,0.2C154,53.7,153.2,52.7,152.4,51.8z M153,48.8c0.1-0.2,0.7-0.5,0.8-0.4
	c0.7,0.3,1.7,2.6,1.6,3.5C154.8,51.8,152.8,49.2,153,48.8z M152.5,34.8c0.6,0.4,1,1,0.6,1.7c-0.2,0.1-0.3,0.2-0.5,0.2
	c-0.3-0.6-0.7-1.1-1-1.7C152,34.9,152.4,34.6,152.5,34.8z M152.1,31.7c0.5,0.7,1.5,1.2,1,2.6c-0.5-0.4-1-0.8-1.3-1.3
	C151.6,32.7,152,32.1,152.1,31.7z M151.3,30c0.4,0.2,0.6,0.6,0.8,1c0.1,0.2,0,0.5-0.1,0.7c-0.3-0.1-0.8-0.1-1-0.4
	c-0.3-0.3-0.5-0.7-0.7-1.1C150.7,30.2,151.1,29.9,151.3,30z M149.5,30.5c0.6,1,1.1,1.8,1.6,2.6c0.1,0.1,0,0.5-0.1,0.5
	c-0.3,0.1-0.6,0.2-0.9,0.1C149.3,33.5,148.8,31.6,149.5,30.5z M149.5,34.2c0.4,0.3,0.7,0.7,1,1.1c0.1,0.1-0.2,0.4-0.5,0.8
	c-0.4-0.6-0.7-1-1-1.4C149,34.6,149.5,34.2,149.5,34.2z M147.4,37c0-0.4,0.4-0.8,0.5-1.3c0.4,0.4,0.9,0.8,1.2,1.3
	c0.2,0.3,0.1,0.8,0.1,1.3c0.7,0,1.3,0,1.8,0c0.2,0,0.4-0.2,0.5-0.2c0.3-0.1,0.7-0.1,1-0.2c0,0.4,0.1,1.1-0.1,1.2
	c-0.9,0.4-1.1,0.9-0.6,1.8c0.3,0.7-0.1,1.3-0.8,1.3c-0.5,0-1.1-0.4-1.3-0.8c-0.4-0.6-0.5-1.3-0.8-2c-0.1-0.2-0.3-0.5-0.4-0.5
	C147.2,38.9,147.3,37.9,147.4,37z M149.8,43.1c0.1,0.1-0.3,0.4-0.5,0.8c-0.4-0.4-0.7-0.7-1-0.9c0.2-0.2,0.5-0.7,0.7-0.6
	C149.3,42.5,149.6,42.8,149.8,43.1z M146.8,30.4c0.2,2-0.3,3.1-1.4,3.6C144.9,32.6,145.8,31.6,146.8,30.4z M146.7,38.2
	c-0.1,0.1-0.2,0.2-0.3,0.3c-0.4-0.5-0.8-1.1-1.1-1.6c-0.1-0.1,0.2-0.4,0.3-0.7c0.2,0.2,0.6,0.3,0.7,0.5
	C146.5,37.1,146.6,37.7,146.7,38.2z M144.7,38.5c0.4,0.3,0.9,0.6,1,0.9c0.1,0.9,0.4,1.6,1.3,2c0.1,0.1,0.2,0.3,0.2,0.5
	c0.1,1.2,0.9,1.8,1.7,2.6c0.5,0.5,0.9,1.1,1.4,1.7c-0.3,0.4-0.4,0.7-0.6,0.8c-0.2,0.1-0.6-0.1-0.7-0.3c-1.1-1.5-2.4-3-3.3-4.6
	c-0.4-0.7-0.8-1.4-1.3-2.1c-0.2-0.3-0.3-0.9-0.3-1.3C144.1,38.7,144.6,38.4,144.7,38.5z M143.6,41.1c0.3,0.1,0.6,0.2,0.8,0.4
	c0.9,1.3,1.9,2.6,2.8,3.9c0.6,0.9,1.3,1.9,1.8,2.9c0.2,0.3,0.2,0.7,0.1,1c-0.1,0.6-0.3,1.3-0.4,1.9c-0.1,0.2-0.2,0.7-0.3,0.7
	c-0.3,0-0.6-0.1-0.8-0.3c-1.1-1.8-2.2-3.6-3.3-5.4c-0.3-0.3-0.8-0.5-0.8-0.9c-0.2-1.1-0.2-2.3-0.2-3.4
	C143.2,41.7,143.5,41.4,143.6,41.1z M142.2,50.4c0.8-0.3,1.6-0.8,2.3-1.6c0.7,1.4,2.7,1.9,2.1,3.4c0.6,0.6,1.2,1,1.2,1.4
	c0,0.5-0.5,1-0.8,1.6c-0.6-0.4-1.2-0.8-1.7-1.3c-0.5-0.6-0.8-1.3-1.2-1.9c-0.1,0.1-0.3,0.2-0.4,0.3c0.2,0.4,0.5,0.8,0.7,1.3
	c-0.3,0.7-1.5,1.2-0.5,2.3c-1,0.4-1.5,0-1.7-0.7c-0.2-0.8,0-1.7-1-2.2C140.5,52.7,141.5,50.7,142.2,50.4z M146.5,56.2
	c-0.1,0.1-0.1,0.3-0.2,0.4c-0.5-0.2-1-0.4-1.5-0.7c-0.1-0.1,0-0.5,0.1-0.7c0.1-0.1,0.5-0.1,0.6,0C145.9,55.5,146.2,55.9,146.5,56.2z
	 M139.8,55c0.1-0.3,0.6-0.5,0.9-0.8c0.2,0.3,0.4,0.6,0.7,1c-0.5,1-0.9,2-1.3,3c-0.1,0.1-0.5,0.2-0.6,0.1c-0.2-0.2-0.3-0.5-0.3-0.7
	C139.3,56.7,139.5,55.8,139.8,55z M138.7,63.8c0.5,0.5,1,1,1.5,1.5c0,0-0.4,0.4-0.6,0.7c-0.5-0.5-0.9-0.9-1.5-1.4
	C138.4,64.1,138.6,64,138.7,63.8z M140.5,78.3c-0.4-0.5-0.8-0.9-1.2-1.4c-0.3-0.3-0.7-0.5-0.8-0.9c-0.1-0.5,0.1-1,0.2-1.6
	c0.4,0.2,0.8,0.4,1.1,0.7c0.2,0.2,0.3,0.6,0.5,0.8c0.5,0.7,1,1.5,2.2,1.2c0.8-0.2,1.4,0.1,1.5,1.2c-1,0.2-1.5,0.5-0.4,1.4
	c0.4,0.3,0.6,1.1,0.9,1.6c0.4-0.5,0.7-0.7,0.9-1c0.3,0.3,0.6,0.7,0.8,1c0.3,0.5,0.6,1.1,1,1.5c0.3,0.4,0.7,0.7,1,1.1
	c-0.1,0.1-0.1,0.2-0.2,0.3c-0.3-0.1-0.5-0.2-0.8-0.2c-0.8-0.3-1.6-0.5-2.4-0.8c-0.3-0.1-0.6-0.2-0.8-0.4
	C142.8,81.3,141.7,79.8,140.5,78.3z M144.9,76.9c0.3,0.2,0.6,0.4,0.9,0.7c0.3,0.4,0.5,0.9,0.8,1.3c-0.1,0.3-0.2,0.5-0.4,0.6
	c-0.2,0.1-0.5,0-0.6-0.1c-0.4-0.3-0.8-0.7-0.9-1.2C144.5,77.9,144.8,77.4,144.9,76.9z M158,204.6c-1.7,0.3-3.5,0.7-5.2,0.8
	c-8,0.2-15.9,0.2-23.9,0.3c-0.2,0-0.4,0-0.6,0c-2.7-0.1-2.6-0.2-2.8-2.8c-1-13.2-2-26.5-3-39.7c-0.2-2.8-0.5-5.7-1-8.4
	c-0.2-1.3-1-2.5-1.7-4.1c0.7-0.7,1.7-1.6,2.7-2.6c6.3-5.7,12.6-11.2,18.8-17c4.8-4.5,9.2-9.4,13.8-14.2c0.4-0.4,0.8-0.8,0.9-1.2
	c0.1-0.5-0.1-1.1-0.2-1.7c-0.5,0.1-1.1,0.2-1.6,0.4c-0.3,0.1-0.5,0.5-0.7,0.8c-4.7,6.9-10.5,12.8-16.8,18.2
	c-15.6,13.2-31.3,26.2-46.9,39.3c-3.8,3.2-7.3,6.6-10.9,9.9c-0.4,0.4-0.8,0.8-1.1,1.3c-0.2,0.4-0.3,1-0.4,1.5
	c0.6-0.1,1.4,0.1,1.8-0.3c1.3-1.1,2.6-2.4,3.8-3.6c1.8-1.8,3.6-3.6,5.5-5.3c7.9-6.5,15.8-13,23.7-19.5c0.3-0.2,0.6-0.4,1.3-0.9
	c-0.6,2.5-1,4.7-1.6,6.8c-2.6,9.4-5.2,18.9-7.9,28.3c-0.7,2.3-1.8,4.4-2.8,6.6c-0.5,1.1-1.3,1.6-2.4,1.7c-4.2,0.3-8.4,0.7-12.7,0.9
	c-2.7,0.1-5.4,0-8,0.1c-1.1,0-1.7-0.4-2-1.3c-0.9-2.9-1.8-5.7-2.5-8.6c-0.5-2-0.8-4-1.3-6c-0.3-1.1,0.1-2,0.9-2.8
	c7.5-7.2,15-14.3,22.4-21.5c9.1-8.8,19.3-16.5,28.9-24.6c7.9-6.6,15.6-13.4,22.7-20.8c1.3-1.3,2.3-3,3.3-4.5
	c0.3-0.5,0.3-1.1,0.5-1.7c-1.4-0.3-3,0.5-3.4,1.8c-0.9,2.9-3,5-5,7.1c-6.4,6.6-13.7,12.2-20.8,18.1c-6.9,5.8-13.9,11.5-20.8,17.4
	c-3.9,3.4-7.4,7.2-11.2,10.7c-5.5,5.2-11.1,10.2-16.7,15.3c-0.5,0.4-1.1,0.8-1.8,1.3c-0.6-2.2-1.2-4.2-1.7-6.2
	c-1.4-5.7-2.8-11.3-4.1-17c-0.8-3.4,0.4-6,3.5-7.7c1.4-0.8,2.6-1.8,3.9-2.8c0.5-0.4,0.8-1,1-1.6c0.1-0.4-0.2-0.9-0.4-1.3
	c-0.4,0.1-0.8,0.2-1.1,0.4c-2.5,2-4.9,4-7.3,6c-1.1,0.9-2.3,1.5-3.8,1.3c-0.5-0.1-1,0.1-1.4,0.2c-3.2,0.7-3.6,1.4-3.4,4.7
	c0.1,2.4-0.2,4.8-0.5,7.2c-1.3,9.4-1.6,18.9-1.3,28.3c0,1.6-0.1,3.3-0.1,4.9c0,0.9-0.6,1.2-1.4,1.3c-2.5,0.2-5,0.6-7.5,0.8
	c-6.4,0.4-12.8,0.7-19.3,1.1c-1.8,0.1-2.3-0.2-2.7-2c-0.4-2-0.8-4.1-0.8-6.2c0-10.2,0.2-20.5,0.3-30.7c0.1-5.1,0.1-10.2,0.2-15.2
	c0.3-12.5,0.5-24.9,0.8-37.4c0.1-4.1,0.3-8.2,0.5-12.3c0.1-1.8,0.1-1.9,1.9-2c4-0.2,8.1-0.4,12.1-0.5c8.1-0.2,16.2-0.2,24.2-0.4
	c1.3,0,2.2,0.5,2.5,1.6c0.7,2.7,1.4,5.5,1.8,8.3c0.2,1.1-0.5,2.2-1.7,2.7c-0.3,0.1-0.5,0.4-0.7,0.6c-2.2,4.5-5.8,7.9-9.1,11.5
	c-7.7,8.4-15.4,16.9-23,25.5c-2.3,2.6-4.4,5.4-6.5,8.1c-0.3,0.4-0.6,0.8-0.9,1.3c0.8,0.9,1.6,0.7,2.1,0c7.4-9.8,15.7-18.8,23.8-27.9
	c4.6-5.2,9.4-10.3,14.1-15.4c0.7-0.7,1.3-1.5,2.1-2.5c0.4,0.7,1,1.2,1.1,1.9c2.6,12.1,5.2,24.2,7.7,36.3c0.2,1.1,0,2.3,0,3.5
	c-0.1,1.5,1.1,3.3,2.6,3.5c1.8,0.3,3.4,0,4.8-1.3c11.3-10.5,22.5-21,33.8-31.4c5.6-5.1,11.4-10,17.2-15c1.6-1.4,3.4-2.6,5-3.9
	c0.5-0.5,1.6-1.1,0.9-1.9c-0.8-0.9-1.6-0.1-2.2,0.4c-5.8,5.1-11.7,10-17.4,15.2c-10.5,9.5-20.8,19.2-31.2,28.8
	c-1.4,1.3-3,2.5-4.5,3.7c-0.1-0.1-0.2-0.2-0.3-0.2c0.2-0.7,0.4-1.3,0.7-2c5.3-13.7,10.7-27.4,16.1-41.2c0.7-1.8,1.3-3.6,2-5.4
	c0.3-0.8,0.8-1.6,1.2-2.3c1-1.6,2.3-2.5,4.3-2.3c13.4,0.9,26.9,1.7,40.3,2.5c1.1,0.1,2.1,0.3,3.2,0.4c2,0.3,2.5,0.6,2.8,2.7
	c0.4,3.8,0.9,7.6,0.9,11.3c0,10.2-0.2,20.5-0.3,30.7c-0.1,7.9-0.5,15.8-0.3,23.6c0.2,7.9,1.1,15.7,1.7,23.6c0.4,5,0.9,9.9,1.5,14.9
	C159.4,204,158.8,204.4,158,204.6z M164.2,88.3c-2.3-0.3-2.9-1-2.4-2.4C163.8,86.3,164.3,86.8,164.2,88.3z M166.3,88.8
	c-0.3-0.1-0.6-0.4-0.9-0.7c0.3-0.3,0.5-0.8,0.8-0.8c0.4,0,0.7,0.4,1.3,0.9C167,88.5,166.6,88.8,166.3,88.8z M174.4,90.6
	c0.8,0.4,1.4,0.7,2.1,1C175.1,92.5,174.5,92.2,174.4,90.6z M191.5,96.5c0.6-0.2,0.9-0.3,1.3-0.4c-0.1-0.1-0.2-0.2-0.2-0.4
	c-0.2,0-0.5,0-0.6-0.1c-0.2-0.2-0.4-0.5-0.6-0.8c0.6-0.3,1.2-0.7,1.8-1c0.2,0.4,0.7,0.9,0.7,1.3C193.8,96.2,192.8,97,191.5,96.5z
	 M193.7,92.8c-0.3-0.5-0.5-0.9-0.8-1.4c-0.2,0.1-0.6,0.3-1,0.5c0.3,0.1,0.7,0.2,0.8,0.4c0.1,0.4,0.1,0.8,0.1,1.2c-0.4,0-0.8,0.1-1,0
	c-0.6-0.3-1.1-0.8-1.6-1.2c-0.2-0.1-0.4-0.3-0.8-0.7c0,0.5,0,0.8,0.1,1.1c0.1,0.2,0.4,0.3,0.4,0.6c0.1,0.6,0.2,1.1,0.2,1.7
	c0,0.1-0.4,0.2-0.7,0.3c-0.2-0.5-0.4-1-0.6-1.5c-0.8-2.1-0.7-4.4-2.1-6.3c0,0-0.1-0.1-0.1-0.1c0.1-0.9-0.1-1.7-0.5-2.4
	c-0.6,0.2-1.2,0.3-1.9,0.4c-0.1,0-0.3,0-0.4,0.1c0.1,0.1,0.2,0.2,0.2,0.3c0.3,0.4,0.8,0.8,0.9,1.2c0.3,1.1,0.4,2.2,1.8,2.6
	c0.2,0.1,0.4,0.6,0.3,0.9c-0.1,0.2-0.5,0.4-0.8,0.5c-0.7,0.1-1.6,0.3-2.2,0.1c-0.6-0.2-1-0.9-1.6-1.4c0.6-0.5,1-0.9,1.4-1.2
	c-0.2-1.3-0.8-2.2-1.7-2.8c-0.8,0.1-1.6,0.2-2.3,0.3c0.8,1,1.7,2.1,1.3,3.6c0,0.1,0.1,0.2,0.2,0.3c1.2,1.2,1.3,2.4,0,3.9
	c-1.1-0.7-1.1-2.1-1.7-3.2c-1,0.6-1.8,0.8-2-0.8c-0.1-0.5-0.7-1-1.1-1.6c-0.2,0.2-0.4,0.3-0.6,0.4c-0.8,0.5-1.3,0.3-1.6-0.6
	c-0.1-0.5-0.3-1-0.4-1.4c-0.5,0.1-1,0.1-1.6-0.1c-0.3-0.1-0.5-0.2-0.8-0.3c0,0.8,0.2,1.5,1,2.1c0,0-0.2,0.7-0.3,0.7
	c-0.4,0-1,0-1.2-0.2c-0.4-0.6-0.8-1.3-1-2c-0.2-0.9-0.5-0.9-1.3-0.4c0.3,0.9,0.6,1.7,0.9,2.6c0.1,0.2-0.1,0.5-0.1,0.7
	c-0.4-0.1-1.1-0.2-1.1-0.3c-0.1-1.1-1.4-1.8-0.8-3.2c0.2-0.4-0.6-1.3-0.9-1.9c-0.1,0-0.3,0-0.4,0.1c0,0.5,0.1,1,0.1,1.5
	c0,0.3-0.2,0.7-0.3,1c-0.3-0.2-0.8-0.3-0.9-0.6c-0.7-1.2-1.4-2.4-2-3.7c-0.2-0.3-0.1-0.8-0.2-1.5c-0.3,0.6-0.7,1.1-0.7,1.5
	c0.3,1.4-0.4,1.7-1.7,1.7c-0.4-1.7-2.1-1.7-3.4-1.8c-2.5-0.2-3.6-2-5-4.1c-0.2,0.5-0.3,0.8-0.4,1.1c0,0.4,0,0.7,0,1.1
	c-0.3,0-0.7,0-0.8-0.1c-0.2-0.3-0.4-0.7-0.4-1.1c0-0.2,0.2-0.4,0.3-0.8h-2c-0.3,1.2,0,1.8,1.2,2.5c1.1,0.6,2.2,1.1,3.5,1.2
	c0.2,0,0.5,0.2,0.7,0.4c0.6,1,2.2,0.7,2.5,2.1c0.3-0.1,0.5-0.2,0.8-0.2c0.4-0.1,0.9-0.2,1.4-0.2c0.4,0,0.9,0.2,1.2,0.5
	c0.3,0.4,0.6,1,0.6,1.5c0,0.3-0.3,0.7-0.5,1.1c-0.6-0.5-1.3-0.9-1.9-1.4c-0.1-0.1-0.2-0.4-0.2-0.6c-0.6,0.3-1.1,0.6-1.7,0.7
	c-0.7,0.2-1.3-0.1-1.8-0.8c-0.8-1.3-1.3-1.4-2.7-0.8c-0.3,0.1-0.9-0.1-1.2-0.4c-0.4-0.4-0.6-1-1.1-1.6c-0.2,0.4-0.3,0.7-0.5,1
	c-1.1-0.4-1.4-1-1.2-2.2c0.1-0.6-0.2-1.3-0.4-2c-0.1-0.4-0.5-0.9-0.3-1.2c0.4-1-0.1-1.4-1.1-1.6c1-0.6,1.3-1,0.2-1.6
	c-0.6-0.3-1.1-0.6-1.6-0.9c0.2,0.9-0.3,1.4-1.1,1.7c-0.5,0.2-0.9,0.5-1.3,0.8c-0.7,0.6-1.1,0-1.4-0.4c-0.7-0.8-1.3-1.7-2-2.5
	c-0.6,0.3-1,0.6-1.4,0.7c-0.2,0-0.5-0.4-0.8-0.6c0.2-0.2,0.4-0.4,0.7-0.5c0.3-0.1,0.6-0.2,1-0.3c-0.2-0.3-0.4-0.6-0.5-0.9
	c-0.1-0.3,0-0.8,0.2-0.9c0.7-0.3,1.5-0.5,2.3-0.8c-0.7-0.2-1.4-0.3-2.2-0.5c0.4-0.5,0.7-0.7,0.7-0.9c0.1-0.3-0.1-0.6-0.2-0.8
	c-0.2-0.3-0.5-0.5-0.7-0.7c0.2-0.2,0.5-0.5,0.6-0.4c0.5,0.1,1,0.2,1.3,0.5c0.4,0.3,0.6,0.9,0.9,1.3c0.2,0.2,0.5,0.3,0.9,0.2
	c-0.3-0.3-0.8-0.6-1-1c-0.2-0.4-0.3-1.1-0.1-1.3c0.8-1,0.3-1.8-0.2-2.6c-0.2-0.4-0.3-0.9-0.6-1.7c0.8,0.5,1.3,0.8,2,1.3
	c0-1.3-0.1-2-1.3-1.9c-0.8,0.1-1.1-0.8-0.7-1.6c0.4-0.8,0.9-1.5,1.4-2.2c0.1-0.1,0.5-0.2,0.6-0.2c0.2,0.2,0.3,0.5,0.3,0.8
	c0,0.3-0.3,0.7-0.4,1c0.1,0.1,0.3,0.1,0.4,0.2c0.1-0.3,0.2-0.7,0.3-1c0.1-0.3,0.4-0.6,0.5-0.9c0.8,0.8,1.4-0.2,2.1-0.1
	c0.5,0.1,0.9,0.4,1.3,0.7c0.1,0.1-0.1,0.6-0.2,1c-0.3-0.1-0.6-0.2-0.9-0.3c-0.2-0.1-0.4-0.3-0.7-0.4c-0.6,0.9,0,1.4,0.4,1.9
	c0.9,0.9,1,1.7-0.1,2.6c-0.3,0.2-0.6,0.8-0.4,1c0.6,0.8,0.2,1.5-0.3,2.1c-0.2,0.2-0.3,0.4-0.5,0.7c-0.1-0.3-0.4-0.6-0.4-0.9
	c-0.1-0.7-0.2-1.4-0.5-2c-0.4,0.9-1,1.8-1.2,2.7c-0.1,0.5,0.6,1.1,1,1.6c0.7,1,1.5,1.9,2.2,2.8c0.1-0.1,0.3-0.2,0.4-0.4
	c0-1.1,0-2.1,0-3.2c0-0.2,0-0.4,0.1-0.5c1.3-0.8,0.7-2.3,1.4-3.3c0.2-0.2,0.3-0.4,0.5-0.6c0.2,0.2,0.5,0.4,0.6,0.6
	c0.3,0.9,0.5,1.8,0.8,2.6c0.4-0.1,0.8-0.1,1.3-0.2c-0.2,0.4-0.3,0.9-0.5,1.4c1.4,0.2,1.6,0.9,1.2,2.2c-0.4,1.2,1,2.8,2.3,3
	c-0.3-0.7-1.6-1.1-0.8-2c0.2-0.2,1,0.2,1.6,0.3c0,0,0-0.3-0.1-0.4c-1.1-1.1-1.1-1.1,0-2.5c0.2,0.1,0.5,0.2,0.7,0.3
	c0.2,0.1,0.4,0.2,0.7,0.3c-0.5-0.9-0.5-0.9-1.5-1.2c-0.7-0.2-1-1-0.6-1.6c0.4-0.6,0.9-1.1,0.7-1.9c-0.1-0.2,0.4-0.6,0.7-0.9
	c0.2,0.3,0.6,0.6,0.6,1c0,0.9,0.1,1.7,1.6,1.9c-0.4-0.5-0.7-0.8-0.9-1.2c-0.2-0.3-0.4-0.9-0.2-1c0.8-0.8,0.1-1.3-0.3-2
	c-0.3-0.4-0.7-1-0.6-1.4c0-0.4,0.5-0.8,1-1.4c0,0.1-0.1-0.1-0.1-0.3c0-0.5,0.2-1,0.3-1.5c0.4,0.3,1.1,0.4,1.2,0.8
	c0.7,1.8,1.8,3.2,3.2,4.5c-0.6-1-1-2.1-1.7-3.1c-0.6-0.9-1.4-1.7-2-2.6c-0.2-0.3-0.4-0.8-0.5-1.2c0-0.2,0.2-0.6,0.4-0.6
	c0.2-0.1,0.5,0.1,0.7,0.2c0.2,0.2,0.4,0.4,0.5,0.6c1.1,1.5,2.1,3.1,3.1,4.6c0.6,0.8,1.3,1.5,1.7,2.4c0.5,0.9-0.3,0.9-0.9,1
	c0.6,1.1,1.2,2.2,1.7,3.3c0.1,0.2,0.2,0.5,0.4,0.6c1.1,0.3,2.2,0.6,3.3,0.9l0.2-0.3c-0.4-0.3-0.9-0.9-1.3-1c-0.8-0.1-1.1-0.7-1.6-1
	c-1.1-0.6-0.8-1.6-1-2.4c-0.1-0.2,0.5-0.7,0.8-0.8c0.5-0.1,1,0,1.7,0.1c-0.1-1-0.1-1.9-0.2-3c-1.4,0.3-1.9-0.5-2-1.8
	c0-0.4-0.4-0.8-0.8-1.1c-0.1,0.4-0.1,0.8-0.2,1.1c-0.1,0-0.2,0-0.3,0v-1.9c0.4,0.1,0.7,0.2,1.1,0.3c-0.2-0.4-0.4-0.8-0.3-1.2
	c0-0.1,0-0.3,0.1-0.4c-0.5-0.4-1.1-0.8-1.6-1.2c-0.1,0-0.2-0.1-0.2,0c-1.2,0.7-2-0.5-3-0.7c-0.3,0-0.7-0.6-0.7-0.8
	c0.1-0.8,0.4-1.6,0.6-2.5c0.1-0.3,0.2-0.5,0.2-0.8c0-1.7,0.1-2,1.7-2.4c-1-1.1-0.4-2.3-0.1-3.4c0.3-1.2,0.7-2.3,1.1-3.4
	c0.1-0.1,0.8-0.2,0.9-0.1c0.6,0.7,1,1.4,1.5,2.1c0.2,0.2,0.6,0.3,0.9,0.4c0-0.3,0.1-0.7,0-1c-0.2-0.6-0.5-1.3-0.6-2
	c-0.5-0.2-0.9-0.5-1.4-0.7c-0.6-0.3-0.9-0.7-0.8-1.4c0.1-0.3-0.2-0.7-0.3-1c-0.6-1.1-1.7-2-0.9-3.5c-1.9,0-2.1-0.1-2.5-2.1
	c-0.1-0.3,0.4-0.8,0.7-1.3c-0.2-0.1-0.6-0.3-1-0.6c-0.1,0.3-0.3,0.7-0.4,1c-0.1,0.3-0.2,0.6-0.3,0.9c0,0-0.4,0-0.4-0.1
	c-0.1-0.4-0.1-0.7-0.1-1.1c0-0.1,0.1-0.3,0.2-0.5c-0.2-0.1-0.4-0.2-0.5-0.3c-0.2-0.3-0.7-0.6-0.6-0.8c0.1-0.4,0.4-0.8,0.8-0.9
	c1.2-0.5,2.2-0.1,2.8,1.1c0.3,0.5,0.4,1.1,1.1,0.9c-0.1-0.4-0.2-0.8-0.3-1.2c0.4,0.1,0.8,0.1,1.2,0.2c0.7,0.3,1.2,0.8,1.3,1.7
	c0.1,0.5,0.5,1,0.8,1.4c0.6,1.1,1.3,2.1,2,3.2c0.3,0.4,0.7,0.6,1.2,0.8c-1-1.9-2.5-3.5-3-5.6c0.2-0.1,0.3-0.2,0.5-0.3
	c0.8,1.2,1.6,2.3,2.4,3.5l0.4-0.3c-0.4-0.8-0.7-1.5-1.1-2.3c0.1-0.1,0.1-0.1,0.2-0.2c0.5,0.3,1,0.7,1.5,1c0.1-0.1,0.2-0.1,0.3-0.2
	c-0.1-0.4-0.3-0.8-0.4-1.2c0-0.1-0.2-0.1-0.3-0.2c-0.2-0.5-0.5-1-0.7-1.5c0.5,0.3,1.1,0.5,1.5,0.8c0.3,0.2,0.5,0.6,0.5,0.9
	c-0.1,1.3,0.9,1.9,1.9,2.2c0.9,0.3,1.6,1.4,2.9,1c0.3-0.1,0.8,0.8,1.3,1.3c-0.1,0,0.1,0,0.1,0c0-1.2-1.7-3-2.8-3.2
	c-0.8-0.1-1.5-0.5-2.2-0.8c-0.3-0.2-0.3-0.7-0.6-1.2c4.1,0.9,6.2,2.5,7.7,5.7c0.7,0.1,0.8-1.5,1.7-0.6c0.5,0.5,0.9,0.9,1.4,1.4
	l0.3-0.2c-0.1-0.3-0.2-0.5-0.2-0.8c-0.1-0.4-0.1-0.8-0.2-1.1c0.4,0.2,0.8,0.3,1.1,0.5c0.5,0.5,0.8,1.1,1.2,1.6
	c0.2,0.2,0.5,0.4,0.6,0.5c0.3-0.4,0.5-0.8,0.8-1.1c0.2,0.3,0.4,0.7,0.7,1c0.8,1.2,1.7,2.4,2.4,3.7c0.6,1,0.9,2.1,1.5,3.3
	c0.7-0.2,1.1,0.2,1.3,0.9c0.2-0.1,0.3-0.2,0.5-0.2c-0.3-0.9-0.9-1.7-1.4-2.6c-0.4-0.8-1-1.6-1.4-2.5c-0.1-0.2,0.2-0.6,0.3-0.9
	c0.3,0.1,0.6,0.2,0.9,0.4c0.2,0.1,0.2,0.4,0.3,0.6c1.1,1.7,2.2,3.3,3.4,5c0.2-1.1-0.5-1.9-1.1-2.7c-0.5-0.7-1.1-1.4-1.6-2.1
	c-0.4-0.7-0.8-1.5-1.1-2.3c0.2,0,0.3-0.1,0.3-0.1c0.8,1,1.9,1.9,2.4,3c0.5,1.1,1.3,1.7,1.9,2.5c0.4,0.5,0.7,1.2,1.1,1.8
	c0.1,0.2,0.2,0.6,0.3,0.6c0.4,0,0.7,0.2,0.8,0.5c0.3,0.1,0.5,0.3,0.8,0.5c1.2,1.1,1.9,2.5,2.4,4c0,0.1,0,0.1,0.1,0.2
	c0.2,0,0.5,0,0.8,0c-1.3-1.9-2.4-3.9-3.8-5.5c-0.8-0.8-1.3-1.7-1.9-2.7c-0.2-0.3-0.4-0.5-0.7-0.6c-0.7-0.5-1.2-0.9-1.3-1.9
	c-0.1-0.7-1-1.3-1.5-2c-0.2-0.2-0.2-0.6-0.3-0.9c0.3,0.1,0.6,0.1,0.8,0.3c0.4,0.2,0.6,0.6,1,0.8c0.3,0.2,0.8,0.2,1.2,0.3
	c0.6,0.1,1.2,0.2,1.7,0.4c0.3,0.1,0.4,0.5,0.6,0.8c-0.4,0.1-0.7,0.2-1.1,0.2c-0.4-0.1-0.8-0.3-1.3-0.5c0.2,0.4,0.4,0.8,0.6,1.3
	c0.1,0.2,0.1,0.4,0.2,0.6l0.3-0.3c0.4,0.4,1,0.6,1.2,1.1c0.6,1.1,0.9,2.3,2.1,3c0.3,0.2,0.5,0.5,1,1c0-1.4-0.5-2.2-1.4-2.9
	c-1.1-0.8-1.2-2.1-0.2-3.4c0.7,1.1,1.5,2.2,2.2,3.3c0.2,0.4,0.2,0.8,0.4,1.2c0.2,0.5,0.5,1,0.8,1.4c-0.6,0.1-1.2,0.5-0.8,1
	c1.1,1.5,0.5,3.2,0.8,4.7c0.1,0.6,0.3,1.1,0.6,1.6c0.1,0.1,0.5,0.1,0.7,0.2c0-0.2,0-0.5-0.2-0.7c-0.5-0.4-0.6-0.9,0-1.3
	c0.2-0.1,0.8,0.3,1.1,0.6c0.8,1,1.6,2,2.6,3.2c0.5-1.3,1-1.9,2.2-1.9c0.3,0,0.7-0.7,0.9-1c-0.6-0.9-1.2-1.6-1.7-2.3
	c-0.1,0.4-0.1,1-0.3,1.8c-0.4-0.4-0.6-0.5-0.8-0.7c-0.4-0.5-0.8-1.1-1.1-1.7c-0.2-0.4-0.5-1-0.4-1.2c0.8-1.2-0.2-1.9-0.5-2.9
	c0-0.1-0.2-0.2-0.2-0.3c0.1-0.6,0.1-1.6,0.3-1.7c0.6-0.2,1.1,0.2,1.4,1c0.5,1.2,0.8,2.6,2,3.5c0.6,0.4,0.6,1.5,1,2.2
	c0.7,1.1,1.5,2.2,2.2,3.2c0.3,0.4,0.5,0.8,0.4,1.2c0,1.2,0,2.5,0,3.7c0,0.9,0.1,1.7,1,2.2c0.2,0.1,0.2,0.5,0.3,0.8
	c0.3,2,0.5,4,0.8,6c0,0.2,0.1,0.5,0.1,0.7c-0.1,0.3-0.4,0.5-0.6,0.8c-0.2-0.2-0.6-0.4-0.7-0.7c-0.3-0.8-0.4-1.7-0.6-2.2
	c-0.8-0.3-1.3-0.5-1.8-0.6c-0.1,0.5-0.1,1,0.6,1.3c0.7,0.4,1.4,0.8,1.2,1.9c-0.1,0.7,0.5,1.5,0.7,2.2c0.2,1,0.4,2-0.8,2.6
	c-0.4,0.2-0.9,3.1-0.8,3.5c0.1,0.4,0.2,0.8,0.3,1.2c-0.5,0-1,0.1-1.4,0.1c-0.1,0-0.2,0-0.4,0c1,1.3,0.8,2.8,0.6,4.2
	c-0.1,0.7-0.7,0.9-1.1,0.3c-0.4-0.6-0.6-1.3-0.7-1.9c-0.1-0.6-0.1-1.3-0.1-2.1c-1.1,0.2-2.1,0.3-2.8-0.3c-0.2,0.1-0.4,0.2-0.6,0.4
	c0,0,0,0,0,0c0.1,0.5,0.3,0.9,0.4,1.4c0,0.1-0.5,0.3-0.5,0.3c-0.4-0.4-0.8-0.7-1-1.2c-0.2,0.1-0.4,0.1-0.6,0.2
	c0.6,0.9,1.3,1.7,2.2,2.5c0.8,0.8,1.2,2.2,1.7,3.3c0.1,0,0.2-0.1,0.4-0.1c-0.3-0.8-0.6-1.5-0.8-2.3c-0.3-0.8-0.7-1.6-0.8-2.4
	c0-0.3,0.5-0.9,0.9-1.1c0.3-0.1,1,0.1,1.1,0.3c0.2,0.3,0.1,0.9,0.1,1.3c0,0.3-0.2,0.6,0,0.9c0.5,0.9,1.1,1.8,1.6,2.7
	c0.1,0.2,0.2,0.7,0.1,0.8c-0.9,0.7-0.5,1.7-0.7,2.6c0,0.2-0.2,0.5-0.4,0.6c-1.2,0.9-1.3,1-0.4,2.4c0.1,0.2,0.2,0.4,0.3,0.7
	c0.4-1,0.8-1.8,1.1-2.7c1.2,1,1.3,2,0.5,3.4c0.4-0.2,0.5-0.3,0.7-0.4c1-0.9,1.3-0.9,1.7,0.4c0.3,0.7,0.7,1.3,1,2
	c0.1,0.3-0.1,0.7-0.2,1.1c-0.4-0.2-0.8-0.3-1.1-0.6c-0.5-0.5-0.8-1.1-1.3-1.9c-0.4,1.1-1,1.8,0.1,2.5c0.1,0.1,0.1,0.5,0.1,0.7
	c-0.3,0-0.7,0.1-0.8-0.1c-0.7-0.9-1.4-1.7-2.7-1.8c-0.1,0-0.3-0.5-0.4-0.8c-0.1-0.4-0.3-0.9-0.6-1.3c0.1,1,0.1,2,0.2,3.3
	c-0.6-0.4-0.8-0.6-1.2-0.8c-0.3,0.9-0.3,1.5,0.9,1.5c0.3,0,0.6,0.4,0.9,0.6c-0.2,0.3-0.4,0.8-0.7,0.9c-1.3,0.5-2,0.1-2.4-1.3
	c-0.1-0.3-0.2-0.7-0.3-1c0,0.3,0.1,0.7,0.1,0.9c-0.1,0.5-0.4,0.9-0.6,1.3c-0.4-0.4-0.9-0.7-1.2-1.2c-0.3-0.5-0.5-1.1-0.5-1.7
	c0-0.4,0.4-0.8,0.7-1.2c0.3,0.3,0.6,0.5,0.9,0.8c0.3,0.3,0.5,0.7,0.7,1.1c-0.2-0.8-0.4-1.7-0.7-2.6c-0.3,0.1-0.6,0.2-0.9,0.2
	c-0.3,0-0.8-0.2-0.9-0.4c-0.4-1-0.6-2-0.9-3c-0.1-0.4-0.3-0.7-0.3-0.9c-0.6,0.6-1.2,1.2-1.8,1.7c1.6,0.1,1.4,1.6,2.1,2.6
	c0,0,0,0.1,0,0.1c-0.4,1.1-0.7,2.1-1.1,3.2c-0.2,0-0.3,0.1-0.5,0.1c-0.3-0.9-0.7-1.8-1-2.7c-0.1-0.2-0.1-0.5-0.3-0.5
	c-0.2,0-0.4,0.1-0.6,0.2C194.2,92.1,194,92.5,193.7,92.8z M210.4,100c-0.3,0.2-0.7,0.5-1.1,0.6c-0.6,0.2-1.2,0.2-1.8,0.3
	c-0.1-0.1-0.2-0.3-0.3-0.4c0.5-0.4,1.1-1,1.7-1.2c0.3-0.2,0.9,0,1.3,0.1C210.3,99.4,210.5,100,210.4,100z M206.4,96.9
	c-1.4-1.7-1.4-1.7-1.2-3C206.2,94,207.1,95.9,206.4,96.9z M202.5,99.3c-0.2,0.2-0.3,0.4-0.6,0.8c-0.4-0.3-0.6-0.5-0.9-0.7
	c0.2-0.2,0.5-0.6,0.7-0.6C202,98.8,202.2,99.1,202.5,99.3z M199,95.8c0.1,0.1-0.2,0.4-0.4,0.9c-0.5-0.7-0.9-1.1-1.1-1.6
	c-0.1-0.2,0.3-0.5,0.5-0.8C198.4,94.9,198.7,95.3,199,95.8z M196,98c-0.4-0.5-0.9-0.9-1.2-1.4c-0.2-0.3,0-0.7,0-1.1
	c0.3,0,0.7-0.1,1,0c0.6,0.3,1.2,0.7,1.7,1c-0.3,0.4-0.7,0.9-1.1,1.3C196.2,97.8,196,98,196,98z M289.3,231.9
	c-10.5-0.8-21-1.7-31.4-2.6c-3.2-0.3-6.3-0.9-9.3-2.3c-1.4-0.6-2.4-1.6-3.3-2.8c-4.8-6.4-9.5-12.7-14.6-18.9
	c-5.2-6.3-10.6-12.4-15.9-18.6c-0.5-0.6-0.9-1.3-1.3-2c-1-1.4-1.9-3-3-4.3c-2.1-2.2-4.9-1.1-6.3,0.5c-0.5,0.5-0.7,1.7-0.5,2.3
	c1.4,3.1,0.8,6.2,0.5,9.3c-0.9,9-1.7,18-2.6,27c-0.2,1.9-0.6,3.7-1.1,5.5c-0.5,1.7-1.3,2-3.1,2c-5.2-0.2-10.3-0.4-15.5-0.6
	c-2.4-0.1-4.7-0.3-7.1-0.5c-1.1-0.1-1.5-0.5-1.6-1.6c-0.2-5.1-0.6-10.1-0.7-15.2c-0.2-10.8-0.5-21.7-0.5-32.5
	c0.1-9.8,0.6-19.7,0.9-29.5c0.2-5.4,0.3-10.9,0.4-16.3c0.1-5.2,0.2-10.4,0.2-15.6c0-2.6,0.7-3.5,3.2-4.3c4.7-1.5,9.6-1.6,14.5-1.4
	c5.4,0.3,10.8,0.4,16.2,0.7c8.4,0.5,16.8,0.9,25.2,1.6c7.9,0.7,15.8,1.9,23.7,2.8c12.4,1.5,23.5,6.2,33.1,14.2
	c3.4,2.8,6.3,6.1,8,10.3c1.3,3.2,1.3,6.5,1,9.8c-0.1,0.8-0.6,1.6-1.2,2.2c-5,4.5-10.7,7.9-16.5,11.3c-4.1,2.4-8.1,5.1-12.1,7.7
	c-0.4,0.2-0.7,0.5-1,0.8c0.1,0.1,0.1,0.2,0.2,0.3c10.3-5,19.8-11.3,30-17.3c-0.1,0.8-0.1,1.4-0.3,1.9c-0.8,2.4-1.7,4.8-2.5,7.3
	c-1.8,5.9-6,9.4-11.6,11.6c-5.2,2-10.6,2.9-16,3.3c-4,0.3-8.1,0.3-12.1,0.3c-1.9,0-3.9-0.5-5.8-0.9c-1.5-0.3-2.5,0.1-3.4,1.4
	c-1.1,1.8-1.2,2.8,0,4c1.3,1.3,2.6,2.6,4.1,3.6c4.6,3.3,8.8,7.1,12.8,11.1c5.3,5.3,10.7,10.5,15.6,16.1c4.4,5.2,8.1,11,12.1,16.5
	c0.2,0.3,0.3,0.7,0.6,1.3C290.5,231.8,289.9,232,289.3,231.9z"/>
<path fill="#5B5B5B" d="M195.3,84.8c-1.1-0.3-2.2-0.5-3.2-0.8c-0.3-0.1-0.6-0.4-0.7-0.6c-0.1-0.1,0.2-0.6,0.4-0.7
	c0.3-0.1,0.7,0,1,0.1c0.2,0.1,0.2,0.3,0.5,0.6c0-0.6,0.1-0.9,0-1.1c-0.3-0.8-0.8-1.7-1-2.5c-0.3,0.3-0.6,0.6-1,1c0,0,0,0-0.1,0.1
	c0.2,0.1,0.4,0.1,0.6,0.2c-0.2,0.4-0.3,0.7-0.5,1c-0.4,0.7,0,2.5,0.7,3c0.5,0.3,1,0.7,1.6,1.2c0.6-0.7,1.3-1,2.2-0.1
	C195.5,85.6,195.4,85.2,195.3,84.8z"/>
<path fill="#5B5B5B" d="M60.5,215.3c0-2.1,0-4.1,0-6.1c0-1.4,0.7-2.2,1.9-2.2c1.3,0,2,0.8,2,2.2c0,7.7,0,15.3,0,23
	c0,1.9-1.7,2.8-3.4,1.8c-0.3-0.2-0.9-0.2-1.3-0.1c-3,0.8-6,0.8-9-0.1c-4.3-1.3-7-4.8-7.3-9c-0.3-3.9,2.1-7.7,6.2-9.5
	C53.2,213.6,55.9,213.6,60.5,215.3z M60.5,224.8c0-1.1-0.1-2.2,0-3.2c0.1-0.9-0.3-1.4-0.9-2c-2.4-2.1-6.1-2.3-9.1-0.3
	c-2,1.3-3.3,3-3,5.6c0.4,2.6,1.9,4.3,4.3,5.1c2.6,0.8,5.3,0.7,7.8-0.4c0.4-0.2,0.7-0.8,0.8-1.2C60.6,227.1,60.5,226,60.5,224.8z"/>
<path fill="#A52C41" d="M322.6,221.3c-0.2,2.9-1.4,5.2-3.6,6.9c-3.2,2.5-6.8,3.9-10.8,2.9c-6.2-1.5-9.1-8-6.2-14
	c2-4.1,5.2-6.6,9.9-6.5c4.4,0.1,7.7,2.1,9.5,6.1C322,218.2,322.2,219.8,322.6,221.3z M310,226.3c2.4-0.2,4.7-1.4,6.5-3.4
	c1.4-1.5,1.4-3.4,0.6-5.1c-0.8-1.7-2.5-2.2-4.2-2.1c-3.4,0.1-6.7,3.3-7,6.7C305.5,224.9,306.9,226.4,310,226.3z"/>
<path fill="#5B5B5B" d="M158.9,229.3c-0.6,0.7-1.1,1.3-1.6,1.9c-3.6,3.8-8.9,4.3-12.6,1.2c-4-3.4-4.7-9.4-1.6-13.5
	c2.3-3,5.4-4.5,9-4.8c3.8-0.4,7.3,0.4,10.3,3c1.5,1.3,1.5,2.4,0,3.8c-0.2,0.2-0.3,0.7-0.3,1c0.3,3.3,0.7,6.7,1.1,10
	c0.2,1.5-0.4,2.3-1.6,2.5c-1.3,0.1-2.1-0.5-2.3-2C159.1,231.4,159,230.5,158.9,229.3z M145.1,224.6c0,2.5,1.5,4.8,3.6,5.6
	c2,0.7,4.3-0.1,5.9-2.1c0.3-0.3,0.5-0.6,0.7-1c1.4-2.2,2-4.7,2.3-7.2c0.1-0.9-0.2-1.2-1-1.5c-3.4-1.1-6.5-0.5-9.3,1.7
	C146,221.2,145.1,222.7,145.1,224.6z"/>
<path fill="#5B5B5B" d="M23.6,224.5c-0.1,2.3,1.4,4.4,3.9,5.3c3.2,1.1,6.4,0.9,9.5-0.8c0.8-0.5,1.7-0.6,2.5,0c0.8,0.6,1,1.4,0.6,2.3
	c-0.2,0.5-0.6,1-1,1.2c-1.6,0.7-3.1,1.5-4.8,1.7c-3.4,0.5-6.9,0.3-10-1.6c-3.9-2.4-5.8-7.3-4.5-11.8c1.2-4.1,5.1-7,9.6-7.1
	c2.5,0,4.8,0.4,6.9,1.9c1.6,1.1,2.5,2.7,2.7,4.7c0.1,1.6-0.6,2.8-2.1,3.4c-1.1,0.4-2.2,0.8-3.3,0.9C30.3,225.2,27,225.2,23.6,224.5z
	 M35.1,220.4c-1.2-2.3-3.1-2.6-5.1-2.7c-2.4-0.2-4.7,1.1-5.5,2.9C28,221.3,31.4,221.4,35.1,220.4z"/>
<path fill="#5B5B5B" d="M119.4,220.2c1.6-1.4,3.1-2.9,4.8-3.9c5.3-3.2,11.2-0.8,12.3,5.2c0.4,2.2,0.5,4.6-0.1,6.7
	c-0.8,3.1-2.2,5.9-3.5,8.9c-0.5,1.2-1.8,1.5-2.8,0.9c-1-0.6-1.2-1.7-0.7-2.9c0.9-2,1.9-4,2.7-6.1c0.8-2.2,1-4.5,0.4-6.8
	c-0.7-2.7-2.5-3.8-5.2-3c-1.8,0.5-3.1,1.6-4.2,3.1c-2,2.7-3.3,5.8-3.6,9.2c-0.2,1.7-0.8,2.4-2.1,2.4c-1.1,0-2-0.6-2-1.8
	c0-5.4,0-10.9,0-16.3c0-1.1,0.8-1.8,2-1.8c1.1,0,1.9,0.7,1.9,1.8C119.4,217.3,119.4,218.8,119.4,220.2z"/>
<path fill="#5B5B5B" d="M229.8,244.5c5.8-4.9,8.5-5.3,11.5-1.9c1.5-0.6,3-1.4,4.5-1.7c3.6-0.6,6.4,1.6,7,5.2c0.6,4-0.5,7.7-2.2,11.2
	c-0.4,0.7-0.8,1.4-1.2,2.1c-0.5,0.9-1.5,1.1-2.3,0.7c-0.8-0.4-0.9-1.3-0.5-2.3c1-2.3,2.1-4.6,2.8-6.9c0.4-1.3,0.3-2.8,0.2-4.1
	c-0.3-2.3-2-3.3-4.2-2.5c-2,0.7-3.4,1.8-3.6,4.3c-0.2,2.6-1,5.3-1.5,7.9c-0.2,1.1-1,1.6-1.9,1.4c-0.9-0.2-1.4-1-1.2-2
	c0.5-2.4,1-4.8,1.4-7.2c0.2-1,0.2-2.1,0.1-3.1c-0.1-1.5-0.9-2.2-2.3-1.7c-1.2,0.4-2.4,1.1-3.3,2c-2.3,2.3-3.2,5.2-3.7,8.4
	c0,0.2,0,0.5-0.1,0.7c-0.2,0.9-0.8,1.5-1.8,1.4c-1-0.1-1.4-0.7-1.4-1.7c0.1-2.7,0.2-5.3,0.3-8c0-1.4,0.1-2.8,0.1-4.2
	c0.1-1.2,0.7-1.8,1.6-1.8c1.1,0.1,1.5,0.7,1.5,1.8C229.8,243,229.8,243.7,229.8,244.5z"/>
<path fill="#A52C41" d="M283.9,198.3c1.7,2,3.4,4,5,6.1c0.5,0.6,0.9,1.5,1,2.3c0.1,1.3-0.9,2-2.2,1.6c-0.6-0.2-1.2-0.6-1.6-1
	c-2.5-2.9-5-5.9-7.5-8.9c-1.3-1.6-1-3,0.7-4.1c1.9-1.2,4-1.3,6.1-0.6c1.5,0.5,2.9,1.1,4.3,1.7c1.8,0.7,3.6,0.9,5.5,0.4
	c1.6-0.5,1.9-1.3,1-2.7c-1.3-2-3.2-3.1-5.3-3.9c-1.5-0.6-2.3-1.6-2.3-3c0-1.2,0.8-1.8,2-1.7c4.3,0.6,9.8,5.6,10.7,9.9
	c0.7,3.4-1.4,5.8-5.3,6.3c-2.8,0.4-5.3-0.3-7.8-1.4c-1.4-0.5-2.7-1-4.1-1.5C284.1,198.1,284,198.2,283.9,198.3z"/>
<path fill="#5B5B5B" d="M92.3,234.4c-2.7,0.1-5.3-0.5-7.8-2.1c-5-3.3-6.7-12.3,0.7-16.5c3.2-1.8,6.7-2.3,10.3-1.6
	c1.1,0.2,2.1,0.9,3,1.6c1,0.7,1,2,0.2,2.9c-0.7,0.8-1.8,0.9-2.8,0.2c-3.1-2.1-9-0.8-11,2.3c-1.8,2.7-0.5,6.8,2.7,8.3
	c3.3,1.5,6.7,1.3,9.9-0.5c0.9-0.5,1.8-0.7,2.7,0c1.1,0.9,0.9,2.5-0.3,3.4C98.1,233.8,95.7,234.4,92.3,234.4z"/>
<path fill="#5B5B5B" d="M278.5,243.5c0-1.7,0-3.2,0-4.6c0-1.3,0.7-2.1,1.7-2c1,0.1,1.5,0.9,1.5,2.2c-0.2,5.9-0.4,11.7-0.6,17.6
	c0,0.6-0.4,1.5-0.9,1.8c-0.5,0.2-1.3-0.2-1.9-0.3c-0.4-0.1-0.8-0.2-1.1-0.1c-2.1,0.5-4.3,0.5-6.4-0.1c-3.5-1-5.8-3.8-6-7.4
	c-0.2-3.1,1.8-6.1,5-7.5C272.6,241.8,275.4,241.7,278.5,243.5z M278.2,250.4c0-0.2,0-0.7,0-1.2c0-2.1-0.9-3.4-3-3.7
	c-1.3-0.2-2.7,0-4,0.4c-2.2,0.8-3.5,2.7-3.3,4.5c0.3,2.4,1.8,4.2,4.2,4.6c1.3,0.2,2.8,0.2,4.1,0c1.8-0.3,1.8-0.4,1.8-2.2
	C278.1,252.1,278.1,251.4,278.2,250.4z"/>
<path fill="#5B5B5B" d="M299,255.2c-0.4,0.4-0.6,0.7-0.9,0.9c-3,3.3-7.5,3.7-10.4,1c-3.2-3-3.4-7.9-0.4-11.1
	c3.6-3.8,10.6-4.1,14.5-0.7c1.4,1.2,1.4,1.8,0.2,3.2c-0.2,0.2-0.2,0.7-0.2,1.1c0.2,2.5,0.4,4.9,0.6,7.4c0,0.6-0.2,1.4-0.6,1.8
	c-0.8,0.9-2.2,0.3-2.5-0.9C299.1,257.2,299.1,256.3,299,255.2z M294.7,246.1c-2,0.1-4.1,0.7-5.5,2.7c-1.4,1.9-1,4.7,0.9,6.2
	c1.6,1.3,4.2,1,5.6-1c0.9-1.3,1.7-2.8,2.2-4.3C298.8,246.7,298.2,246.1,294.7,246.1z"/>
<path fill="#5B5B5B" d="M171.5,247c0,2.6,2,4.6,4.9,4.9c1.9,0.2,3.7-0.1,5.3-1c1.1-0.6,2-0.3,2.5,0.6c0.4,0.9,0.1,1.7-1,2.2
	c-3.8,2.1-9.1,1.7-12.2-0.8c-2.5-2.1-3.5-5.9-2.4-9.1c1.1-3.1,3.9-5.2,7.2-5.1c1.7,0,3.4,0.5,5,1c1.3,0.5,2.2,1.6,2.6,2.9
	c0.7,2.2,0,3.9-2.3,4.3c-2.1,0.4-4.3,0.4-6.5,0.4C173.6,247.5,172.5,247.2,171.5,247z M172.4,243.7c2.1,1,6.7,1,8,0.1
	C179,241.2,174.1,241.1,172.4,243.7z"/>
<path fill="#5B5B5B" d="M198.6,251.6c-0.5-0.4-0.9-0.8-1.5-1.1c-1.4-0.6-2.9-1-4.2-1.7c-1.6-0.8-3.3-1.7-4.6-2.9
	c-1.9-1.7-1.6-4.3,0.4-5.9c2.7-2.2,7.7-2.4,11.2-0.4c0.5,0.3,0.9,0.5,1.3,0.8c1,0.7,1.2,1.7,0.6,2.5c-0.6,0.8-1.5,0.9-2.4,0.1
	c-1.7-1.2-3.5-1.8-5.5-1.6c-0.9,0.1-1.9,0.4-2.7,0.7c-1.1,0.5-1.3,1.3-0.2,2c1.2,0.8,2.7,1.4,4,2.1c1.7,0.8,3.4,1.5,5,2.5
	c1.3,0.8,2.1,2,1.8,3.6c-0.3,1.6-1.4,2.4-2.8,2.8c-3.9,1.1-7.6,0.3-11-1.9c-0.8-0.5-0.9-1.4-0.4-2.1c0.6-0.9,1.4-0.9,2.3-0.4
	c2,1.3,4.2,1.9,6.6,1.7c0.7-0.1,1.3-0.3,2-0.5C198.6,251.8,198.6,251.7,198.6,251.6z"/>
<path fill="#5B5B5B" d="M218.2,252.4c-1.4,1-2.6,2.2-4,2.9c-4.6,2.3-9.1-0.3-9.4-5.5c-0.3-3.5,0.7-6.6,2.6-9.5
	c0.6-0.9,1.6-1.2,2.3-0.7c0.8,0.5,0.9,1.4,0.3,2.4c-1.4,2.1-2.3,4.4-2.2,7c0,0.5,0.1,1,0.2,1.4c0.5,2.2,1.9,3,4.1,2.4
	c1.5-0.4,2.6-1.4,3.5-2.6c1.6-2.1,2.5-4.4,2.9-7c0.1-0.5,0.3-1.1,0.7-1.4c1-0.8,2.5-0.1,2.4,1.3c-0.1,4-0.3,8-0.4,12
	c0,1-0.7,1.4-1.6,1.4c-0.9,0-1.5-0.6-1.5-1.5C218.2,254,218.2,253.2,218.2,252.4z"/>
<path fill="#5B5B5B" d="M71.3,224.1c0-2.7,0-5.4,0-8c0-1.5,0.7-2.3,2-2.3c1.2,0,1.9,0.8,1.9,2.2c0,5.4,0,10.8,0,16.2
	c0,1.4-0.7,2.2-2,2.2c-1.3,0-2-0.7-2-2.3C71.3,229.4,71.3,226.8,71.3,224.1z"/>
<path fill="#5B5B5B" d="M105.3,224c0-2.6,0-5.3,0-7.9c0-1.5,0.7-2.3,2-2.3c1.2,0,1.9,0.8,1.9,2.2c0,5.4,0,10.8,0,16.2
	c0,1.4-0.7,2.2-2,2.2c-1.3,0-2-0.7-2-2.3C105.3,229.4,105.3,226.7,105.3,224z"/>
<path fill="#5B5B5B" d="M258,249.7c0-2,0-4.1,0-6.1c0-0.2,0-0.4,0-0.6c0.1-1,0.7-1.5,1.7-1.4c1,0.1,1.4,0.7,1.4,1.6
	c-0.1,4.4-0.3,8.8-0.5,13.2c0,1-0.7,1.6-1.6,1.5c-1,0-1.5-0.7-1.5-1.7c0-2.2,0-4.3,0-6.5C257.7,249.7,257.9,249.7,258,249.7z"/>
<path fill="#A52C41" d="M295.7,214c0,1-0.7,1.8-1.7,1.8c-1.5,0-3.1-1.7-3.1-3.2c0-1,0.8-1.8,1.8-1.8
	C294.2,210.7,295.7,212.3,295.7,214z"/>
<path fill="#5B5B5B" d="M107.4,212.1c-1.4,0-2.1-0.7-2.1-2.1c0-1.4,0.8-2.2,2.1-2.2c1.2,0,2.1,0.8,2.1,2
	C109.5,211.2,108.8,212.1,107.4,212.1z"/>
<path fill="#5B5B5B" d="M75.4,209.7c0,1.5-0.7,2.3-2.1,2.3c-1.4,0-2.1-0.7-2.1-2.1c0-1.4,0.8-2.2,2.1-2.2
	C74.6,207.8,75.4,208.5,75.4,209.7z"/>
<path fill="#5B5B5B" d="M258.2,238.5c0-1.1,0.7-1.7,1.7-1.7c0.9,0,1.6,0.7,1.6,1.7c0,1.1-0.7,1.9-1.7,1.9
	C258.8,240.3,258.2,239.7,258.2,238.5z"/>
<path fill="#5B5B5B" d="M77.6,167.6c-0.9,1.1-1.8,2.2-2.7,3.2c-0.1,0-0.2-0.1-0.3-0.1c0.2-0.7,0.2-1.5,0.6-2
	c0.9-1.4,1.9-2.9,3.1-4.1c2.4-2.2,4.9-4.2,7.4-6.2c4.9-4,9.7-7.9,14.6-11.9c6-4.9,12.2-9.6,18-14.7c7.8-6.7,15.3-13.7,22.9-20.6
	c1.2-1.1,2.3-2.2,3.5-3.2c0.2-0.2,0.7-0.2,1.1-0.2c0.1,0.4,0.3,0.8,0.1,1.1c-0.3,0.7-0.8,1.4-1.3,1.9c-3.3,3-6.7,5.9-10,8.9
	c-10.7,9.7-21.6,19.2-33.1,28c-4.7,3.6-9.1,7.8-13.4,12c-3.1,3-5.9,6.4-8.8,9.6c-0.4,0.4-0.8,0.9-1.2,1.1c-0.3,0.2-0.8,0-1.2,0
	c0-0.4-0.1-0.8,0.1-1.1c0.2-0.6,0.6-1.1,0.9-1.7C77.7,167.8,77.6,167.7,77.6,167.6z"/>
<path fill="#5B5B5B" d="M26.9,172.3c0.3-0.7,0.6-1.5,1-2.1c2.4-3.2,4.7-6.6,7.4-9.6c6.1-6.8,12.4-13.5,18.6-20.2
	c3.8-4.1,7.7-8.1,11.6-12.2c0.6-0.7,1.4-1.2,2.1-1.8c0.8-0.6,1.4-0.4,2,0.3c0.6,0.7,0,1.1-0.5,1.5c-3,2.6-6,5.3-9,7.9
	c-0.9,0.7-1.4,1.6-1.8,2.7c-0.5,1.2-1.5,2.3-2.5,3.3c-3.8,3.8-7.8,7.4-11.6,11.2c-3.3,3.3-6.4,6.8-9.5,10.3
	c-1.4,1.6-2.5,3.5-3.8,5.2c-0.7,1-1.5,2-2.3,2.9c-0.3,0.3-0.9,0.4-1.3,0.7C27.2,172.5,27,172.4,26.9,172.3z"/>
<path fill="#5B5B5B" d="M146.9,98.8c-0.5,0.8-0.8,1.7-1.4,2.3c-2.9,2.9-5.8,5.9-9,8.6c-8.9,7.6-18,15-26.9,22.6
	c-6.8,5.9-13.3,12-19.9,18c-0.4,0.4-1,0.5-1.5,0.8c0.3-0.5,0.5-1.1,0.9-1.5c8.9-9.3,18.7-17.8,28.6-26.1
	c7.9-6.6,15.7-13.3,23.5-19.9c0.4-0.4,0.8-0.8,1.1-1.3c0.9-1.4,1.7-2.8,2.6-4.1c0.2-0.4,0.8-0.5,1.2-0.7
	C146.4,97.9,146.6,98.3,146.9,98.8z"/>
<path fill="#5B5B5B" d="M67,119.7c1,1.1,1,2.2,0.1,3.1c-3,3-6,6-9,8.9c-7,6.7-14.1,13.5-20.2,21.1c-2.8,3.4-5.2,7.2-7.8,10.8
	c-0.8,1.1-1.8,2.2-2.8,3.1c-0.4,0.4-1,0.5-1.6,0.7c-0.1-0.1-0.2-0.3-0.3-0.4c0.4-0.6,0.7-1.3,1.1-1.9c1.5-2.1,3.2-4.1,4.6-6.3
	c7.7-11,17.4-20.1,26.8-29.5c3-3,5.8-6.2,8.7-9.2C66.6,120,66.8,119.9,67,119.7z"/>
<path fill="#5B5B5B" d="M28.2,158.1c0.3-0.7,0.6-1.4,1-2c2.6-3.5,5.2-7,8-10.3c7.1-8.2,14.4-16.2,21.6-24.3c2-2.3,4.1-4.6,6.1-6.9
	c0.2-0.2,0.3-0.6,0.6-0.6c0.6-0.1,1.3-0.1,1.9-0.2c-0.1,0.5,0,1.2-0.2,1.5c-2.3,2.5-4.5,5.1-6.9,7.5c-9.5,9.5-18.5,19.4-26.4,30.2
	c-1.1,1.4-2.3,2.8-3.5,4.1c-0.5,0.5-1.2,0.9-1.8,1.3C28.5,158.3,28.3,158.2,28.2,158.1z"/>
<path fill="#5B5B5B" d="M65.2,101.2c-0.4,0.6-0.8,1.1-1.2,1.6c-4,4.4-8,8.8-12,13.3c-6.4,7.2-12.6,14.4-19,21.7
	c-1.6,1.8-3.1,3.5-4.8,5.2c-0.3,0.3-0.8,0.4-1.2,0.5c0.1-0.5,0.1-1,0.3-1.3c4.6-5.4,9.2-10.9,13.8-16.2c5.9-6.8,11.9-13.5,17.8-20.2
	c1.2-1.3,2.1-2.9,3.2-4.3c0.6-0.8,1.4-1.1,2.3-0.6C64.8,100.8,64.9,101,65.2,101.2z"/>
<path fill="#5B5B5B" d="M60.3,101.3c-2.6,2.2-5.1,4.3-7.6,6.6c-8.3,7.6-16,15.8-22.2,25.3c-0.2,0.3-0.8,0.4-1.2,0.6
	c0-0.4-0.2-1,0-1.3c1.2-2,2.4-3.9,3.8-5.8c3.6-4.7,7-9.4,11.3-13.5c2.8-2.6,5.6-5.3,8.4-8c1.4-1.3,2.7-2.6,4-4
	C57.8,100.2,59.2,100.2,60.3,101.3z"/>
<path fill="#5B5B5B" d="M132.1,99c-0.1,0.1-0.4,0.6-0.8,1c-7.6,6.7-15.2,13.4-22.8,20.2c-2.6,2.3-4.9,4.9-7.3,7.3
	c-2.4,2.4-4.9,4.7-7.3,7.2c-0.8,0.8-1.5,1.9-2.2,2.8c-0.3,0.4-0.6,0.9-0.9,1.3c-0.1,0.1-0.5,0.3-0.6,0.2c-0.2-0.2-0.3-0.5-0.2-0.7
	c0.1-0.3,0.3-0.6,0.5-0.8c2.3-2.7,4.4-5.5,6.9-7.9c6.8-6.6,13.9-13,20.8-19.5c3.8-3.6,7.5-7.2,11.2-10.8c0.5-0.5,1.1-1,1.7-1.3
	C131.7,97.6,132.3,97.8,132.1,99z"/>
<path fill="#5B5B5B" d="M96.7,127.4c0.2-0.6,0.3-1.4,0.6-1.9c1.3-1.8,2.7-3.5,4.1-5.1c5.6-6,11.2-11.9,16.8-17.9
	c0.2-0.2,0.4-0.6,0.6-0.9c-0.9-0.2-1.5-0.4-2.4-0.6c1.1-1.4,2.5-1.9,3.9-2.4c0.3-0.1,0.6-0.3,0.9-0.3c0.5,0,1.3-0.2,1.6,0.1
	c0.5,0.6,0.3,1.4-0.3,2c-6.3,6.8-12.7,13.5-19,20.3c-2.1,2.3-4.2,4.6-6.4,6.8C97,127.5,96.9,127.5,96.7,127.4z"/>
<path fill="#5B5B5B" d="M27.7,179.7c-1-1.1-0.5-1.8-0.1-2.4c2.1-2.8,4.2-5.5,6.3-8.3c3-4.1,6.8-7.4,10.3-11c2.1-2.2,4.3-4.4,6.5-6.6
	c0.4-0.3,1-0.4,1.5-0.6c0,0.6,0.3,1.4,0,1.9c-0.8,1.1-1.7,2.1-2.7,3c-1.4,1.4-2.9,2.7-4.5,4c-6.3,5.2-11,11.6-15.7,18.2
	C28.9,178.5,28.3,179,27.7,179.7z"/>
<path fill="#5B5B5B" d="M28.2,127.5c1.7-2.2,3.2-4.5,5-6.7c4.2-5.1,8.6-10.1,12.9-15.2c1.8-2.2,3.6-4.5,5.4-6.7
	c0.3-0.4,0.8-0.7,1.3-0.7c0.4,0,1,0.3,1.3,0.6c0.2,0.2,0.1,0.9-0.2,1.1c-0.9,1.1-1.9,2.2-2.8,3.2c-7.1,7.9-14.1,15.9-21.2,23.8
	c-0.3,0.4-0.8,0.6-1.1,1C28.5,127.8,28.3,127.7,28.2,127.5z"/>
<path fill="#5B5B5B" d="M76.5,190.1c-0.7-0.8-0.6-1.3,0.1-1.8c7.8-6,15.5-12,23.3-18.1c1.1-0.9,2-2.1,3.1-3.2
	c0.4-0.4,0.9-0.9,1.5-1.2c0.4-0.2,1.1-0.1,1.3,0.1c0.2,0.3,0.2,1.1,0,1.4c-0.9,1-1.8,2-2.8,2.8c-6.4,5.1-12.9,10.1-19.4,15.1
	c-1.8,1.4-3.6,2.8-5.5,4.1C77.6,189.6,77.1,189.8,76.5,190.1z"/>
<path fill="#5B5B5B" d="M152.4,139c-0.4,0.5-0.7,1-1.1,1.3c-3.5,2.9-7,5.8-10.4,8.8c-3.7,3.3-7.2,6.8-10.8,10.2
	c-0.9,0.9-1.8,1.8-2.8,2.6c-0.3,0.3-0.8,0.2-1.3,0.3c0.1-0.4,0.1-1,0.3-1.2c3-3.1,5.9-6.2,9-9.2c3.6-3.4,7.4-6.5,11-9.8
	c1.4-1.3,2.6-2.7,3.9-4c0.3-0.3,0.9-0.5,1.2-0.4C151.8,138,152,138.5,152.4,139z"/>
<path fill="#5B5B5B" d="M152.3,130.7c-0.5,0.6-0.9,1.4-1.5,1.9c-2.1,1.9-4.1,4-6.4,5.6c-7.7,5.1-13.6,12.1-19.8,18.7
	c-0.4,0.4-1,0.6-1.5,0.9c0.2-0.6,0.1-1.4,0.5-1.8c2.7-2.9,5.2-6,8.1-8.6c6.3-5.8,12.8-11.3,19.2-17c0.2-0.2,0.6-0.3,0.9-0.3
	C151.9,130,152.1,130.4,152.3,130.7z"/>
<path fill="#5B5B5B" d="M153,146.5c-0.4,0.6-0.6,1.2-1,1.5c-1.3,1.1-2.6,2.4-4.2,3.2c-3.9,2.1-7,5-10.1,8c-2.8,2.7-5.6,5.4-8.5,8.1
	c-0.3,0.3-0.9,0.3-1.3,0.5c0.1-0.5,0-1.2,0.3-1.5c2.4-2.5,4.8-4.9,7.2-7.4c1.2-1.2,2.3-2.3,3.6-3.3c3.9-3.2,7.9-6.3,11.9-9.4
	c0.4-0.3,1-0.3,1.6-0.4C152.6,145.9,152.7,146.3,153,146.5z"/>
<path fill="#5B5B5B" d="M48.3,98.3c-1.9,2-3.5,3.6-5,5.4c-4.9,5.8-9.8,11.7-14.7,17.6c-0.3,0.4-0.6,1.1-1.3,0.6
	c-0.7-0.5-0.1-1,0.2-1.4c5.7-7.3,11.4-14.5,17.1-21.7c0.3-0.4,1.1-0.6,1.7-0.7C46.9,98,47.5,98.2,48.3,98.3z"/>
<path fill="#5B5B5B" d="M52.2,160.3c0.7,1,0.5,1.8-0.2,2.5c-1.2,1.2-2.3,2.5-3.7,3.4c-6.9,4.8-12.7,11-18.4,17.1
	c-0.3,0.4-0.9,0.6-1.3,0.9c-0.1-0.1-0.2-0.2-0.3-0.4c0.6-0.9,1.2-1.9,1.9-2.8c3.3-4.3,7.2-8,11.2-11.6c3.2-2.9,6.6-5.7,9.9-8.5
	C51.6,160.7,51.8,160.6,52.2,160.3z"/>
<path fill="#5B5B5B" d="M29.4,191.6c0.2-0.6,0.2-1.3,0.5-1.8c1.8-2.4,3.5-4.9,5.6-7c4.7-4.6,9.7-8.9,14.5-13.4
	c0.4-0.4,0.9-0.9,1.5-0.3c0.6,0.6,0.3,1.2-0.3,1.8c-1.7,1.5-3.4,3.2-5.2,4.6c-5.8,4.5-10.8,9.8-15.5,15.5c-0.3,0.3-0.4,0.8-0.5,1.2
	C29.9,192,29.7,191.8,29.4,191.6z"/>
<path fill="#5B5B5B" d="M125.7,188.4c2.8-2.5,5.5-5.2,8.5-7.5c5.2-4,10.7-7.7,16-11.5c0.7-0.5,1.6-0.6,2.4-0.8
	c0.2,0,0.6,0.2,0.6,0.3c0.1,0.2-0.1,0.6-0.3,0.7c-0.5,0.5-1.1,0.9-1.7,1.3c-1.8,1.2-3.6,2.4-5.5,3.5c-6.5,3.6-11.9,8.5-17.5,13.2
	c-0.5,0.4-0.9,0.9-1.5,1.2c-0.3,0.2-0.7,0.1-1.1,0.1C125.8,188.8,125.7,188.6,125.7,188.4z"/>
<path fill="#5B5B5B" d="M102.6,175.7c0.8,0.8,0.7,1.7-0.1,2.6c-0.9,1-1.8,1.9-2.9,2.7c-2.4,1.7-4.8,3.3-7.3,4.9
	c-4.2,2.7-8.5,5.4-12.8,8.2c-0.4-0.4-0.4-1,0.3-1.5c1.5-1.2,2.9-2.4,4.4-3.4c4.5-3,9.1-5.8,13.5-8.8C99.6,179,101,177.3,102.6,175.7
	z"/>
<path fill="#5B5B5B" d="M51.2,177.4c0.5,1.2,0.1,2-0.6,2.7c-2.4,2.5-4.8,5-7.3,7.4c-2.1,2-4.4,3.8-6.5,5.8c-1,0.9-1.8,2-2.7,3.1
	c-0.4,0.5-0.8,1-1.2,1.5c-1.3-0.7-0.9-1.4-0.4-1.9c1.6-1.8,3.1-3.7,4.8-5.3c4.1-3.9,8.3-7.7,12.4-11.6
	C50.2,178.5,50.6,178,51.2,177.4z"/>
<path fill="#5B5B5B" d="M127.7,174.5c0.3-0.4,0.5-0.8,0.9-1.2c6.1-5.7,12.6-10.9,19.4-15.7c1.3-0.9,2.6-1.8,3.9-2.7
	c0.3-0.2,0.6-0.5,0.8-0.4c0.5,0.1,0.9,0.4,1.4,0.6c-0.2,0.3-0.3,0.8-0.6,1c-1.5,1.1-3,2.1-4.6,3c-7.2,4.2-13.6,9.6-19.8,15
	c-0.3,0.3-0.7,0.5-1.1,0.8C128,174.8,127.9,174.7,127.7,174.5z"/>
<path fill="#5B5B5B" d="M129.2,193.5c0.3-0.4,0.6-0.8,1-1.1c5-3.8,10-7.5,15-11.4c1.9-1.5,3.7-3.2,5.6-4.8c0.6-0.5,1.1-1.2,1.9-0.4
	c0.8,0.9,0.2,1.5-0.5,2c-3.6,2.7-7.2,5.4-10.8,8c-3.4,2.4-6.8,4.8-10.2,7.2c-0.5,0.4-1.1,0.6-1.7,0.9
	C129.4,193.8,129.3,193.6,129.2,193.5z"/>
<path fill="#5B5B5B" d="M128.8,200.3c0.2-0.3,0.4-0.6,0.7-0.8c5.4-5.2,11.4-9.5,17.8-13.3c0.7-0.4,1.3-0.8,1.9-1.2
	c1-0.6,2-1.3,3-1.9c0.4-0.2,1-0.1,1.6-0.2c-0.2,0.5-0.3,1.2-0.7,1.5c-1.2,0.9-2.5,1.8-3.8,2.5c-6.5,3.8-12.6,8-18.5,12.7
	c-0.5,0.4-1.2,0.8-1.7,1.1C129,200.6,128.9,200.5,128.8,200.3z"/>
<path fill="#5B5B5B" d="M155.6,161.1c-2.4,1.7-4.7,3.8-7.4,5.3c-4.7,2.6-8.8,5.9-12.8,9.2c-1.8,1.5-3.5,3-5.3,4.5
	c-0.3,0.3-0.7,0.5-1,0.7c-0.1-0.1-0.2-0.2-0.3-0.3c1.2-1.2,2.5-2.4,3.7-3.6c5.2-4.8,10.7-9.2,16.7-12.9c1.7-1.1,3.4-2.3,5-3.5
	C154.8,160,155.2,159.9,155.6,161.1z"/>
<path fill="#5B5B5B" d="M58.3,146.7c0.3-0.8,0.5-1.5,0.9-2c1.9-2.5,3.9-5,5.9-7.5c1-1.2,2-2.4,3.1-3.5c0.3-0.3,0.9-0.6,1.2-0.4
	c0.6,0.3,0.7,1,0.2,1.5c-1,1.3-2,2.5-3,3.7c-1.9,2.3-3.9,4.7-5.9,6.9C60.4,146.1,59.8,147.1,58.3,146.7z"/>
<path fill="#5B5B5B" d="M71.8,138c0.4,1.1,0.2,1.8-0.5,2.4c-1.9,1.7-3.7,3.4-5.6,5.1c-0.7,0.6-1.3,1.4-1.9,2.1
	c-0.2,0.3-0.5,0.6-0.8,0.7c-0.4,0.2-0.8,0.2-1.2,0.2c0-0.4-0.3-0.9-0.1-1.2c0.2-0.6,0.6-1.1,1.1-1.6c2.5-2.4,5-4.8,7.6-7.1
	C70.7,138.3,71.3,138.2,71.8,138z"/>
<path fill="#5B5B5B" d="M82.5,198.3c0.2-0.1,0.4-0.3,0.7-0.4c5-2,9.1-5.3,12.9-9c0.5-0.5,1.2-0.9,1.9-1.2
	C97,191.4,88,198.7,82.5,198.3z"/>
<path fill="#5B5B5B" d="M138.6,201.3c4.4-3.5,9.2-6.1,14.3-8.2C152.3,195.3,141.3,201.5,138.6,201.3z"/>
<path fill="#5B5B5B" d="M74.1,148.4c0.7,1,0.7,1.7,0,2.5c-1.4,1.4-2.9,2.8-4.3,4.1c-0.3,0.3-0.7,0.4-1.1,0.6
	c-0.1-0.1-0.2-0.1-0.3-0.2c0.1-0.7,0.1-1.4,0.4-2C70.1,151.3,72.1,149.9,74.1,148.4z"/>
<path fill="#5B5B5B" d="M78,153c-0.1,0.4-0.1,0.8-0.3,1.2c-1.7,3-4.4,4.9-7.1,6.9c1-4,4.3-5.9,7.1-8.3C77.8,152.9,77.9,152.9,78,153
	z"/>
<path fill="#5B5B5B" d="M79.8,157.3c-0.5,3.6-3.2,5.5-5.8,7.4c-0.1,0-0.3-0.1-0.4-0.1c0.1-0.6,0-1.3,0.3-1.7c1.8-2,3.7-3.9,5.5-5.9
	C79.6,157.1,79.7,157.2,79.8,157.3z"/>
<path fill="#5B5B5B" d="M259.8,147.3c3.9-1.9,7.7-3.7,11.5-5.6c5.1-2.6,10-5.4,15.1-8.2c0.1,0,0.1-0.1,0.2-0.1c0.5,0,1-0.1,1.6-0.1
	c-0.2,0.5-0.2,1.2-0.5,1.5c-0.9,0.8-2,1.5-3.1,2c-3.3,1.7-6.6,3.2-9.9,4.9c-3.9,2-7.8,4.2-11.7,6.3c-1.6,0.8-2.9,1.8-3.6,3.5
	c-1.1,2.5-3.2,3.7-5.7,4.3c-2.8,0.7-5.6,1.4-8.4,1.7c-5.9,0.5-11.8,0.6-17.7,0.9c-1.5,0.1-2.5-0.6-3.2-1.9c-0.2-0.3-0.3-0.7-0.2-1
	c1.2-3.9,0.7-7.9,0.3-11.9c-0.4-3.1-0.7-6.3-1.1-9.4c-0.1-1.1,0.4-1.9,1.3-2.4c1.9-1.2,3.9-1.9,6.4-1.3c4.3,1,8.6,1.8,12.9,2.7
	c0.4,0.1,0.9,0.2,1.3,0.4c2.9,1.5,5.9,3,8.8,4.6c2.8,1.5,4.5,3.9,5.3,7C259.3,145.8,259.5,146.4,259.8,147.3z M236.6,153.1
	C236.6,153.1,236.6,153.1,236.6,153.1c2-0.1,4.1,0,6.1-0.3c2.6-0.4,5.2-0.8,7.7-1.6c2.4-0.7,2.9-2,2.4-4.5c-0.6-2.9-2.5-4.8-4.9-6.2
	c-5.3-3-11-4.3-17-4.3c-1.4,0-1.9,0.5-1.7,1.9c0.2,1.9,0.3,3.9,0.6,5.8c0.3,2.4,0.7,4.7,1.2,7.1c0.4,1.7,0.7,2,2.5,2
	C234.5,153.1,235.5,153.1,236.6,153.1z"/>
<path fill="#5B5B5B" d="M176.9,187.8c1.1-0.9,2-1.8,3.1-2.5c3.7-2.3,7.4-4.5,11-6.8c4.3-2.7,8.5-5.5,12.7-8.2c0.6-0.4,1.2-0.5,2-0.3
	c0.7,0.2,1.6,0.2,2.2-0.1c4.3-1.7,8.6-3.5,13-5.3c0.5-0.2,1.1-0.4,1.6-0.4c0.4,0,0.7,0.3,1.1,0.5c-0.2,0.3-0.4,0.7-0.6,0.9
	c-1.2,0.6-2.3,1.2-3.5,1.5c-5.7,1.5-10.6,4.5-15.6,7.6c-0.9,0.5-1.6,0.8-2.7,0.4c-0.5-0.2-1.4,0.1-2,0.5c-4.9,2.9-9.7,5.8-14.6,8.8
	c-1.9,1.2-3.8,2.4-5.7,3.6C178.4,188.3,177.8,188.6,176.9,187.8z"/>
<path fill="#5B5B5B" d="M180.2,156.7c2.8-2.2,5.5-4.2,8-6.2c4.4-3.6,8.6-7.2,13-10.8c6-4.8,12.1-9.5,18.1-14.2
	c2.2-1.7,4.4-3.5,6.6-5.2c0.3-0.3,0.7-0.6,1.1-0.6c0.6,0,1.1,0.3,1.7,0.5c-0.3,0.4-0.5,1-0.9,1.3c-4.2,3.2-8.3,6.5-12.7,9.5
	c-8,5.5-15.3,11.8-22.8,18c-2.5,2.1-5.1,4.3-7.8,6.2C183.5,156,182.2,157,180.2,156.7z"/>
<path fill="#5B5B5B" d="M179,176.7c-0.5-0.3-1-0.5-1.1-0.8c-0.1-0.3,0.2-0.8,0.5-1c2.3-1.8,4.7-3.6,7.1-5.4
	c8.9-6.4,18.2-12.1,27.9-17.2c1.1-0.6,1.9-1.6,2.8-2.5c0.4-0.4,0.7-0.8,1.3-0.2c0.5,0.5,0.9,1.1,0.2,1.8c-0.5,0.5-1.1,0.9-1.7,1.3
	c-3.2,1.8-6.4,3.7-9.6,5.4c-9.3,4.8-17.7,10.9-25.8,17.4C180,176,179.5,176.4,179,176.7z"/>
<path fill="#5B5B5B" d="M175.6,170.4c0.3-0.4,0.6-0.8,1-1.1c5.7-3.9,11.4-7.9,17.2-11.7c5.6-3.7,11.5-7.1,16.5-11.6
	c1.3-1.1,2.3-2.6,3.7-3.7c0.5-0.4,1.6-0.5,2.1-0.2c0.8,0.4,0.3,1.2-0.2,1.7c-1.2,1.1-2.4,2.3-3.7,3.2c-4.8,3.4-9.7,6.7-14.5,9.9
	c-6.5,4.4-12.9,8.8-19.4,13.1c-0.7,0.5-1.6,0.6-2.3,0.9C175.8,170.7,175.7,170.6,175.6,170.4z"/>
<path fill="#5B5B5B" d="M177.7,181.4c0.7-0.6,1.3-1.2,2-1.7c3.3-2.2,6.6-4.3,9.8-6.4c6.8-4.4,13.6-8.9,20.3-13.3
	c0.8-0.5,1.5-0.7,2.5-0.5c1,0.2,2.1-0.2,3.1-0.5c0.8-0.2,1.5-0.5,2.2-0.7c0.5,0.9,0.2,1.4-0.5,1.8c-1,0.5-2.1,1.1-3.2,1.3
	c-4.4,1.1-8.4,3.1-12.2,5.5c-7.4,4.7-14.7,9.6-22.1,14.4c-0.6,0.4-1.3,0.5-2,0.7C177.9,181.8,177.8,181.6,177.7,181.4z"/>
<path fill="#5B5B5B" d="M211.5,138.3c4.6-3.7,9.2-7.4,13.8-11.1c-0.1-0.1-0.1-0.2-0.2-0.3c-0.5,0-1,0-1.6,0c0.2-0.3,0.2-0.5,0.4-0.6
	c5.6-3.6,11.2-7.1,17.7-8.8c0.5-0.1,1.5-0.1,1.5,0.1c0.3,1-0.7,0.9-1.2,1.1c-3.9,1.8-7.9,3.6-11.9,5.4c-0.6,0.3-1,0.7-1.1,1.4
	c-0.1,1.4-0.9,2.5-2,3.2c-4.1,2.8-8.3,5.6-12.4,8.4c-0.9,0.6-1.9,1-2.8,1.5C211.6,138.5,211.5,138.4,211.5,138.3z"/>
<path fill="#5B5B5B" d="M208,117.2c-0.3,0.5-0.6,1.2-1.1,1.5c-1,0.8-2,1.6-3.1,2.2c-4.8,2.5-8.9,5.9-12.8,9.6
	c-3.4,3.2-6.7,6.6-10.1,9.9c-0.1,0.1-0.2,0.3-0.3,0.3c-0.7,0.2-1.4,0.4-2.2,0.6c0.3-0.6,0.5-1.3,0.9-1.8c8.3-8.2,16.7-16,26.6-22.3
	c0.5-0.3,1.2-0.4,1.8-0.5C207.8,116.9,207.9,117,208,117.2z"/>
<path fill="#5B5B5B" d="M256.2,159.9c0.4-0.3,0.8-0.7,1.2-0.9c5.8-2.9,11.6-5.7,17.4-8.6c3.8-1.9,7.7-3.8,11.5-5.7
	c0.9-0.5,1.7-1.2,2.6-1.7c0.5-0.3,1.5-0.5,1.7-0.2c0.6,0.8,0,1.4-0.7,1.8c-1.7,1-3.4,2-5.1,2.8c-9,4.2-18.1,8.3-27.1,12.4
	c-0.4,0.2-0.8,0.3-1.3,0.4C256.3,160.1,256.3,160,256.2,159.9z"/>
<path fill="#5B5B5B" d="M258,167.1c1.9-1.3,3.8-2.7,5.8-4c6.9-4.2,13.9-8.3,20.8-12.5c1-0.6,2-1.4,3-2c0.4-0.2,0.9-0.4,1.3-0.4
	c0.2,0,0.7,0.2,0.7,0.4c0.1,0.3,0,0.8-0.1,1c-0.5,0.5-1,0.9-1.6,1.3c-5.2,3.1-10.5,6.1-15.8,9.1c-3.9,2.2-7.9,4.4-11.9,6.5
	c-0.7,0.4-1.4,0.6-2.2,1C258.1,167.4,258.1,167.2,258,167.1z"/>
<path fill="#5B5B5B" d="M202.5,113.7c-2.1,1.7-4,3.4-6,4.9c-7.4,5.2-13.9,11.5-20,18.2c-0.2,0.2-0.3,0.5-0.6,0.6c-0.3,0.1-0.7,0-1,0
	c0-0.3-0.1-0.7,0.1-0.9c0.7-0.8,1.4-1.6,2.2-2.4c6.5-6.7,13.4-12.9,20.4-19c0.6-0.5,1.1-1,1.7-1.6
	C200.3,112.5,201,112.5,202.5,113.7z"/>
<path fill="#5B5B5B" d="M200.1,182.5c-0.4,0.2-0.9,0.4-1.3,0.6c-1.8,1.1-3.6,2.2-5.5,3.2c-4.6,2.5-9.2,5-13.8,7.5
	c-0.6,0.3-1.3,0.6-2,0.9c-0.2,0.1-0.7,0-0.8-0.2c-0.1-0.2,0-0.7,0.2-0.8c0.5-0.5,1.1-0.9,1.7-1.3c4.8-2.7,9.5-5.4,14.3-8.1
	c1.7-0.9,3.3-1.9,5-2.9c0.7-0.4,1.7-0.1,1.7,0.6C199.8,182.2,199.9,182.4,200.1,182.5z"/>
<path fill="#5B5B5B" d="M259.9,138.7c0.5-0.3,1-0.7,1.6-1c4.5-2.3,9-4.5,13.4-6.8c1.9-1,3.8-2.2,5.7-3.3c0.9-0.5,1.5-0.2,1.6,0.8
	c0,0.4-0.4,1-0.7,1.2c-3.7,1.8-7.4,3.7-11.2,5.4c-2.9,1.4-5.9,2.6-8.9,3.8c-0.4,0.2-0.9,0.2-1.4,0.3C260,139,260,138.8,259.9,138.7z
	"/>
<path fill="#5B5B5B" d="M269.5,118.2c0.7,1,0.4,1.5-0.4,1.9c-1.9,1-3.7,2.2-5.7,3c-4,1.7-7.5,4.3-11.3,6.6c-0.8,0.5-1.7,1-2.5,1.3
	c-0.4,0.1-1-0.3-1.5-0.4c0.3-0.3,0.5-0.8,0.8-1c6-3.5,12-6.9,18.1-10.3C267.8,118.8,268.7,118.5,269.5,118.2z"/>
<path fill="#5B5B5B" d="M253.1,117.8c-0.4,0.2-0.7,0.3-1.1,0.5c-1.5,0.8-3,1.7-4.5,2.4c-3.9,1.8-7.8,3.5-11.7,5.2
	c-0.5,0.2-1,0.4-1.5,0.5c-0.3,0.1-0.6-0.1-0.9-0.2c0.1-0.3,0.2-0.6,0.4-0.8c0.3-0.3,0.7-0.5,1-0.6c5-2.5,10.1-5,15.1-7.5
	c0.6-0.3,1.3-0.4,2-0.4c0.3,0,0.6,0.2,0.9,0.3C252.9,117.4,253,117.6,253.1,117.8z"/>
<path fill="#5B5B5B" d="M197.9,134c0.3-0.4,0.6-0.8,1-1.1c6-4.6,12-9.1,18.1-13.6c0.4-0.3,1.5-0.3,1.7-0.1c0.5,0.6,0,1.2-0.6,1.6
	c-1.7,1.2-3.4,2.3-5,3.5c-4.5,3.1-9,6.3-13.6,9.4c-0.4,0.3-0.9,0.4-1.4,0.7C198.1,134.3,198,134.2,197.9,134z"/>
<path fill="#5B5B5B" d="M196.8,189.1c0.4,1.2,0.3,2.2-0.9,2.8c-3.7,2-7.4,4-11.1,6.1c-1.5,0.8-2.9,1.6-4.4,2.4
	c-0.5,0.2-1,0.4-1.5,0.5c-0.1-0.1-0.2-0.2-0.3-0.3c0.3-0.4,0.6-0.9,1-1.2c3.7-2.3,7.3-4.5,11-6.7
	C192.7,191.5,194.7,190.3,196.8,189.1z"/>
<path fill="#5B5B5B" d="M254.9,133.1c3.9-1.9,7.7-3.8,11.6-5.6c2.6-1.2,5.1-2.4,7.7-3.5c0.3-0.1,0.6-0.4,0.9-0.3
	c0.5,0.1,1,0.3,1.5,0.5c-0.3,0.4-0.4,1-0.8,1.1c-2.8,1.3-5.6,2.6-8.4,3.8c-3.7,1.6-7.5,3.1-11.3,4.6c-0.4,0.1-0.8,0-1.2,0
	C254.9,133.4,254.9,133.2,254.9,133.1z"/>
<path fill="#5B5B5B" d="M267.7,209.2c0.9,0.9,0.6,1.5-0.2,1.9c-0.8,0.5-1.7,0.8-2.6,1.2c-2.8,1.4-5.7,2.9-8.5,4.3
	c-2,1-3.9,2.1-6,3.1c-0.3,0.2-0.8,0-1.2,0c0.2-0.3,0.3-0.8,0.6-1c3-1.9,6-3.8,9.1-5.5C261.7,211.8,264.8,210.6,267.7,209.2z"/>
<path fill="#5B5B5B" d="M179.8,151.3c4.6-6,10.2-10.8,16-15.7c0.1,0.1,0.3,0.2,0.4,0.3c-0.3,0.5-0.5,1.1-0.9,1.5
	c-2.4,2.4-4.9,4.8-7.3,7.2c-1.2,1.3-2.4,2.7-3.5,4c-0.7,0.8-1.2,1.7-2,2.3c-0.6,0.5-1.5,0.6-2.3,0.9
	C180,151.7,179.9,151.5,179.8,151.3z"/>
<path fill="#5B5B5B" d="M212.7,175.8c0.6-0.4,1.2-1,1.8-1.3c4-1.8,7.9-3.6,11.9-5.3c0.8-0.4,1.6-0.7,2.4-1c0.3-0.1,0.7-0.3,1-0.2
	c0.5,0.2,0.9,0.5,1.4,0.8c-0.3,0.3-0.5,0.8-0.9,1c-1.4,0.6-2.8,1.2-4.2,1.7c-3.6,1.4-7.3,2.8-10.9,4.2c-0.7,0.3-1.5,0.5-2.3,0.7
	C212.9,176.2,212.8,176,212.7,175.8z"/>
<path fill="#5B5B5B" d="M178.7,128c0.2-0.3,0.3-0.6,0.6-0.9c3.9-3.9,7.7-7.8,11.6-11.7c0.9-0.9,2-0.8,3.3-0.4
	c-0.5,0.5-0.8,0.7-1.1,1c-2.7,2.3-5.5,4.5-8.1,6.9c-1.2,1.1-2.1,2.3-3.1,3.6C180.8,128,180,128.5,178.7,128z"/>
<path fill="#5B5B5B" d="M241.2,169c-0.3,0.2-0.5,0.5-0.8,0.7c-7,3.2-14,6.3-21,9.5c0,0-0.1,0-0.5,0c0.8-0.7,1.3-1.3,1.9-1.6
	c3.2-1.7,6.4-3.5,9.6-5c2.7-1.3,5.5-2.4,8.3-3.5c0.7-0.3,1.5-0.3,2.3-0.5C241.1,168.7,241.1,168.8,241.2,169z"/>
<path fill="#5B5B5B" d="M222.8,182.8c0.4-0.2,0.8-0.4,1.1-0.7c5.1-4.2,10.8-7.5,17.2-9.2c0.6-0.2,1.3,0,2-0.1
	c-0.5,0.5-1,1.1-1.6,1.4c-2,0.9-4.1,1.5-6.1,2.5c-3.9,1.9-7.6,4-11.4,6.1c-0.3,0.1-0.5,0.3-0.8,0.4
	C223.1,183.1,222.9,182.9,222.8,182.8z"/>
<path fill="#5B5B5B" d="M233,199.2c0.1-1.2,0.9-1.5,1.6-1.7c3-1.3,6.1-2.6,9.2-3.8c1.4-0.6,2.9-1.2,4.3-1.8c0.4-0.1,0.8-0.2,1.2-0.2
	c0.3,0,0.7,0.2,0.8,0.4c0.1,0.3,0,0.7-0.2,0.9c-0.2,0.3-0.6,0.5-1,0.7C243.6,195.5,238.4,197.3,233,199.2z"/>
<path fill="#5B5B5B" d="M263.7,204.7c-0.4,0.4-0.8,0.9-1.3,1.1c-3.4,1.7-6.7,3.5-10.1,5.1c-2.3,1.1-4.6,2.1-6.9,3.2
	c-0.3,0.1-0.6,0.2-0.9,0.2c5.6-4.7,12.3-7.4,18.9-10.1C263.5,204.4,263.6,204.6,263.7,204.7z"/>
<path fill="#5B5B5B" d="M179.6,205.8c-0.5-1,0.1-1.2,0.7-1.5c4.2-2.3,8.3-4.6,12.4-6.9c0.5-0.3,0.9-0.6,1.4-0.9
	c0.7,0.9,0.8,1.7,0,2.4c-0.8,0.7-1.8,1.3-2.8,1.8c-3.5,1.6-7,3.1-10.5,4.6C180.5,205.5,180.1,205.7,179.6,205.8z"/>
<path fill="#5B5B5B" d="M200.2,127.9c2-1.6,4-3.2,6-4.7c2-1.5,4-3,6-4.5c0.2-0.2,0.5-0.5,0.7-0.4c0.7,0.1,1.3,0.3,2,0.4
	c-0.2,0.5-0.3,1.2-0.7,1.4c-3,1.9-6,3.8-9,5.6c-1.2,0.7-2.4,1.4-3.7,2c-0.4,0.2-0.8,0.3-1.2,0.5C200.3,128.1,200.2,128,200.2,127.9z
	"/>
<path fill="#5B5B5B" d="M228.9,193.5c-0.2-0.1-0.7-0.2-0.7-0.4c0-0.3,0.1-0.7,0.4-0.9c0.5-0.4,1.1-0.7,1.6-1
	c3.6-1.7,7.2-3.4,10.8-5.1c0.4-0.2,1,0.1,1.5,0.1c-0.3,0.4-0.4,1-0.8,1.2c-4,2-8,3.9-12,5.8C229.6,193.4,229.3,193.4,228.9,193.5z"
	/>
<path fill="#5B5B5B" d="M269.2,215.4c0.5,0.8,0.3,1.5-0.5,1.9c-1.5,0.7-2.9,1.5-4.4,2.1c-2.8,1.2-5.6,2.4-8.5,3.6
	c-0.5,0.2-1,0.4-1.6,0.6c-0.2,0.1-0.5-0.1-0.7-0.2c0.1-0.2,0.1-0.6,0.3-0.7c0.5-0.4,1-0.7,1.5-0.9c3.4-1.6,6.8-3.2,10.2-4.7
	C266.7,216.4,267.9,215.9,269.2,215.4z"/>
<path fill="#5B5B5B" d="M262.7,119.4c-5.7,2.4-11.2,4.8-16.8,7.2c0-0.1-0.1-0.1-0.1-0.2c0.7-0.5,1.4-1,2.1-1.5
	c4.1-2.8,8.3-5.2,13.2-6.4C262.3,118.2,262.3,118.1,262.7,119.4z"/>
<path fill="#5B5B5B" d="M224.9,188.7c0.2-0.2,0.5-0.5,0.7-0.6c3.7-2.5,7.3-5,11-7.4c0.6-0.4,1.4-0.7,2.1-0.7c0.9,0,1.1,0.6,0.4,1.3
	c-0.6,0.6-1.3,1.2-2.1,1.6c-3.8,2-7.5,4-11.3,6c-0.2,0.1-0.5,0.1-0.7,0.1C225,188.8,224.9,188.8,224.9,188.7z"/>
<path fill="#5B5B5B" d="M182.8,210c4.6-2.5,9.2-5.1,13-8.9c0.5,1.3,0.2,2.2-0.5,2.9c-1.1,1-2.2,2-3.5,2.7c-2.4,1.3-5,2.4-7.5,3.5
	c-0.4,0.2-0.9,0.2-1.4,0.2C182.9,210.3,182.9,210.1,182.8,210z"/>
<path fill="#5B5B5B" d="M257.7,202c-0.4,0.4-0.7,1-1.2,1.3c-1.2,0.7-2.4,1.3-3.6,1.8c-2.7,1.1-5.4,2-8.2,3.1c-0.5,0.2-1,0.3-1.6,0.3
	c4.1-3.8,9.5-4.5,14.3-6.8C257.5,201.7,257.6,201.8,257.7,202z"/>
<path fill="#5B5B5B" d="M295.5,159.8c-0.3,0.6-0.5,1.2-0.9,1.6c-0.8,0.8-1.8,1.5-2.8,2c-3,1.4-6.1,2.7-9.1,4
	c-0.1-0.2-0.2-0.3-0.2-0.5c4.2-2.5,8.5-5,12.7-7.5C295.3,159.5,295.4,159.6,295.5,159.8z"/>
<path fill="#5B5B5B" d="M232.8,165.6c1.4-0.6,2.8-1.2,4.3-1.8c1.5-0.6,3.1-1.3,4.6-2c1-0.5,2-0.9,3.5-0.3c-3.9,2.5-7.7,4.5-12.1,4.6
	C232.9,165.9,232.9,165.8,232.8,165.6z"/>
<path fill="#5B5B5B" d="M178.9,121.7c1.6-2.2,3-4.5,5.2-6.1c0.4-0.3,1-0.5,1.4-0.5c0.5,0,0.9,0.5,1.4,0.7c-0.3,0.3-0.5,0.8-0.8,1
	c-2,1.5-4,3-6,4.5c-0.3,0.2-0.6,0.4-0.9,0.6C179.1,121.9,179,121.8,178.9,121.7z"/>
<path fill="#5B5B5B" d="M278.1,217.9c-3,3.4-6.5,6-11.3,6c-0.1-0.1-0.1-0.2-0.2-0.3C270.5,221.7,274.3,219.8,278.1,217.9z"/>
<path fill="#5B5B5B" d="M191.7,211.2c-3.1,3.2-6.3,6.2-10.8,7.2C184.1,215.5,187.9,213.4,191.7,211.2z"/>
<path fill="#5B5B5B" d="M246,202.4c3.4-1.5,6.8-3,10.2-4.5c0.3,0.9-0.1,1.5-0.7,1.8c-1.1,0.6-2.2,1.2-3.5,1.6
	c-1.7,0.5-3.5,0.9-5.2,1.3c-0.3,0.1-0.5,0-0.8,0C246,202.5,246,202.5,246,202.4z"/>
<path fill="#5B5B5B" d="M189.4,156.4c-1.7,2.9-4,4.7-7.1,5.7C182.4,160.4,186.9,156.8,189.4,156.4z"/>
<path fill="#5B5B5B" d="M191.2,135.1c1.8-2.8,5.1-5.4,7.8-6C196.8,131.7,194.7,134.1,191.2,135.1z"/>
<path fill="#5B5B5B" d="M250.4,165c3-1.2,5.8-2.3,8.8-3.4C258.4,163.8,253,165.9,250.4,165z"/>
<path fill="#5B5B5B" d="M260,175.5c0.3-0.4,0.6-1,1-1.2c1.8-0.9,3.6-1.6,5.5-2.3c-1.6,2-3.5,3.6-6.2,3.8
	C260.2,175.7,260.1,175.6,260,175.5z"/>
<path fill="#5B5B5B" d="M257.3,167.7c-0.9,2.1-3.6,3.7-5.1,2.8C253.7,169.2,255.2,168.2,257.3,167.7z"/>
<path fill="#5B5B5B" d="M188.6,136.9c-1.1,2.5-3.5,4.6-5.2,4.8C183.6,140.8,186.5,138.1,188.6,136.9z"/>
<path fill="#5B5B5B" d="M199.4,147.3c0.5-0.6,0.9-1,1.3-1.3c0.9-0.8,1.9-1.5,2.8-2.2c0.1-0.1,0.4-0.1,0.6-0.1c0,0.2,0.1,0.6,0,0.6
	c-1.3,1.1-2.6,2.1-4,3.1C200.1,147.5,199.9,147.5,199.4,147.3z"/>
<path fill="#5B5B5B" d="M178.2,147.7c-0.1-1.4,1.1-2.7,3.1-3.7C181,145.8,179.6,147.4,178.2,147.7z"/>
<path fill="#5B5B5B" d="M280.2,168.6c-1.1,0.5-2.2,1.1-3.3,1.6c0.4-1.3,2.4-2.3,3.1-2C280.1,168.3,280.1,168.5,280.2,168.6z"/>
<path fill="#5B5B5B" d="M192.4,154.2c-0.1-0.1-0.1-0.1-0.1-0.1c-0.3-0.9,0.1-1.5,0.9-1.9c0.1,0,0.5,0.3,0.5,0.4
	C193.7,153.5,193.3,154.1,192.4,154.2z"/>
</svg>
