<?xml version="1.0"?>
<svg xmlns="http://www.w3.org/2000/svg" xmlns:xlink="http://www.w3.org/1999/xlink" viewBox="0 0 56 56">
  <defs>
    <style>
      .cls-1 {
        fill: none;
      }

      .cls-2 {
        fill: url(#linear-gradient);
      }

      .cls-3 {
        fill: url(#linear-gradient-2);
      }
    </style>
    <linearGradient id="linear-gradient" y1="0.5" x2="1" y2="0.5" gradientUnits="objectBoundingBox">
      <stop offset="0" stop-color="#f5ecd8"/>
      <stop offset="1" stop-color="#f3cb8f"/>
    </linearGradient>
    <linearGradient id="linear-gradient-2" x1="0.117" y1="0.242" x2="0.975" y2="0.82" gradientUnits="objectBoundingBox">
      <stop offset="0.08" stop-color="#a52c41"/>
      <stop offset="1" stop-color="#600f30"/>
    </linearGradient>
  </defs>
  <g id="quiz" transform="translate(-433 -522.382)">
    <g id="icons" transform="translate(433 522.382)">
      <g id="quiz-2" data-name="quiz">
        <rect id="Rectangle_1952" data-name="Rectangle 1952" class="cls-1" width="56" height="56"/>
        <path id="Path_1215" data-name="Path 1215" class="cls-2" d="M145.132,130a12.132,12.132,0,1,0,12.132,12.132A12.132,12.132,0,0,0,145.132,130Z" transform="translate(-123.161 -120.383)"/>
        <path id="Path_1216" data-name="Path 1216" class="cls-3" d="M147.809,132.452a12.908,12.908,0,1,0-13.668,13.342,12.908,12.908,0,1,0,13.668-13.342ZM129.944,138.7a.834.834,0,0,1-.592-1.422l4.378-4.388-4.388-4.378a.834.834,0,1,1,1.178-1.18l4.388,4.378,4.38-4.391a.836.836,0,1,1,1.18,1.184L136.09,132.9l2.608,2.6a13.224,13.224,0,0,0-1.2,1.154l-2.589-2.58-4.378,4.388A.832.832,0,0,1,129.944,138.7Z" transform="translate(-112.975 -111.123)"/>
        <path id="Path_1217" data-name="Path 1217" class="cls-2" d="M308.132,299a12.132,12.132,0,1,0,12.132,12.132A12.132,12.132,0,0,0,308.132,299Zm7.665,7.7-9.934,9.957a.834.834,0,0,1-.592.244h-.038a.835.835,0,0,1-.6-.3l-4.146-4.98a.836.836,0,1,1,1.286-1.07l3.561,4.277,9.286-9.309A.835.835,0,0,1,315.8,306.7Z" transform="translate(-274.103 -276.881)"/>
      </g>
    </g>
  </g>
</svg>
