<?xml version="1.0" encoding="utf-8"?>
<!-- Generator: Adobe Illustrator 22.1.0, SVG Export Plug-In . SVG Version: 6.00 Build 0)  -->
<svg version="1.1" baseProfile="tiny" id="Camada_1"
	 xmlns="http://www.w3.org/2000/svg" xmlns:xlink="http://www.w3.org/1999/xlink" x="0px" y="0px" viewBox="0 0 50 50"
	 xml:space="preserve">
<rect fill="#638FF1" width="50" height="50"/>
<g>
	<path fill="#FFFFFF" d="M22.2,16.3c-2.2,0.6-3.9,1.6-5,3c-1.1,1.4-1.7,3.5-1.7,6.3h6.7v11.8h-12v-8.9c0-2.4,0.2-4.6,0.6-6.4
		c0.4-1.9,1.1-3.4,2-4.8c0.9-1.3,2.2-2.4,3.7-3.3c1.5-0.9,3.4-1.5,5.7-2V16.3z M39,16.3c-2.2,0.6-3.9,1.6-5,3
		c-1.1,1.4-1.7,3.5-1.7,6.3H39v11.8H27v-8.9c0-2.4,0.2-4.6,0.6-6.4c0.4-1.9,1.1-3.4,2-4.8c0.9-1.3,2.2-2.4,3.7-3.3
		c1.5-0.9,3.4-1.5,5.7-2V16.3z"/>
</g>
</svg>
