<?xml version="1.0"?>
<svg xmlns="http://www.w3.org/2000/svg" xmlns:xlink="http://www.w3.org/1999/xlink" viewBox="0 0 56 56">
  <defs>
    <style>
      .cls-1 {
        fill: none;
      }

      .cls-2 {
        fill: url(#linear-gradient);
      }

      .cls-3 {
        fill: url(#linear-gradient-2);
      }
    </style>
    <linearGradient id="linear-gradient" x1="0.204" y1="0.249" x2="0.942" y2="0.821" gradientUnits="objectBoundingBox">
      <stop offset="0.08" stop-color="#a52c41"/>
      <stop offset="1" stop-color="#600f30"/>
    </linearGradient>
    <linearGradient id="linear-gradient-2" x1="0.681" y1="0.72" x2="0.228" y2="0.188" gradientUnits="objectBoundingBox">
      <stop offset="0" stop-color="#f3cb8f"/>
      <stop offset="0.9" stop-color="#f5ecd8"/>
    </linearGradient>
  </defs>
  <g id="resume" transform="translate(-482 -522.382)">
    <g id="icons" transform="translate(482 522.382)">
      <g id="resume-2" data-name="resume">
        <rect id="Rectangle_1953" data-name="Rectangle 1953" class="cls-1" width="56" height="56"/>
        <path id="Path_1218" data-name="Path 1218" class="cls-2" d="M159.824,156.028l-3.061,21.391a5.1,5.1,0,0,1-4.666,4.353,4.3,4.3,0,0,1-2.889,1.184H127.724a1.4,1.4,0,0,1-.989-.413,1.46,1.46,0,0,1-.112-1.908,1.137,1.137,0,0,1,.938-.49h3.835a.888.888,0,0,0,.888-.888v-.314s-.525-1.127-1.144-1.167h-7.716a1.238,1.238,0,0,1-1-.377,1.42,1.42,0,0,1-.417-1,1.438,1.438,0,0,1,1.422-1.43h7.3c.62.008,1.117-1.119,1.117-1.119V173.8a1.131,1.131,0,0,0-1.127-1.127h-2.678a1.406,1.406,0,0,1-1.4-1.5,1.43,1.43,0,0,1,1.44-1.307h2.684a1.076,1.076,0,0,0,1.07-1.153,1.094,1.094,0,0,0-1.1-.993h-5.371a1.419,1.419,0,1,1,0-2.838h.62l1.522-.007,1.92-.009,1.815-.007h1.281a.814.814,0,0,0,.473-.178,1.423,1.423,0,0,0,.592-1.4,1.39,1.39,0,0,0-1.377-1.11h-3a1.448,1.448,0,0,1,.187-2.885h4.087l.567-3.908a4.49,4.49,0,0,1,3.16-3.551,5,5,0,0,1,4.32-2.825H154.3c2.219,0,3.748.53,4.678,1.62C159.963,151.771,160.231,153.49,159.824,156.028Z" transform="translate(-112.975 -137.978)"/>
        <path id="Path_1219" data-name="Path 1219" class="cls-3" d="M305.826,159H293.043a4.332,4.332,0,0,0-4.069,3.718l-3.312,23.856a3.1,3.1,0,0,0,3.038,3.718h14.78a4.333,4.333,0,0,0,4.069-3.718l3.062-21.4C311.237,161.293,310.336,159,305.826,159Zm-4.706,23.254-.057.392a.474.474,0,0,1-.453.4h-7.494a.334.334,0,0,1-.338-.4l.057-.392a.474.474,0,0,1,.453-.4h7.494a.334.334,0,0,1,.339.4Zm4.891-3.847-.057.392a.473.473,0,0,1-.453.4H289.443a.334.334,0,0,1-.338-.4l.057-.392a.473.473,0,0,1,.453-.4h16.059a.334.334,0,0,1,.338.4Zm.573-3.847-.057.392a.473.473,0,0,1-.453.4H290.017a.334.334,0,0,1-.338-.4l.057-.392a.473.473,0,0,1,.453-.4h16.057a.334.334,0,0,1,.342.4Zm.653-3.847-.057.392a.473.473,0,0,1-.453.4H290.67a.334.334,0,0,1-.338-.4l.057-.392a.474.474,0,0,1,.453-.4H306.9a.334.334,0,0,1,.338.4Zm.526-3.847-.057.392a.473.473,0,0,1-.453.4H291.2a.334.334,0,0,1-.338-.4l.057-.392a.473.473,0,0,1,.453-.4h16.058a.334.334,0,0,1,.338.4Z" transform="translate(-264.496 -147.238)"/>
      </g>
    </g>
  </g>
</svg>
