<?xml version="1.0"?>
<svg xmlns="http://www.w3.org/2000/svg" id="sanarfli-vertical" width="68.882" height="49.785" viewBox="0 0 68.882 49.785">
  <path id="Path_1301" data-name="Path 1301" d="M60.239,21.831l-.283-.33V15.166h1.672L63.654,21.5l-.283.33h5.511l-.259-.33-2.849-7.442a3.678,3.678,0,0,0,1.743-1.837,6.271,6.271,0,0,0,.471-2.355V5.6a5.856,5.856,0,0,0-.447-2.379,4.969,4.969,0,0,0-1.2-1.672A5.186,5.186,0,0,0,64.549.542a6.262,6.262,0,0,0-2.19-.33H55.011l.259.259V21.5l-.024.024-.024-.024L49.807.495l.283-.259H44.532l.259.259L39.7,20.63V.471l.283-.259H34.971l.283.259V10.857L26.87,0h-.283V21.454l-.047.024h0L21.124.471l.283-.236H15.872l.259.259L12.2,16.038c.024-.259.047-.518.071-.8a5.347,5.347,0,0,0-.447-2.567,5.881,5.881,0,0,0-1.342-1.86A8.74,8.74,0,0,0,8.6,9.491a16.05,16.05,0,0,0-2.072-.871,4.325,4.325,0,0,1-1.3-.871,1.531,1.531,0,0,1-.447-1.319,1.593,1.593,0,0,1,.73-1.272,2.728,2.728,0,0,1,1.413-.4,6.058,6.058,0,0,1,1.6.141,8.519,8.519,0,0,1,1.319.4l1.507-4.192A11.069,11.069,0,0,0,7.442.165,8.134,8.134,0,0,0,3.862.683,6.164,6.164,0,0,0,1.2,2.732a6.188,6.188,0,0,0-1.13,3.6A5.991,5.991,0,0,0,.565,9.208,6.566,6.566,0,0,0,2,11.163a9.511,9.511,0,0,0,1.907,1.319l1.884.989a6.5,6.5,0,0,1,1.366.895,1.01,1.01,0,0,1,.353,1.083,1.674,1.674,0,0,1-.942,1.3,3.467,3.467,0,0,1-1.625.165,7.62,7.62,0,0,1-1.884-.471c-.636-.236-1.2-.471-1.672-.683L0,20.324a11.155,11.155,0,0,0,2.237.989,10.428,10.428,0,0,0,2.52.518,9.428,9.428,0,0,0,2.567-.165,6.071,6.071,0,0,0,2.331-1.013,8.678,8.678,0,0,0,.871-.754,4.672,4.672,0,0,0,.824-1.107,4.943,4.943,0,0,0,.353-.707L10.833,21.5l-.33.33h5.44l-.259-.33.8-3.273h4.357l.848,3.273-.283.33h9.914l-.259-.353V12.505l8.407,9.326h.259V21.76l4.9.071-.259-.33.824-3.273h4.357L50.4,21.5l-.283.33ZM63.254,9.962a.91.91,0,0,1-.259.636.838.838,0,0,1-.683.259H59.957V4.71h2.355a1.026,1.026,0,0,1,.683.259.91.91,0,0,1,.259.636ZM18.6,6.994h.047l1.13,6.83H17.45Zm28.683,0h.047l1.13,6.83H46.157Z" fill="#fafafa"/>
  <path id="Path_1302" data-name="Path 1302" d="M89.9,126.88l3.839-8.078c.495-.848.706-1.342.4-2.049A1.874,1.874,0,0,0,92.4,115.6H72.191a2.156,2.156,0,0,0-1.955,1.2v13.471H67.175V117.484a1.89,1.89,0,0,0-1.884-1.884H50.031a1.915,1.915,0,0,0-1.931,1.884v19.5a1.811,1.811,0,0,0,1.7,1.154h4.545a1.822,1.822,0,0,0,1.7-1.154v-6.241h3.25v6.194a1.853,1.853,0,0,0,1.7,1.225h22.7a1.894,1.894,0,0,0,1.86-1.554,1.894,1.894,0,0,0,1.86,1.554H92.42a1.911,1.911,0,0,0,1.743-1.154c.283-.706-.141-1.342-.4-2.049Zm-3.2,7.112-1.154-3.273-1.2,3.391-.895,1.908.235.236H78.738v-.047l.188-.188,4.357-9.137-3.532-5.44a3.6,3.6,0,0,0-2.143-1.554l-1.013-.283v16.414l.212.188v.047H72.191l.259-.235V117.7l-.259-.235H83.66l-.259.235,1.013,2.12,1.13,3.132,1.083-3.109,1.036-2.167-.235-.235H92.4l-.235.235-4.38,9.185,4.38,9.137.235.236H87.4l.259-.236Zm-16.649-1.86v3.862l.235.236H61.005l.235-.212V117.46h4.1v14.672Zm-11.8-3.014-.235-.236H54.129v7.112l.235.236H49.8l.235-.236V117.46h8.5l.235-.235v4.569l-.235-.236h-4.4v3.273h3.886l.235-.236Z" transform="translate(-36.773 -88.376)" fill="#fafafa"/>
</svg>
